<svg xmlns="http://www.w3.org/2000/svg" width="15" height="15" viewBox="0 0 15 15">
  <defs>
    <style>
      .cls-1 {
        fill: #999;
      }
    </style>
  </defs>
  <g id="组_708" data-name="组 708" transform="translate(-64 -64)">
    <g id="组_709" data-name="组 709" transform="translate(64 64)">
      <path id="路径_265" data-name="路径 265" class="cls-1" d="M326.479,322.757H323.86v-2.619a.138.138,0,0,0-.138-.138H322.9a.138.138,0,0,0-.138.138v2.619h-2.619a.138.138,0,0,0-.138.138v.827a.138.138,0,0,0,.138.138h2.619v2.619a.138.138,0,0,0,.138.138h.827a.138.138,0,0,0,.138-.138V323.86h2.619a.138.138,0,0,0,.138-.138V322.9A.138.138,0,0,0,326.479,322.757Z" transform="translate(-315.809 -315.808)"/>
      <path id="路径_266" data-name="路径 266" class="cls-1" d="M71.5,64A7.5,7.5,0,1,0,79,71.5,7.5,7.5,0,0,0,71.5,64Zm0,13.728A6.228,6.228,0,1,1,77.728,71.5,6.229,6.229,0,0,1,71.5,77.728Z" transform="translate(-64 -64)"/>
    </g>
  </g>
</svg>
