<svg xmlns="http://www.w3.org/2000/svg" width="13" height="13" viewBox="0 0 13 13">
  <g id="组_816" data-name="组 816" transform="translate(-64 -64)">
    <path id="路径_274" data-name="路径 274" d="M325.9,480h-5.774c-.069,0-.126.075-.126.167v1c0,.092.056.167.126.167H325.9c.069,0,.126-.075.126-.167v-1C326.025,480.075,325.968,480,325.9,480Z" transform="translate(-252.512 -410.169)" fill="#ff778f"/>
    <path id="路径_275" data-name="路径 275" d="M70.5,64A6.5,6.5,0,1,0,77,70.5,6.5,6.5,0,0,0,70.5,64Zm0,11.9a5.4,5.4,0,1,1,5.4-5.4A5.4,5.4,0,0,1,70.5,75.9Z" fill="#ff778f"/>
  </g>
</svg>
