<svg xmlns="http://www.w3.org/2000/svg" width="15" height="15" viewBox="0 0 15 15">
  <defs>
    <style>
      .cls-1 {
        fill: #ff778f;
      }
    </style>
  </defs>
  <g id="Icon-siliaoicon" transform="translate(-0.45 -0.43)">
    <path id="形状" class="cls-1" d="M10.146,14.792S8.915,13.414,8.816,13.3a.442.442,0,0,0-.318-.128H2a2.086,2.086,0,0,1-2-2.162V2.161A2.086,2.086,0,0,1,2,0h11.02A2.084,2.084,0,0,1,15,2.161V11a2.085,2.085,0,0,1-1.985,2.162H11.893a.635.635,0,0,1-.606-.635.641.641,0,0,1,.606-.634h1.221a.676.676,0,0,0,.606-.733V2.072c0-.416-.279-.793-.606-.793H1.866c-.318,0-.606.367-.606.793v9.062a.676.676,0,0,0,.606.733H8.974a.7.7,0,0,1,.467.228l1.648,1.834a.651.651,0,0,1-.049.9.611.611,0,0,1-.427.169A.64.64,0,0,1,10.146,14.792Zm.02-8.2a.983.983,0,1,1,.983.982A.978.978,0,0,1,10.166,6.593Zm-3.663,0a.983.983,0,1,1,.983.982A.978.978,0,0,1,6.5,6.593Zm-3.673,0a.983.983,0,1,1,.983.982A.991.991,0,0,1,2.83,6.593Z" transform="translate(0.45 0.43)"/>
  </g>
</svg>
