<svg xmlns="http://www.w3.org/2000/svg" width="15" height="15" viewBox="0 0 15 15">
  <defs>
    <style>
      .cls-1 {
        fill: #999;
      }
    </style>
  </defs>
  <g id="组_713" data-name="组 713" transform="translate(-64 -64)">
    <path id="路径_274" data-name="路径 274" class="cls-1" d="M327.858,480h-7.69a.168.168,0,0,0-.167.167v1a.168.168,0,0,0,.167.167h7.69a.168.168,0,0,0,.167-.167v-1A.168.168,0,0,0,327.858,480Z" transform="translate(-252.512 -409.169)"/>
    <path id="路径_275" data-name="路径 275" class="cls-1" d="M71.5,64A7.5,7.5,0,1,0,79,71.5,7.5,7.5,0,0,0,71.5,64Zm0,13.728A6.228,6.228,0,1,1,77.728,71.5,6.229,6.229,0,0,1,71.5,77.728Z"/>
  </g>
</svg>
