<svg xmlns="http://www.w3.org/2000/svg" width="13.5" height="13.5" viewBox="0 0 13.5 13.5">
  <g id="组_813" data-name="组 813" transform="translate(-79.75 -79.75)">
    <path id="路径_152" data-name="路径 152" d="M89.359,128a.481.481,0,0,1,.2.043v0a6.5,6.5,0,1,1-6.116,0v0a.481.481,0,1,1,.381.882h0a5.537,5.537,0,1,0,5.351,0v0a.48.48,0,0,1,.183-.925Z" transform="translate(0 -47.25)" fill="#ff778f" stroke="#ff778f" stroke-width="0.5"/>
    <path id="路径_153" data-name="路径 153" d="M480,80m.5,0h0a.442.442,0,0,1,.5.5V87a.442.442,0,0,1-.5.5h0a.442.442,0,0,1-.5-.5V80.5A.442.442,0,0,1,480.5,80Z" transform="translate(-394)" fill="#ff778f" stroke="#ff778f" stroke-width="0.5"/>
  </g>
</svg>
