<svg xmlns="http://www.w3.org/2000/svg" width="12" height="12" viewBox="0 0 12 12">
  <defs>
    <style>
      .cls-1 {
        fill: #ff778f;
      }
    </style>
  </defs>
  <g id="组_498" data-name="组 498" transform="translate(-469 -434)">
    <path id="路径_149" data-name="路径 149" class="cls-1" d="M.632,6.574V7.892a.967.967,0,0,0,.947.986.967.967,0,0,0,.947-.986V6.574a.967.967,0,0,0-.947-.986.967.967,0,0,0-.947.986ZM9.339,9.087a1.67,1.67,0,0,1-.5-1.2V6.574A1.613,1.613,0,0,1,10.41,4.932,4.5,4.5,0,0,0,6,.658,4.5,4.5,0,0,0,1.59,4.932,1.614,1.614,0,0,1,3.158,6.574V7.892A1.612,1.612,0,0,1,1.579,9.536,1.612,1.612,0,0,1,0,7.892V6.574A1.647,1.647,0,0,1,.951,5.067,5.151,5.151,0,0,1,6,0a5.151,5.151,0,0,1,5.049,5.067A1.648,1.648,0,0,1,12,6.574V7.892a1.665,1.665,0,0,1-.669,1.342,1.527,1.527,0,0,1-1.439.205,5.353,5.353,0,0,1-2.155,1.44A1.126,1.126,0,0,1,6.628,12H5.687a1.151,1.151,0,0,1,0-2.3h.941a1.1,1.1,0,0,1,.943.544A4.716,4.716,0,0,0,9.338,9.087Zm.135-2.513V7.892a.948.948,0,1,0,1.895,0V6.574a.948.948,0,1,0-1.895,0ZM5.687,11.342h.941a.493.493,0,0,0,0-.986H5.687a.493.493,0,0,0,0,.986Z" transform="translate(469 434)"/>
  </g>
</svg>
