<svg id="上传" xmlns="http://www.w3.org/2000/svg" width="20" height="20" viewBox="0 0 20 20">
  <defs>
    <style>
      .cls-1 {
        opacity: 0;
      }

      .cls-2 {
        fill: #fff;
      }
    </style>
  </defs>
  <rect id="矩形" class="cls-1" width="20" height="20"/>
  <path id="形状" class="cls-2" d="M1.125,14A1.135,1.135,0,0,1,0,12.857V2.2A1.134,1.134,0,0,1,1.125,1.053H3.75V2.576H2.25a.756.756,0,0,0-.75.761v8.378a.756.756,0,0,0,.75.761h10.5a.756.756,0,0,0,.75-.761V3.337a.756.756,0,0,0-.75-.761h-1.5V1.053h2.625A1.134,1.134,0,0,1,15,2.2V12.857A1.135,1.135,0,0,1,13.875,14ZM7.483,10.38l-.1.1L3.375,6.4l1.06-1.076,2.6,2.643V.572A.567.567,0,0,1,7.6,0h.375a.567.567,0,0,1,.562.572V7.644l2.277-2.312,1.1,1.114L7.762,10.662Z" transform="translate(3 3)"/>
</svg>
