<svg xmlns="http://www.w3.org/2000/svg" width="13" height="13" viewBox="0 0 13 13">
  <g id="组_812" data-name="组 812" transform="translate(-65.126 -62.259)">
    <path id="路径_150" data-name="路径 150" d="M76.3,65.909a.783.783,0,0,1,1.565,0v7.737a1.6,1.6,0,0,1-1.581,1.613H66.707a1.6,1.6,0,0,1-1.581-1.613V63.872a1.6,1.6,0,0,1,1.581-1.613H74.3a.8.8,0,0,1,0,1.6H66.707a.016.016,0,0,0-.015.015v9.775a.015.015,0,0,0,.015.016h9.579a.016.016,0,0,0,.016-.015v-7.74Z" fill="#ff778f"/>
    <path id="路径_151" data-name="路径 151" d="M479.358,69.423a.831.831,0,0,1,1.145,1.2l-6,5.72a.831.831,0,1,1-1.146-1.2Z" transform="translate(-402.598 -6.864)" fill="#ff778f"/>
  </g>
</svg>
