<svg xmlns="http://www.w3.org/2000/svg" width="11" height="15" viewBox="0 0 11 15">
  <defs>
    <style>
      .cls-1 {
        fill: #999;
      }
    </style>
  </defs>
  <path id="路径_316" data-name="路径 316" class="cls-1" d="M171.067,67.426l-3.287-3.589c-.094-.1-.414,0-.548,0h-6.575a.617.617,0,0,0-.548.6V78.194a.617.617,0,0,0,.548.6h9.862a.617.617,0,0,0,.548-.6V68.024C171.067,67.882,171.162,67.526,171.067,67.426Zm-1.1.6h-2.74V65.033Zm0,9.572h-8.766V65.033h4.931v3.589c0,.387.183.6.548.6h3.287Z" transform="translate(-160.109 -63.792)"/>
</svg>
