<svg xmlns="http://www.w3.org/2000/svg" width="25" height="25.074" viewBox="0 0 25 25.074">
  <g id="组_721" data-name="组 721" transform="translate(-797 -425.926)">
    <path id="路径_280" data-name="路径 280" d="M180.05,69.848l-5.982-5.982c-.172-.167-.754,0-1,0H161.106a1.07,1.07,0,0,0-1,1V87.795a1.07,1.07,0,0,0,1,1h17.947a1.07,1.07,0,0,0,1-1V70.845C180.05,70.609,180.222,70.015,180.05,69.848Zm-1.994,1h-4.985V65.86Zm0,15.953H162.1V65.86h8.973v5.982a.889.889,0,0,0,1,1h5.982Z" transform="translate(638.891 362.134)" fill="#40a9ff"/>
    <rect id="矩形_1172" data-name="矩形 1172" width="25" height="25" transform="translate(797 426)" fill="none"/>
  </g>
</svg>
