<svg xmlns="http://www.w3.org/2000/svg" width="10" height="17" viewBox="0 0 10 17">
  <defs>
    <style>
      .cls-1 {
        fill: #ff778f;
      }
    </style>
  </defs>
  <g id="组_30" data-name="组 30" transform="translate(-269.653 -96)">
    <path id="路径_7" data-name="路径 7" class="cls-1" d="M270.307,113a.663.663,0,0,1-.654-.654V96.654a.654.654,0,0,1,1.308,0v15.692A.654.654,0,0,1,270.307,113Z" transform="translate(0 0)"/>
    <path id="路径_8" data-name="路径 8" class="cls-1" d="M280.244,189.616h-8.458v-8.282h8.458a1.488,1.488,0,0,1,1.271.733,1.584,1.584,0,0,1,.066,1.5l-.846,1.8a.224.224,0,0,0,0,.209l.846,1.822a1.557,1.557,0,0,1-.059,1.491,1.487,1.487,0,0,1-1.277.724Zm-7.232-1.308h7.232a.218.218,0,0,0,.186-.1.215.215,0,0,0,0-.218l-.846-1.822a1.576,1.576,0,0,1,0-1.377l.846-1.8a.224.224,0,0,0,0-.227.219.219,0,0,0-.195-.113h-7.223Z" transform="translate(-2.089 -83.59)"/>
  </g>
</svg>
