<svg xmlns="http://www.w3.org/2000/svg" width="11.786" height="15" viewBox="0 0 11.786 15">
  <defs>
    <style>
      .cls-1 {
        fill: #999;
      }
    </style>
  </defs>
  <g id="组_714" data-name="组 714" transform="translate(-160 -64)">
    <path id="路径_277" data-name="路径 277" class="cls-1" d="M376.99,458.071a.13.13,0,0,0-.116-.071h-.757a.146.146,0,0,0-.061.016.13.13,0,0,0-.053.177l1.356,2.5h-.7a.131.131,0,0,0-.13.13v.389a.131.131,0,0,0,.13.13h.977v.444h-.977a.131.131,0,0,0-.13.13v.389a.131.131,0,0,0,.13.13h.977v.774a.131.131,0,0,0,.13.13h.678a.131.131,0,0,0,.13-.13v-.774h.982a.126.126,0,0,0,.127-.132v-.388a.131.131,0,0,0-.13-.13h-.982v-.444h.982a.131.131,0,0,0,.13-.13v-.389a.131.131,0,0,0-.13-.13h-.712l1.353-2.5a.123.123,0,0,0,.016-.062.131.131,0,0,0-.13-.13h-.742a.134.134,0,0,0-.116.071l-1.115,2.2Z" transform="translate(-212.205 -387.102)"/>
    <path id="路径_278" data-name="路径 278" class="cls-1" d="M171.25,64H160.536a.535.535,0,0,0-.536.536V78.464a.535.535,0,0,0,.536.536H171.25a.535.535,0,0,0,.536-.536V64.536A.535.535,0,0,0,171.25,64Zm-.67,13.795h-9.375V66.161l4.358,3.417a.535.535,0,0,0,.661,0l4.356-3.417Zm0-12.578h-.531l-4.157,3.258-4.157-3.258h-.531v-.012h9.375Z" transform="translate(0 0)"/>
  </g>
</svg>
