<svg xmlns="http://www.w3.org/2000/svg" width="15" height="15" viewBox="0 0 15 15">
  <defs>
    <style>
      .cls-1 {
        fill: #999;
      }
    </style>
  </defs>
  <g id="组_710" data-name="组 710" transform="translate(-492.007 -456.007)">
    <g id="组_711" data-name="组 711" transform="translate(492.007 456.007)">
      <path id="路径_267" data-name="路径 267" class="cls-1" d="M71.5,64A7.5,7.5,0,1,0,79,71.5,7.5,7.5,0,0,0,71.5,64Zm0,13.728A6.228,6.228,0,1,1,77.728,71.5,6.229,6.229,0,0,1,71.5,77.728Z" transform="translate(-64 -64)"/>
      <path id="路径_268" data-name="路径 268" class="cls-1" d="M350.2,299h-1.014a.134.134,0,0,0-.121.075l-1.544,3.068h-.058l-1.544-3.068A.136.136,0,0,0,345.8,299h-1.035a.127.127,0,0,0-.065.017.137.137,0,0,0-.055.186l1.9,3.491h-1.047a.137.137,0,0,0-.136.136v.51a.137.137,0,0,0,.136.136h1.393v.706h-1.393a.137.137,0,0,0-.136.136v.51a.137.137,0,0,0,.136.136h1.393v1.161a.137.137,0,0,0,.136.136h.926a.137.137,0,0,0,.136-.136v-1.161h1.4a.137.137,0,0,0,.136-.136v-.51a.137.137,0,0,0-.136-.136h-1.4v-.707h1.4a.137.137,0,0,0,.136-.136v-.51a.137.137,0,0,0-.136-.136h-1.057l1.894-3.491a.147.147,0,0,0,.017-.065A.139.139,0,0,0,350.2,299Z" transform="translate(-339.979 -295.13)"/>
    </g>
  </g>
</svg>
