<svg xmlns="http://www.w3.org/2000/svg" width="12" height="12.001" viewBox="0 0 12 12.001">
  <g id="组_807" data-name="组 807" transform="translate(-487 -478)">
    <g id="组_806" data-name="组 806" transform="translate(360 462.641)">
      <path id="路径_294" data-name="路径 294" d="M137.673,27.36h-9.346a.315.315,0,0,1-.327-.309V15.669a.315.315,0,0,1,.327-.309h9.346a.315.315,0,0,1,.327.309V27.051A.315.315,0,0,1,137.673,27.36Zm-9.02-.619h8.693V15.979h-8.693Z" transform="translate(0 0)" fill="#ff778f"/>
      <path id="路径_295" data-name="路径 295" d="M291.555,20.363a.442.442,0,0,1-.175-.038l-1.437-.732-1.437.732a.385.385,0,0,1-.35,0,.314.314,0,0,1-.175-.275V15.673a.33.33,0,0,1,.35-.313h3.224a.33.33,0,0,1,.35.313v4.378a.3.3,0,0,1-.175.269A.345.345,0,0,1,291.555,20.363Zm-1.612-1.438a.442.442,0,0,1,.175.038l1.086.55V15.985h-2.523v3.527l1.086-.55A.442.442,0,0,1,289.944,18.925Zm2.733,3.94H287.07a.315.315,0,1,1,0-.625h5.606a.315.315,0,1,1,0,.625Zm-2.8,1.626h-2.8a.315.315,0,1,1,0-.625h2.8a.315.315,0,1,1,0,.625Zm2.558,1.689a1.227,1.227,0,1,1,1.367-1.22A1.3,1.3,0,0,1,292.431,26.18Zm0-1.814a.6.6,0,1,0,.666.594A.637.637,0,0,0,292.431,24.366Z" transform="translate(-156.978 0)" fill="#ff778f"/>
    </g>
    <rect id="矩形_1188" data-name="矩形 1188" width="12" height="12" transform="translate(487 478)" fill="none" opacity="0.1"/>
  </g>
</svg>
