<svg xmlns="http://www.w3.org/2000/svg" width="13" height="13" viewBox="0 0 13 13">
  <g id="组_814" data-name="组 814" transform="translate(-65.068 -77.164)">
    <path id="路径_295" data-name="路径 295" d="M78.038,83.119a1.33,1.33,0,0,0-.971-1.052,1.278,1.278,0,0,0-.607,0V78.811a2.278,2.278,0,0,0-.059-.7,1.337,1.337,0,0,0-1.268-.948c-.366,0-.732,0-1.1,0h-5.9a1.562,1.562,0,0,0-.593.081,1.362,1.362,0,0,0-.868,1.306v3.511l-.023,0a1.3,1.3,0,0,0-1.26.437,1.419,1.419,0,0,0-.32.908v5.413a1.323,1.323,0,0,0,1.341,1.349H76.776A1.337,1.337,0,0,0,78.01,89.2a1.766,1.766,0,0,0,.053-.5V84.031A5.911,5.911,0,0,0,78.038,83.119Zm-.908.018h0Zm-.015-.017-.008-.011.007.011Zm-1.7-4.967-.021-.016S75.4,78.143,75.415,78.153Zm-7.741.042c.015-.015.031-.028.046-.043a.874.874,0,0,1,.092-.055.919.919,0,0,1,.111-.031c.076-.005.153,0,.229,0H74.3c.281,0,.563,0,.843,0l.064,0a.924.924,0,0,1,.113.032.874.874,0,0,1,.087.051l.016.011c.016.015.033.033.035.035s.028.032.042.047a.888.888,0,0,1,.053.095.959.959,0,0,1,.031.117c.01.134,0,.271,0,.4V82.44a.4.4,0,0,0,0,.053l-.329.184-1.493.837-1.508.846-.694.389-.3-.168-1.238-.694-1.447-.811-1.043-.585a.467.467,0,0,0,.008-.085V78.947c0-.161-.011-.328,0-.49a1,1,0,0,1,.032-.12.934.934,0,0,1,.05-.09l.011-.016Zm-.041.043a.17.17,0,0,1-.016.021A.083.083,0,0,1,67.633,78.238Zm-1.52,10.938.021.016S66.123,89.187,66.112,89.177Zm9.6.09H66.389l-.069,0a.924.924,0,0,1-.112-.032.862.862,0,0,1-.087-.051L66.1,89.17c-.016-.015-.033-.033-.035-.035s-.027-.032-.042-.047a.911.911,0,0,1-.053-.095,1,1,0,0,1-.032-.121c-.015-.185,0-.376,0-.56v-4.3c0-.21,0-.421,0-.631,0-.022,0-.044,0-.066a.972.972,0,0,1,.03-.115.881.881,0,0,1,.054-.1h0q.023-.027.048-.052c.01-.01.038-.028.051-.043a.855.855,0,0,1,.081-.047.931.931,0,0,1,.115-.033.92.92,0,0,1,.111,0,.91.91,0,0,1,.122.036c.16.078.313.176.468.263l1.139.639,1.392.78,1.21.678c.191.107.38.22.574.322a.465.465,0,0,0,.454,0l.063-.035.3-.166,1.1-.614,1.387-.777,1.241-.7.658-.369.051-.028a.914.914,0,0,1,.112-.032.889.889,0,0,1,.112,0,.918.918,0,0,1,.115.033.87.87,0,0,1,.077.045l.018.013L77,83c.019.018.04.035.058.053s.032.033.047.051c.02.033.039.065.056.1a.985.985,0,0,1,.03.116c.015.186,0,.379,0,.564v4.3c0,.21,0,.421,0,.631,0,.021,0,.042,0,.063a1,1,0,0,1-.031.116.908.908,0,0,1-.05.09L77.1,89.1c-.015.016-.032.034-.034.036s-.031.028-.046.043a.865.865,0,0,1-.092.055.922.922,0,0,1-.113.032l-.058,0H75.711Zm1.391-.176a.172.172,0,0,1,.016-.021S77.112,89.08,77.1,89.091Z" transform="translate(0 0)" fill="#ff778f"/>
    <path id="路径_296" data-name="路径 296" d="M314.709,222.813C314.773,222.872,314.742,222.839,314.709,222.813Zm-8.292-2.853h4.642c.214,0,.428,0,.642,0h.009a.453.453,0,0,0,0-.905h-4.642c-.214,0-.428,0-.642,0h-.009a.453.453,0,1,0,0,.905Zm0,2.135h4.642c.214,0,.428,0,.642,0h.009a.452.452,0,0,0,0-.9h-4.642c-.214,0-.428,0-.642,0h-.009a.452.452,0,1,0,0,.9Z" transform="translate(-237.728 -139.773)" fill="#ff778f"/>
  </g>
</svg>
