<svg xmlns="http://www.w3.org/2000/svg" width="15" height="15" viewBox="0 0 15 15">
  <defs>
    <style>
      .cls-1 {
        fill: #999;
      }
    </style>
  </defs>
  <path id="路径_276" data-name="路径 276" class="cls-1" d="M135.5,128a7.5,7.5,0,0,0-7.5,7.5v7.031a.468.468,0,0,0,.469.469h3.594a1.251,1.251,0,0,0,1.25-1.25v-4.062a1.251,1.251,0,0,0-1.25-1.25h-2.656V135.5a6.094,6.094,0,0,1,12.188,0v.938h-2.656a1.251,1.251,0,0,0-1.25,1.25v4.063a1.251,1.251,0,0,0,1.25,1.25h3.594a.468.468,0,0,0,.469-.469V135.5A7.5,7.5,0,0,0,135.5,128Zm-3.594,9.844v3.75h-2.5v-3.75Zm9.688,3.75h-2.5v-3.75h2.5Z" transform="translate(-128 -128)"/>
</svg>
