<svg xmlns="http://www.w3.org/2000/svg" width="15" height="15" viewBox="0 0 15 15">
  <defs>
    <style>
      .cls-1 {
        fill: #999;
      }
    </style>
  </defs>
  <g id="组_712" data-name="组 712" transform="translate(-112 -112)">
    <path id="路径_269" data-name="路径 269" class="cls-1" d="M126.4,112H112.6a.6.6,0,0,0-.6.6v13.8a.6.6,0,0,0,.6.6h13.8a.6.6,0,0,0,.6-.6V112.6A.6.6,0,0,0,126.4,112Zm-.75,13.65h-12.3v-12.3h12.3Z"/>
    <path id="路径_270" data-name="路径 270" class="cls-1" d="M484.145,337.161h3.337a.145.145,0,0,0,.145-.145v-.87a.145.145,0,0,0-.145-.145h-3.337a.145.145,0,0,0-.145.145v.87A.145.145,0,0,0,484.145,337.161Zm0,2.611h3.337a.145.145,0,0,0,.145-.145v-.87a.146.146,0,0,0-.145-.145h-3.337a.146.146,0,0,0-.145.145v.87A.145.145,0,0,0,484.145,339.772Zm0,2.611h3.337a.145.145,0,0,0,.145-.145v-.87a.145.145,0,0,0-.145-.145h-3.337a.145.145,0,0,0-.145.145v.87A.145.145,0,0,0,484.145,342.383Z" transform="translate(-364.949 -219.692)"/>
    <path id="路径_271" data-name="路径 271" class="cls-1" d="M340.725,328.725m-.725,0a.725.725,0,1,0,.725-.725A.725.725,0,0,0,340,328.725Z" transform="translate(-223.709 -211.935)"/>
    <path id="路径_272" data-name="路径 272" class="cls-1" d="M340.725,472.725m-.725,0a.725.725,0,1,0,.725-.725A.725.725,0,0,0,340,472.725Z" transform="translate(-223.709 -353.225)"/>
    <path id="路径_273" data-name="路径 273" class="cls-1" d="M340.725,616.725m-.725,0a.725.725,0,1,0,.725-.725A.725.725,0,0,0,340,616.725Z" transform="translate(-223.709 -494.516)"/>
  </g>
</svg>
