<svg xmlns="http://www.w3.org/2000/svg" width="14" height="15" viewBox="0 0 14 15">
  <g id="组_806" data-name="组 806" transform="translate(-51.368 -21.609)">
    <path id="路径_290" data-name="路径 290" d="M58.477,21.609a2.828,2.828,0,0,0-2.824,2.738H52.088a.721.721,0,0,0,0,1.442h.795v8.067a2.557,2.557,0,0,0,2.293,2.752h6.459a2.554,2.554,0,0,0,2.293-2.752V25.794h.72a.721.721,0,0,0,0-1.442H61.3a2.82,2.82,0,0,0-2.819-2.743ZM57,24.347a1.476,1.476,0,0,1,2.946,0ZM55.174,35.26c-.449,0-.944-.577-.944-1.4V25.794h8.346v8.07c0,.825-.495,1.4-.944,1.4H55.174Zm0,0" transform="translate(0)" fill="#ff6868"/>
    <path id="路径_291" data-name="路径 291" d="M325.7,433.844a.773.773,0,0,0,.68-.84v-4.8a.7.7,0,1,0-1.36,0V433A.769.769,0,0,0,325.7,433.844Zm2.461,0a.773.773,0,0,0,.68-.84v-4.8a.7.7,0,1,0-1.36,0V433A.775.775,0,0,0,328.164,433.844Zm2.589,0a.773.773,0,0,0,.68-.84v-4.8a.7.7,0,1,0-1.36,0V433A.767.767,0,0,0,330.754,433.844Zm0,0" transform="translate(-269.858 -400.067)" fill="#ff6868"/>
  </g>
</svg>
