<svg xmlns="http://www.w3.org/2000/svg" width="14" height="14" viewBox="0 0 14 14">
  <defs>
    <style>
      .cls-1 {
        fill: #999;
      }
    </style>
  </defs>
  <g id="组_2" data-name="组 2" transform="translate(-51.28 -50.98)">
    <path id="路径_1" data-name="路径 1" class="cls-1" d="M58.28,50.98a7,7,0,1,0,7,7A7.008,7.008,0,0,0,58.28,50.98Zm0,13a6,6,0,1,1,6-6A6,6,0,0,1,58.28,63.977Zm0,0"/>
    <path id="路径_2" data-name="路径 2" class="cls-1" d="M369.458,246.3a2.216,2.216,0,0,0-2.3,2.114.527.527,0,0,0,1.052,0,1.186,1.186,0,0,1,1.249-1.14,1.212,1.212,0,0,1,1.249,1.168c0,.243-.376.591-.707.9a2.522,2.522,0,0,0-1.069,1.694v.7a.528.528,0,0,0,1.053,0v-.7c0-.3.387-.659.761-1a2.407,2.407,0,0,0,1.015-1.587A2.232,2.232,0,0,0,369.458,246.3Zm-.789,7.6a.792.792,0,1,0,.789-.731.762.762,0,0,0-.789.731Zm0,0" transform="translate(-311.178 -192.214)"/>
  </g>
</svg>
