<svg xmlns="http://www.w3.org/2000/svg" width="20" height="20" viewBox="0 0 20 20">
  <g id="删除" transform="translate(-383 -298)">
    <rect id="矩形_1113" data-name="矩形 1113" width="20" height="20" transform="translate(383 298)" fill="none"/>
    <g id="组_766" data-name="组 766" transform="translate(386.333 299.333)">
      <path id="路径_263" data-name="路径 263" d="M197.393,148.86h-8.558a.835.835,0,0,1-.848-.759l-.734-10.447a.829.829,0,0,1,.848-.867h10.027a.83.83,0,0,1,.848.867l-.734,10.447A.835.835,0,0,1,197.393,148.86Zm2.42-13.6H186.52a.019.019,0,0,1-.02-.019v-2.224a.019.019,0,0,1,.02-.019h13.293a.019.019,0,0,1,.02.019v2.223A.02.02,0,0,1,199.813,135.263Z" transform="translate(-186.5 -131.527)" fill="#666"/>
      <path id="路径_264" data-name="路径 264" d="M345.924,59.467h-7.1a.019.019,0,0,1-.02-.019V56.919a.019.019,0,0,1,.02-.019h7.1a.019.019,0,0,1,.02.019v2.528A.02.02,0,0,1,345.924,59.467Z" transform="translate(-335.719 -56.9)" fill="#666"/>
    </g>
  </g>
</svg>
