<svg xmlns="http://www.w3.org/2000/svg" width="20" height="20" viewBox="0 0 20 20">
  <defs>
    <style>
      .cls-1 {
        fill: none;
      }

      .cls-2 {
        fill: #fff;
      }
    </style>
  </defs>
  <g id="_1" data-name="1" transform="translate(-411 -250)">
    <rect id="矩形_910" data-name="矩形 910" class="cls-1" width="20" height="20" transform="translate(411 250)"/>
    <path id="路径_234" data-name="路径 234" class="cls-2" d="M106.327,100.318h4.338a1.833,1.833,0,0,1,1.833,1.833.667.667,0,1,0,1.333,0,3.167,3.167,0,0,0-3.167-3.167h-4.338a.667.667,0,0,0,0,1.333Zm1.279,1.167-1.473-2.963a.667.667,0,1,0-1.194.593l1.543,3.1a1.083,1.083,0,0,0,.97.6h5.543a1.833,1.833,0,0,1,1.833,1.833v6.667a.667.667,0,1,0,1.333,0v-6.667a3.167,3.167,0,0,0-3.167-3.167Zm7.221,5.673v4.993a1.833,1.833,0,0,1-1.833,1.833H101.327a1.833,1.833,0,0,1-1.833-1.833V101.318a1.833,1.833,0,0,1,1.833-1.833h4.208a.667.667,0,1,0,0-1.333h-4.208a3.167,3.167,0,0,0-3.167,3.167v10.833a3.167,3.167,0,0,0,3.167,3.167h11.667a3.167,3.167,0,0,0,3.167-3.167v-4.993a.667.667,0,1,0-1.333,0Z" transform="translate(313.839 153.849)"/>
  </g>
</svg>
