<svg xmlns="http://www.w3.org/2000/svg" width="20" height="20" viewBox="0 0 20 20">
  <defs>
    <style>
      .cls-1 {
        fill: none;
      }

      .cls-2 {
        fill: #fff;
      }
    </style>
  </defs>
  <g id="_2" data-name="2" transform="translate(-402 -287)">
    <rect id="矩形_993" data-name="矩形 993" class="cls-1" width="20" height="20" transform="translate(402 287)"/>
    <g id="_2-2" data-name="2" transform="translate(281.34 190.617)">
      <path id="路径_235" data-name="路径 235" class="cls-2" d="M362.122,106.136a7.324,7.324,0,0,1,4.83,6.886.655.655,0,1,1-1.309,0,6.012,6.012,0,1,0-12.023,0,.655.655,0,0,1-1.309,0,7.324,7.324,0,0,1,4.829-6.886,3.988,3.988,0,1,1,4.983,0Zm-2.491-.435a2.679,2.679,0,1,0-2.679-2.679A2.679,2.679,0,0,0,359.631,105.7Z" transform="translate(-226.842 0)"/>
      <path id="路径_236" data-name="路径 236" class="cls-2" d="M126.878,166.263a.652.652,0,0,1-.272.059,4.086,4.086,0,0,0-4.086,4.086.655.655,0,0,1-1.309,0,5.4,5.4,0,0,1,3.05-4.86,3.025,3.025,0,1,1,4.049-4.495.655.655,0,0,1-.879.971,1.716,1.716,0,1,0-.3,2.765.655.655,0,1,1,.647,1.137,3.007,3.007,0,0,1-.9.335Z" transform="translate(0 -60.113)"/>
    </g>
  </g>
</svg>
