<svg id="card" xmlns="http://www.w3.org/2000/svg" width="28" height="20" viewBox="0 0 28 20">
  <path id="路径_170" data-name="路径 170" d="M119.241,223.755h-22.4a2.765,2.765,0,0,1-2.8-2.712V206.467a2.765,2.765,0,0,1,2.8-2.712h22.4a2.765,2.765,0,0,1,2.8,2.712v14.576a2.765,2.765,0,0,1-2.8,2.712Zm-22.4-18.644a1.383,1.383,0,0,0-1.4,1.356v14.576a1.383,1.383,0,0,0,1.4,1.356h22.4a1.383,1.383,0,0,0,1.4-1.356V206.467a1.383,1.383,0,0,0-1.4-1.356Z" transform="translate(-94.041 -203.755)" fill="#666"/>
  <path id="路径_171" data-name="路径 171" d="M114.939,339.592h26.6v3.051h-26.6Z" transform="translate(-114.239 -335.185)" fill="#666"/>
  <path id="路径_172" data-name="路径 172" d="M199.231,517.4a.691.691,0,0,1-.7-.678v-5.085a.7.7,0,0,1,1.4,0v5.085A.691.691,0,0,1,199.231,517.4Z" transform="translate(-195.031 -500.989)" fill="#666"/>
  <path id="路径_173" data-name="路径 173" d="M303.72,517.4a.691.691,0,0,1-.7-.678v-5.085a.7.7,0,0,1,1.4,0v5.085A.691.691,0,0,1,303.72,517.4Z" transform="translate(-296.02 -500.989)" fill="#666"/>
  <path id="路径_174" data-name="路径 174" d="M408.21,517.4a.691.691,0,0,1-.7-.678v-5.085a.7.7,0,0,1,1.4,0v5.085A.691.691,0,0,1,408.21,517.4Z" transform="translate(-397.01 -500.989)" fill="#666"/>
  <path id="路径_162" data-name="路径 162" d="M18.083,145.733l1.75-3.528h5.834l-1.75,3.528Z" transform="translate(0 -129.629)" fill="#666"/>
</svg>
