<svg id="收藏" xmlns="http://www.w3.org/2000/svg" width="20" height="20" viewBox="1 1 20 20">
  <defs>
    <style>
      .cls-1 {
        fill: rgba(168,88,88,0);
      }

      .cls-2 {
        fill: #666;
      }
    </style>
  </defs>
  <rect id="矩形_763" data-name="矩形 763" class="cls-1" width="20" height="20"/>
  <path id="收藏-2" data-name="收藏" class="cls-2" d="M71.8,95.743l1.753-3.682a1.925,1.925,0,0,1,3.509,0l1.753,3.682,3.909.6A1.981,1.981,0,0,1,84.3,97.724a2.093,2.093,0,0,1-.493,2.085l-2.826,2.872.663,4.051a2.075,2.075,0,0,1-.78,1.989,1.9,1.9,0,0,1-2.06.156l-3.5-1.907-3.5,1.907a1.9,1.9,0,0,1-2.061-.156,2.075,2.075,0,0,1-.779-1.99l.663-4.051-2.826-2.871a2.093,2.093,0,0,1-.494-2.085,1.981,1.981,0,0,1,1.578-1.385l3.909-.6Zm3.8-3.387a.641.641,0,0,0-.874.308l-1.8,3.788a1.092,1.092,0,0,1-.817.617l-4.022.613a.66.66,0,0,0-.526.462.7.7,0,0,0,.165.7l2.908,2.954a1.159,1.159,0,0,1,.312,1l-.682,4.167a.691.691,0,0,0,.26.663.632.632,0,0,0,.686.052l3.6-1.962a1.051,1.051,0,0,1,1.01,0l3.6,1.963a.632.632,0,0,0,.686-.052.691.691,0,0,0,.26-.663l-.682-4.167a1.159,1.159,0,0,1,.312-1L82.9,98.838a.7.7,0,0,0,.165-.695.66.66,0,0,0-.526-.462l-4.022-.613a1.092,1.092,0,0,1-.817-.617l-1.8-3.789a.666.666,0,0,0-.295-.307Z" transform="translate(-65.308 -90.02)"/>
</svg>
