<svg xmlns="http://www.w3.org/2000/svg" width="30" height="38.254" viewBox="0 0 30 38.254">
  <g id="商品符号" transform="translate(51 -1)">
    <g id="编组-9" transform="translate(-51 1)">
      <path id="路径" d="M30,0V36.253a2,2,0,0,1-3.111,1.663L15.556,30.347a1,1,0,0,0-1.111,0L3.111,37.917A2,2,0,0,1,0,36.254V0H30Z" fill="#fa89af" fill-rule="evenodd"/>
      <path id="形状结合" d="M14.932,5a1.141,1.141,0,0,1,1.141,1.141v.581a4.948,4.948,0,0,1,3.06,1.446q.026.026.05.054a1.08,1.08,0,0,1-.1,1.525,1.164,1.164,0,0,1-1.426.081,3.915,3.915,0,0,0-1.278-.554,2.543,2.543,0,0,0-3.132,1.159c-.458,1.147-.338,2.433,3.517,3.7s4.635,4.4,4.084,6.721c-.488,2.053-2.019,3.217-4.56,3.6v.4a1.141,1.141,0,1,1-2.281,0v-.328a6.554,6.554,0,0,1-3.535-1.762,1.428,1.428,0,0,1-.165-1.932l.033-.04a1.1,1.1,0,0,1,1.548-.121,4.869,4.869,0,0,0,3.194,1.311c2.113,0,3.751-1.353,3.218-3.218s-4.229-2.148-6.7-4.634A4.406,4.406,0,0,1,13.79,6.868V6.141A1.141,1.141,0,0,1,14.932,5Z" fill="#fff" fill-rule="evenodd"/>
    </g>
  </g>
</svg>
