<?xml version="1.0" encoding="UTF-8"?>
<svg width="139px" height="24px" viewBox="0 0 139 24" version="1.1" xmlns="http://www.w3.org/2000/svg" xmlns:xlink="http://www.w3.org/1999/xlink">
    <title>编组 3</title>
    <g id="页面-1" stroke="none" stroke-width="1" fill="none" fill-rule="evenodd">
        <g id="页脚" transform="translate(-888.000000, -139.000000)" fill="#B1B1B1">
            <g id="编组-3" transform="translate(888.000000, 139.000000)">
                <g id="编组备份">
                    <path d="M8.50097334,1.9741755 C10.2590074,4.16683873 11.1380244,7.46812287 11.1380244,11.8780279 C11.1380244,16.287933 10.2590074,19.311779 8.50097334,20.9495659 C9.07510305,21.7103698 9.78524791,22.0907718 10.6314079,22.0907718 C11.900648,22.0907718 12.9182167,21.3910062 14.0626087,18.2697274 C15.2070007,15.1484485 15.1327273,7.29611364 13.1353759,3.30127654 C11.8038082,0.638051805 10.2590074,0.195684794 8.50097334,1.9741755 Z" id="路径"></path>
                    <path d="M1.68059503,8.23613553 C2.27913844,7.98432832 2.73717727,7.63339389 3.05471153,7.18333223 C3.53101292,6.50823973 4.0006383,6.37222223 4.73168432,6.37222223 C5.21904834,6.37222223 5.64314244,6.37222223 6.00396663,6.37222223 C6.83788168,2.38646338 8.15651503,0.262868246 9.95986668,0.00143681961 C9.95986668,0.00143681961 8.57998807,0.00143681961 5.82023085,0.00143681961 C5.0734807,-0.0355466968 4.27332466,0.641432316 3.41976273,2.03237386 C2.56620079,3.4233154 1.98647822,5.49123596 1.68059503,8.23613553 Z" id="路径-2"></path>
                    <path d="M0,11.8848076 L0.114263181,9.46996344 C0.867802342,9.30199262 1.62099675,8.99959563 2.37384641,8.56277248 C3.50312089,7.90753774 3.58203717,7.13016017 4.83904092,7.13016017 C5.12128459,7.13016017 5.49838271,7.13016017 5.97033529,7.13016017 C5.74877723,10.1465724 5.74877723,12.7589553 5.97033529,14.9673088 C6.30267236,18.2798391 7.32677197,22.5875432 10.3041565,23.0057113 C8.6756654,23.0335556 7.1973473,23.0335556 5.86920221,23.0057113 C4.18722379,22.5401514 3.0161866,20.6788554 2.35609064,17.4218232 C1.83159455,14.8338651 1.60642935,12.9881932 1.68059503,11.8848076 L0,11.8848076 Z" id="路径-3"></path>
                </g>
                <g id="编组-2备份" transform="translate(24.000000, 2.000000)">
                    <path d="M0,0.216 L0,19.224 C1.97475672e-15,19.3432935 0.096706494,19.44 0.216,19.44 L3.672,19.44 C3.79129351,19.44 3.888,19.3432935 3.888,19.224 L3.888,0.216 C3.888,0.096706494 3.79129351,1.27246142e-15 3.672,0 L0.216,0 C0.096706494,-5.84171408e-18 1.79679788e-16,0.096706494 0,0.216 Z" id="路径-4"></path>
                    <path d="M79.92,0.216 L79.92,19.224 C79.92,19.3432935 80.0167065,19.44 80.136,19.44 L83.592,19.44 C83.7112935,19.44 83.808,19.3432935 83.808,19.224 L83.808,0.216 C83.808,0.096706494 83.7112935,1.27246142e-15 83.592,0 L80.136,0 C80.0167065,-5.84171408e-18 79.92,0.096706494 79.92,0.216 Z" id="路径-4备份"></path>
                    <path d="M10.368,9.288 L10.368,11.772 C10.368,11.8912935 10.4647065,11.988 10.584,11.988 L17.172,11.988 C17.2912935,11.988 17.388,11.8912935 17.388,11.772 L17.388,9.288 C17.388,9.16870649 17.2912935,9.072 17.172,9.072 L10.584,9.072 C10.4647065,9.072 10.368,9.16870649 10.368,9.288 Z" id="路径-5"></path>
                    <path d="M29.3696437,0 C31.0397528,-3.06794061e-16 32.3936437,1.35389092 32.3936437,3.024 L32.3936437,3.024 L32.3936437,9.11213189 C32.3936437,10.543654 31.2331658,11.7041319 29.8016437,11.7041319 L29.8016437,11.7041319 L28.0031667,11.7041319 L32.7971723,19.1065855 C32.8198212,19.1415578 32.8318719,19.1823343 32.8318719,19.224 C32.8318719,19.3432935 32.7351654,19.44 32.6158719,19.44 L32.6158719,19.44 L28.6084292,19.44 C28.5332506,19.44 28.4634798,19.400911 28.4242208,19.3367974 L28.4242208,19.3367974 L23.8136615,11.8073345 C23.7744025,11.7432209 23.7046317,11.7041319 23.6294531,11.7041319 L23.6294531,11.7041319 L23.1920791,11.7041319 C23.0727856,11.7041319 22.9760791,11.8008384 22.9760791,11.9201319 L22.9760791,11.9201319 L22.9760791,19.224 C22.9760791,19.3432935 22.8793726,19.44 22.7600791,19.44 L22.7600791,19.44 L19.548,19.44 C19.4287065,19.44 19.332,19.3432935 19.332,19.224 L19.332,19.224 L19.332,0.216 C19.332,0.096706494 19.4287065,4.96694372e-17 19.548,0 L19.548,0 Z M26.3809312,3.36421988 L23.0388626,3.36421988 C22.9195691,3.36421988 22.8228626,3.46092638 22.8228626,3.58021988 L22.8228626,8.31324976 C22.8228626,8.43254327 22.9195691,8.52924976 23.0388626,8.52924976 L28.5409312,8.52924976 C28.6602247,8.52924976 28.7569312,8.43254327 28.7569312,8.31324976 L28.7569312,5.74021988 C28.7569312,4.42799132 27.6931597,3.36421988 26.3809312,3.36421988 Z" id="形状结合"></path>
                    <path d="M35.208,3.024 L35.208,17.064 C35.208,18.3762286 36.2717714,19.44 37.584,19.44 L47.088,19.44 C47.2072935,19.44 47.304,19.3432935 47.304,19.224 L47.304,16.464853 C47.304,16.3455595 47.2072935,16.248853 47.088,16.248853 L38.9772067,16.248853 C38.8579132,16.248853 38.7612067,16.1521465 38.7612067,16.032853 L38.7612067,11.6120731 C38.7612067,11.4927796 38.8579132,11.3960731 38.9772067,11.3960731 L46.5216606,11.3960731 C46.6409541,11.3960731 46.7376606,11.2993666 46.7376606,11.1800731 L46.7376606,8.2290639 C46.7376606,8.10977039 46.6409541,8.0130639 46.5216606,8.0130639 L38.9772067,8.0130639 C38.8579132,8.0130639 38.7612067,7.9163574 38.7612067,7.7970639 L38.7612067,5.52421988 C38.7612067,4.33128482 39.7282716,3.36421988 40.9212067,3.36421988 L47.088,3.36421988 C47.2072935,3.36421988 47.304,3.26751339 47.304,3.14821988 L47.304,0.216 C47.304,0.096706494 47.2072935,9.03915821e-16 47.088,0 L38.232,0 C36.5618909,1.19497248e-15 35.208,1.35389092 35.208,3.024 Z" id="路径-8"></path>
                    <path d="M58.7462918,0 C58.8415744,2.87808212e-16 58.9256017,0.0624333119 58.9531007,0.153661436 L64.6826978,19.1616614 C64.7171264,19.2758788 64.6524449,19.3963802 64.5382275,19.4308089 C64.518009,19.4369033 64.497006,19.44 64.4758889,19.44 L61.1164849,19.44 C61.0207512,19.44 60.9364387,19.3769847 60.9093274,19.2851701 L60.2494447,17.0504247 C59.8310209,15.6333995 58.5297799,14.6608495 57.0522688,14.6608495 L53.5475831,14.6608495 L52.2474797,19.2824922 C52.2212757,19.3756431 52.1363167,19.44 52.0395502,19.44 L48.6000528,19.44 C48.4807593,19.44 48.3840528,19.3432935 48.3840528,19.224 C48.3840528,19.2033157 48.3870238,19.1827387 48.3928749,19.1628992 L53.9986997,0.154899241 C54.0257879,0.0630499105 54.1101172,1.28613214e-16 54.2058777,0 L58.7462918,0 Z M56.5388751,4.07958165 L54.3811002,11.0652736 C54.3458935,11.1792535 54.4097519,11.3001932 54.5237319,11.3353999 C54.54438,11.3417778 54.5658684,11.3450209 54.5874792,11.3450209 L58.4489837,11.3450209 C58.5682772,11.3450209 58.6649837,11.2483144 58.6649837,11.1290209 C58.6649837,11.1078014 58.6618569,11.0866977 58.6557041,11.0663898 L56.5388751,4.07958165 Z" id="形状结合"></path>
                    <path d="M66.204,0 L66.204,16.2 C66.204,17.9894026 67.6545974,19.44 69.444,19.44 L78.3,19.44 L78.3,19.44 L78.3,16.3522569 L71.3664314,16.3522569 C70.5313768,16.3522569 69.8544314,15.6753115 69.8544314,14.8402569 L69.8544314,0 L69.8544314,0 L66.204,0 Z" id="路径-11"></path>
                    <path d="M85.644,0 L97.2,0 C97.3192935,5.84171408e-18 97.416,0.096706494 97.416,0.216 L97.416,3.15536852 C97.416,3.27466203 97.3192935,3.37136852 97.2,3.37136852 L93.5878215,3.37136852 C93.468528,3.37136852 93.3718215,3.46807501 93.3718215,3.58736852 L93.3718215,19.224 C93.3718215,19.3432935 93.275115,19.44 93.1558215,19.44 L89.6368747,19.44 C89.5175812,19.44 89.4208747,19.3432935 89.4208747,19.224 L89.4208747,6.17936852 C89.4208747,4.62855294 88.1636903,3.37136852 86.6128747,3.37136852 L85.428,3.37136852 L85.428,3.37136852 L85.428,0.216 C85.428,0.096706494 85.5247065,2.16202891e-16 85.644,0 Z" id="路径-12"></path>
                    <path d="M107.888304,19.224 L107.888304,11.9460383 C107.888304,11.9109438 107.896855,11.8763777 107.913217,11.845331 L113.989087,0.3167073 C114.044707,0.211173155 114.004242,0.0805326339 113.898708,0.024913528 C113.867662,0.00855113499 113.833095,8.20268097e-16 113.798001,0 L111.647489,0 C110.65675,2.39421677e-15 109.752674,0.564759145 109.318122,1.45511232 L106.117094,8.01369152 L106.117094,8.01369152 L102.843436,1.33077399 C102.444464,0.516302519 101.61663,7.21575968e-16 100.709689,0 L98.3133954,0 C98.1941019,1.32936164e-16 98.0973954,0.096706494 98.0973954,0.216 C98.0973954,0.250985413 98.1058934,0.285447268 98.1221587,0.316421778 L104.101964,11.7039724 C104.167025,11.8278705 104.201017,11.9657179 104.201017,12.1056595 L104.201017,19.224 C104.201017,19.3432935 104.297724,19.44 104.417017,19.44 L107.672304,19.44 C107.791597,19.44 107.888304,19.3432935 107.888304,19.224 Z" id="路径-13"></path>
                </g>
            </g>
        </g>
    </g>
</svg>