<svg id="数量" xmlns="http://www.w3.org/2000/svg" width="19" height="19" viewBox="0 0 19 19">
  <defs>
    <style>
      .cls-1 {
        fill: rgba(201,201,201,0);
      }

      .cls-2 {
        fill: #333;
      }
    </style>
  </defs>
  <rect id="矩形_917" data-name="矩形 917" class="cls-1" width="19" height="19"/>
  <path id="路径_165" data-name="路径 165" class="cls-2" d="M68.3,108.575a1.8,1.8,0,0,0-.855-1.425,1.934,1.934,0,0,0,.855-1.425c0-1.852-3.847-3.325-8.55-3.325s-8.55,1.473-8.55,3.325a1.8,1.8,0,0,0,.855,1.425,1.615,1.615,0,0,0,0,2.85,1.615,1.615,0,0,0,0,2.85,1.8,1.8,0,0,0-.855,1.425c0,1.853,3.848,3.325,8.55,3.325s8.55-1.473,8.55-3.325a1.8,1.8,0,0,0-.855-1.425,1.934,1.934,0,0,0,.855-1.425A1.8,1.8,0,0,0,67.445,110,1.8,1.8,0,0,0,68.3,108.575Zm-.95,2.85c0,1.33-3.42,2.375-7.6,2.375s-7.6-1.045-7.6-2.375a1.293,1.293,0,0,1,.618-.95A15.333,15.333,0,0,0,59.75,111.9a15.333,15.333,0,0,0,6.983-1.425A1.293,1.293,0,0,1,67.35,111.425Zm-7.6-.475c-4.18,0-7.6-1.045-7.6-2.375a1.293,1.293,0,0,1,.618-.95,15.333,15.333,0,0,0,6.983,1.425,15.334,15.334,0,0,0,6.983-1.425,1.293,1.293,0,0,1,.618.95c0,1.33-3.42,2.375-7.6,2.375ZM67.113,107.388ZM59.75,103.35c4.18,0,7.6,1.045,7.6,2.375s-3.42,2.375-7.6,2.375-7.6-1.045-7.6-2.375,3.42-2.375,7.6-2.375ZM52.387,107.388ZM52.387,110.238ZM52.387,113.088Zm7.363,3.563c-4.18,0-7.6-1.045-7.6-2.375a1.293,1.293,0,0,1,.618-.95,15.333,15.333,0,0,0,6.983,1.425,15.334,15.334,0,0,0,6.983-1.425,1.293,1.293,0,0,1,.618.95c0,1.33-3.42,2.375-7.6,2.375ZM67.113,113.088ZM67.113,110.238Z" transform="translate(-50.25 -100.502)"/>
</svg>
