<?xml version="1.0" encoding="UTF-8"?>
<svg width="15px" height="15px" viewBox="0 0 15 15" version="1.1" xmlns="http://www.w3.org/2000/svg" xmlns:xlink="http://www.w3.org/1999/xlink">
    <title>KHCFDC_头像 2</title>
    <g id="页面-1" stroke="none" stroke-width="1" fill="none" fill-rule="evenodd">
        <g id="首页-未登录" transform="translate(-624.000000, -2812.000000)" fill-rule="nonzero">
            <g id="1" transform="translate(360.000000, 2535.000000)">
                <g id="编组备份-6" transform="translate(244.000000, 0.000000)">
                    <g id="KHCFDC_头像-2" transform="translate(20.000000, 277.000000)">
                        <rect id="矩形" fill="#000000" opacity="0" x="0" y="0" width="15" height="15"></rect>
                        <path d="M7.5,0 C11.625,0 15,3.375 15,7.5 C15,11.625 11.625,15 7.5,15 C3.375,15 0,11.625 0,7.5 C0,3.375 3.375,0 7.5,0 Z M9.1875,7.40625 C9.84375,6.84375 10.3125,6.09375 10.3125,5.15625 C10.3125,3.5625 9.09375,2.34375 7.5,2.34375 C5.90625,2.34375 4.6875,3.5625 4.6875,5.15625 C4.6875,6.09375 5.15625,6.84375 5.8125,7.40625 C4.3125,8.0625 3.28125,9.5625 3.28125,11.25 C3.28125,11.53125 3.46875,11.71875 3.75,11.71875 C4.03125,11.71875 4.21875,11.53125 4.21875,11.25 C4.21875,9.46875 5.71875,7.96875 7.5,7.96875 C9.28125,7.96875 10.78125,9.46875 10.78125,11.25 C10.78125,11.53125 10.96875,11.71875 11.25,11.71875 C11.53125,11.71875 11.71875,11.53125 11.71875,11.25 C11.71875,9.5625 10.6875,8.0625 9.1875,7.40625 Z M7.5,7.03125 C6.46875,7.03125 5.625,6.1875 5.625,5.15625 C5.625,4.125 6.46875,3.28125 7.5,3.28125 C8.53125,3.28125 9.375,4.125 9.375,5.15625 C9.375,6.1875 8.53125,7.03125 7.5,7.03125 Z" id="形状" fill="#999999"></path>
                    </g>
                </g>
            </g>
        </g>
    </g>
</svg>