<svg id="上传" xmlns="http://www.w3.org/2000/svg" width="66" height="66" viewBox="0 0 66 66">
  <defs>
    <style>
      .cls-1 {
        fill: rgba(167,167,167,0);
      }

      .cls-2 {
        fill: #fff;
      }
    </style>
  </defs>
  <rect id="矩形_877" data-name="矩形 877" class="cls-1" width="66" height="66"/>
  <g id="上传-2" data-name="上传" transform="translate(3 5)">
    <path id="路径_104" data-name="路径 104" class="cls-2" d="M363.373,521.2a2.12,2.12,0,0,0-1.518.632,2.153,2.153,0,0,0,0,3.044l7.747,7.747a2.425,2.425,0,0,0,3.42,0l7.747-7.747a2.152,2.152,0,0,0-3.044-3.044l-6.417,6.417-6.417-6.417A2.148,2.148,0,0,0,363.373,521.2Z" transform="translate(-341.432 -477.327)"/>
    <path id="路径_105" data-name="路径 105" class="cls-2" d="M481.45,581.1a2.148,2.148,0,0,0-2.15,2.15V601.8a2.15,2.15,0,0,0,4.3,0V583.25A2.152,2.152,0,0,0,481.45,581.1Z" transform="translate(-451.574 -552.315)"/>
    <path id="路径_106" data-name="路径 106" class="cls-2" d="M110.007,176.549a2.2,2.2,0,0,1,0-4.394,11.3,11.3,0,0,0,1.36-22.479l-1.521-.192-.315-1.538a14.469,14.469,0,0,0-28.456,0l-.315,1.538-1.521.192a11.3,11.3,0,0,0,1.36,22.479,2.2,2.2,0,0,1,0,4.394,15.032,15.032,0,0,1-10.818-4.593A15.786,15.786,0,0,1,65.3,160.867a15.618,15.618,0,0,1,11.937-15.3,19.439,19.439,0,0,1,6.116-9.482,18.451,18.451,0,0,1,23.887,0,19.439,19.439,0,0,1,6.116,9.482,15.61,15.61,0,0,1,11.944,15.3,15.8,15.8,0,0,1-4.481,11.089,15.006,15.006,0,0,1-10.812,4.593Z" transform="translate(-65.3 -131.7)"/>
  </g>
</svg>
