<svg id="wode_" data-name="wode " xmlns="http://www.w3.org/2000/svg" width="21" height="21" viewBox="0 0 21 21">
  <rect id="矩形_911" data-name="矩形 911" width="21" height="21" fill="rgba(102,102,102,0)"/>
  <path id="路径_159" data-name="路径 159" d="M68.6,80.062a8.184,8.184,0,0,0,9.9,0q0-.036,0-.073a4.949,4.949,0,1,0-9.9,0Q68.6,80.026,68.6,80.062Zm-1.262-1.189a6.354,6.354,0,0,1,3.821-4.766,3.808,3.808,0,1,1,4.777,0,6.354,6.354,0,0,1,3.821,4.766,8.182,8.182,0,1,0-12.42,0Zm6.21,4.218a9.545,9.545,0,1,1,9.545-9.545A9.545,9.545,0,0,1,73.545,83.091Zm0-9.5a2.468,2.468,0,1,0-2.45-2.468A2.459,2.459,0,0,0,73.545,73.587Z" transform="translate(-63.045 -63.045)" fill="#333"/>
</svg>
