<svg xmlns="http://www.w3.org/2000/svg" width="24" height="24" viewBox="0 0 24 24">
  <g id="组_314" data-name="组 314" transform="translate(-410 -144)">
    <g id="组_237" data-name="组 237" transform="translate(410 144)">
      <path id="路径_78" data-name="路径 78" d="M274.307,840.733m1.457,0a1.457,1.457,0,1,1-1.457-1.457A1.457,1.457,0,0,1,275.764,840.733Z" transform="translate(-257.326 -818.19)" fill="#ffa5c3"/>
      <path id="路径_79" data-name="路径 79" d="M663.427,839.534m1.457,0a1.457,1.457,0,1,1-1.457-1.457A1.457,1.457,0,0,1,664.884,839.534Z" transform="translate(-656.759 -817.025)" fill="#ffa5c3"/>
      <path id="路径_80" data-name="路径 80" d="M65.182,87.023l19.222.062.68-3.941a.962.962,0,0,1,1.112-.8A.994.994,0,0,1,86.97,83.5l-.62,3.6h.005l-2.267,13.385a1.662,1.662,0,0,1-1.622,1.412l-14.9-.048a1.653,1.653,0,0,1-1.574-1.24L63.07,89.926a2.261,2.261,0,0,1,2.112-2.9Zm-.27,2.356L67.78,99.847l14.461.046,1.832-10.816-18.9-.061a.258.258,0,0,0-.219.113A.281.281,0,0,0,64.912,89.379Z" transform="translate(-62.985 -82.322)" fill="#ff6398"/>
      <path id="路径_81" data-name="路径 81" d="M312.171,561.2l9.615.03a1.02,1.02,0,0,1-.006,2.04l-9.615-.03a1.02,1.02,0,1,1,.006-2.039Z" transform="translate(-305.075 -547.845)" fill="#ffa5c3"/>
    </g>
    <rect id="矩形_809" data-name="矩形 809" width="24" height="24" transform="translate(410 144)" fill="none"/>
  </g>
</svg>
