<svg id="购物车" xmlns="http://www.w3.org/2000/svg" width="20" height="20" viewBox="0 0 20 20">
  <rect id="矩形" width="20" height="20" opacity="0"/>
  <path id="形状" d="M11.736,15.889a1.806,1.806,0,1,1,1.806,1.805A1.787,1.787,0,0,1,11.736,15.889Zm1.083,0a.723.723,0,1,0,.724-.722A.724.724,0,0,0,12.819,15.889Zm-9.894-.037A1.806,1.806,0,1,1,4.73,17.658,1.786,1.786,0,0,1,2.925,15.852Zm1.083,0a.723.723,0,1,0,.723-.721A.724.724,0,0,0,4.008,15.852ZM2.6,13.361a.647.647,0,0,1-.65-.65V3.9a.51.51,0,0,1,.036-.187v-2.3a.324.324,0,0,0-.325-.325H.542A.556.556,0,0,1,0,.542.556.556,0,0,1,.542,0h1.12A1.434,1.434,0,0,1,3.07,1.409V9.931a.511.511,0,0,1-.037.189v2.158H15.276c.036,0,.036,0,.036-.036v-.108L16.4,5.886a.939.939,0,0,0-.9-.867H5.67a.541.541,0,1,1,0-1.083h9.822a2,2,0,0,1,1.986,1.985v.109L16.4,12.278a1.119,1.119,0,0,1-1.12,1.084Zm8.775-3.25V7.042a.542.542,0,1,1,1.084,0v3.07a.542.542,0,1,1-1.084,0Zm-5.055,0V7.042a.542.542,0,1,1,1.084,0v3.07a.542.542,0,1,1-1.084,0Z" transform="translate(0.909 0.909)" fill="#333"/>
</svg>
