<svg xmlns="http://www.w3.org/2000/svg" width="684.688" height="182.639" viewBox="0 0 684.688 182.639">
  <g id="页面-1" transform="translate(-0.3 -0.836)">
    <g id="编组-20">
      <path id="Fill-1" d="M46.287,94.3H92.874V30.466H46.287Z" fill="#fff" fill-rule="evenodd"/>
      <path id="Fill-2" d="M333.853,134.912h63.833V71.079H333.853Z" fill="#fff" fill-rule="evenodd"/>
      <g id="编组">
        <path id="Fill-3" d="M63.032,81.5c2.927-.554,6.476-1.3,8.946-2.059,2.942-.9,6.442-2.908,7.409-10.434,1.048-8.144.016-14.672-2.833-17.91-1.648-1.875-4.066-2.786-7.39-2.786a22.559,22.559,0,0,0-3.288.261c-1.251.186-3.751.69-6.071,1.178ZM29.684,174.3a7.168,7.168,0,0,1-7.1-6.289L5.358,28.22a7.865,7.865,0,0,1,6.23-8.637C20.867,17.723,52.721,11.326,72.98,7.1A57.514,57.514,0,0,1,84.653,5.836c19.389,0,33.639,11.611,40.126,32.694a63.414,63.414,0,0,1-4.93,49.248c-9.434,16.967-27.111,29.651-51.28,36.853l5.076,35.525a7.235,7.235,0,0,1-5.981,8.124l-36.838,5.93a7.17,7.17,0,0,1-1.142.091Z" fill="#ff6398" fill-rule="evenodd"/>
        <path id="Fill-5" d="M65.238,53.756c.556-.1,1.026-.186,1.372-.237a17.446,17.446,0,0,1,2.555-.207h0c2.676,0,3.371.79,3.633,1.087,1.488,1.691,2.568,6.667,1.628,13.97-.681,5.3-2.552,5.873-3.919,6.294-.873.268-1.927.542-3.064.808ZM84.653.836A62.506,62.506,0,0,0,71.96,2.21C51.693,6.432,19.874,12.822,10.6,14.68A12.885,12.885,0,0,0,.4,28.831L17.617,168.625a12.16,12.16,0,0,0,14,10.521l36.838-5.93a12.257,12.257,0,0,0,10.135-13.767l-4.476-31.331c17.853-5.964,38.543-17.124,50.1-37.91a68.433,68.433,0,0,0,5.338-53.149c-3.417-11.1-8.839-19.877-16.114-26.073-7.91-6.735-17.6-10.15-28.79-10.15ZM58.6,87.354A141.432,141.432,0,0,0,73.449,84.22c5.312-1.634,9.744-5.608,10.9-14.575,1.387-10.775.243-26.335-15.182-26.333a27.522,27.522,0,0,0-4.024.315c-2.858.425-10.761,2.18-10.761,2.18L58.6,87.354Zm45.021-58.505a1.7,1.7,0,1,0-1.7-1.7,1.707,1.707,0,0,0,1.7,1.7Zm-16.2-7.016a1.571,1.571,0,0,0,.167-.009,28.891,28.891,0,0,1,3.111-.156c3.243,0,7.572.473,9.551,2.451A1.5,1.5,0,0,0,102.367,22c-2.81-2.809-7.988-3.343-11.519-3.343a33.217,33.217,0,0,0-3.608.188,1.5,1.5,0,0,0,.177,2.99Zm-2.764-11C102.6,10.836,114.406,21.819,120,40c8,26,0,66-57,81L68.7,160.863a2.2,2.2,0,0,1-1.826,2.48l-36.837,5.93a2.159,2.159,0,0,1-2.49-1.871L10.321,27.609a2.828,2.828,0,0,1,2.248-3.124C21.775,22.64,53.643,16.241,74,12a52.212,52.212,0,0,1,10.653-1.164Z" fill="#fff" fill-rule="evenodd"/>
        <path id="Fill-7" d="M143.705,108a8.984,8.984,0,0,0-1.846.189,6.975,6.975,0,0,0-3.391,1.462,47.037,47.037,0,0,0,7.906-1.247,8.635,8.635,0,0,0-2.669-.4Zm5.232,25.448a26.656,26.656,0,0,0,6.872-1.141c-3.3.552-5.865.971-6.984,1.136l-.028,0ZM145.379,167c-18.551,0-48.012-9.641-53.137-36.2-2.4-12.433-.182-24.032,6.414-33.542,7.375-10.634,19.521-17.649,35.123-20.285a64.779,64.779,0,0,1,10.757-.893c22.306,0,46.5,11.645,50.283,37.661,1.447,9.949-4.955,12.471-7.774,13.093-1.525.337-9.277,1.707-17.458,3.119.236.116.47.242.7.38,3.09,1.853,12.451,11.014,12.541,11.1.244.245.48.464.7.669,1.544,1.445,4.417,4.133,3.035,9.109-1.6,5.752-9.038,9.452-15,11.544A81.728,81.728,0,0,1,145.82,167Z" fill="#ff6398" fill-rule="evenodd"/>
        <path id="Fill-9" d="M144.536,71.082a69.833,69.833,0,0,0-11.591.962c-16.96,2.867-30.237,10.6-38.4,22.366-7.381,10.642-9.875,23.553-7.215,37.339,2.579,13.363,10.88,24.286,24.007,31.588A72.123,72.123,0,0,0,145.379,172l.479,0c16.16-.122,41.619-5.4,45.521-19.446,2.193-7.9-2.8-12.566-4.438-14.1-.181-.17-.377-.351-.579-.552-.045-.046-2.353-2.319-5.144-4.9,3.415-.607,5.988-1.081,6.9-1.283,10.259-2.266,12.741-11.143,11.644-18.7-4.209-28.972-30.772-41.941-55.231-41.941m-6.414,43.57a45.876,45.876,0,0,0,11.019-1.871c1.726-.681,3.85-1.544,3.347-5.177-.338-2.444-4.25-4.608-8.784-4.608a13.975,13.975,0,0,0-2.871.295c-7.339,1.539-7.9,6.039-7.72,7.129s1.5,4.086,4.541,4.223q.222.009.468.009m24.96-13.539a1.772,1.772,0,1,0-1.773-1.773,1.774,1.774,0,0,0,1.773,1.773m-3.361-4.632a1.5,1.5,0,0,0,.947-2.664c-5.162-4.2-12.157-4.79-12.452-4.813-.035,0-.071,0-.106,0a1.5,1.5,0,0,0-.13,3c.063,0,6.351.537,10.795,4.15a1.493,1.493,0,0,0,.946.336m-15.185-15.4c20.473,0,41.981,10.293,45.335,33.379.687,4.728-.817,6.811-3.9,7.493s-33.238,5.857-37.869,6.538-7.356,5.448-3.815,8.717c.969.894,2.681,1.234,4.654,1.234a30.512,30.512,0,0,0,11.556-2.595,11.482,11.482,0,0,1,5.141-1.787,3.941,3.941,0,0,1,2.079.561c2.044,1.226,9.807,8.581,11.579,10.352s3.133,2.452,2.451,4.9c-1.594,5.741-17.98,11.987-35.961,12.123l-.4,0c-17.966,0-43.766-9.031-48.228-32.149-4.5-23.293,9.249-43.182,37.461-47.949a59.68,59.68,0,0,1,9.924-.823" fill="#fff" fill-rule="evenodd"/>
      </g>
      <g id="编组-4" data-name="编组" transform="translate(175 13)">
        <path id="Fill-15" d="M104.714,165.474c-10.688,0-20.227-5.449-25.078-13.952a63.462,63.462,0,0,1-15.618,1.935c-32.317,0-58.609-24.164-58.609-53.866S31.7,45.724,64.018,45.724s58.608,24.165,58.608,53.867a49.574,49.574,0,0,1-3.04,17.145c8.254,4.732,13.519,13.221,13.519,22.416,0,14.514-12.737,26.322-28.391,26.322" fill="#0ad2ff" fill-rule="evenodd"/>
        <path id="Fill-17" d="M64.017,40.724C28.944,40.724.409,67.132.409,99.59s28.535,58.865,63.608,58.865a68.9,68.9,0,0,0,13.344-1.3,33.99,33.99,0,0,0,27.352,13.315c18.412,0,33.391-14.052,33.391-31.323a30.8,30.8,0,0,0-12.587-24.484,54.6,54.6,0,0,0,2.108-15.077c0-32.459-28.534-58.866-63.608-58.866m0,10c29.607,0,53.608,21.878,53.608,48.866a45.041,45.041,0,0,1-4.528,19.657c8.775,3.074,15.007,10.825,15.007,19.9,0,11.776-10.473,21.323-23.391,21.323-10.488,0-19.363-6.293-22.331-14.963a58.147,58.147,0,0,1-18.365,2.944c-29.606,0-53.608-21.878-53.608-48.865s24-48.866,53.608-48.866" fill="#fff" fill-rule="evenodd"/>
        <path id="Fill-19" d="M64.017,50.724c-29.606,0-53.608,21.878-53.608,48.866s24,48.865,53.608,48.865,53.608-21.878,53.608-48.865-24-48.866-53.608-48.866" fill="#ff6398" fill-rule="evenodd"/>
        <path id="Fill-21" d="M81.325,65.371a1.5,1.5,0,0,1-.56-.109,44.3,44.3,0,0,0-11.673-2.931,1.5,1.5,0,1,1,.332-2.981,47.307,47.307,0,0,1,12.463,3.129,1.5,1.5,0,0,1-.562,2.892" fill="#fff" fill-rule="evenodd"/>
        <path id="Fill-23" d="M104.714,118c-12.918,0-23.391,9.546-23.391,21.322s10.473,21.321,23.391,21.321S128.1,151.1,128.1,139.322,117.632,118,104.714,118" fill="#0af" fill-rule="evenodd"/>
        <path id="Stroke-25" d="M108.844,124.218a18.467,18.467,0,0,0-4.13-.463q-.875,0-1.726.079" fill="none" stroke="#fff" stroke-linecap="round" stroke-linejoin="round" stroke-width="3" fill-rule="evenodd"/>
        <path id="Fill-27" d="M113.153,138.831l-8.729,7.081a3.093,3.093,0,0,1-4.97-1.738l-2.116-9.619a3.051,3.051,0,0,1,3.97-3.541l11.138,3.825a2.317,2.317,0,0,1,.707,3.992" fill="#fff" fill-rule="evenodd"/>
        <path id="Fill-29" d="M86.57,104.057,63.8,121.329a9.832,9.832,0,0,1-15.6-5.97L43.289,89.908A9.4,9.4,0,0,1,55.577,79.245l28.6,9.865a8.579,8.579,0,0,1,2.388,14.947" fill="#fff" fill-rule="evenodd"/>
        <path id="Fill-31" d="M87.321,72.559a1.6,1.6,0,1,1,1.6-1.6,1.6,1.6,0,0,1-1.6,1.6" fill="#fff" fill-rule="evenodd"/>
        <path id="Fill-33" d="M446.974,160.032a12.164,12.164,0,0,1-3.277-.451l-20.545-5.738a11.03,11.03,0,0,1-7.659-13.435l.661-2.461a11.114,11.114,0,0,1,11.991-8.171l22.566,2.546a11.447,11.447,0,0,1,9.337,15.656l-1.784,4.429a12.121,12.121,0,0,1-11.29,7.625Z" fill="#0af" fill-rule="evenodd"/>
        <path id="Fill-35" d="M426.893,124.705a16.145,16.145,0,0,0-15.569,11.947l-.66,2.459a16.044,16.044,0,0,0,11.143,19.547L442.35,164.4A17.167,17.167,0,0,0,462.9,154.275l1.785-4.428a16.45,16.45,0,0,0-13.414-22.5L428.7,124.807a16.17,16.17,0,0,0-1.812-.1m0,10a6.165,6.165,0,0,1,.69.039l22.568,2.545a6.451,6.451,0,0,1,5.26,8.82l-1.785,4.429a7.168,7.168,0,0,1-8.585,4.228L424.5,149.027a5.992,5.992,0,0,1-4.175-7.325l.659-2.459a6.125,6.125,0,0,1,5.911-4.538" fill="#fff" fill-rule="evenodd"/>
        <path id="Fill-37" d="M457.782,133.711a12.721,12.721,0,0,1-1.289-.066l-21.518-2.2a12.353,12.353,0,0,1-10.713-15.352l23.071-90.142a12.124,12.124,0,0,1,14.947-8.693l33.987,9.289a11.844,11.844,0,0,1,7.817,15.965L469.47,125.9a12.616,12.616,0,0,1-11.687,7.806Z" fill="#0af" fill-rule="evenodd"/>
        <path id="Fill-39" d="M459.078,11.828a17.119,17.119,0,0,0-16.589,12.883l-23.07,90.142a17.354,17.354,0,0,0,15.048,21.567l21.517,2.2a17.994,17.994,0,0,0,1.8.09,17.607,17.607,0,0,0,16.307-10.888L508.7,44.431a16.846,16.846,0,0,0-11.117-22.706L463.6,12.436a17.167,17.167,0,0,0-4.52-.608m-4.737,26.36a1.62,1.62,0,1,0-1.62-1.62,1.622,1.622,0,0,0,1.62,1.62m1.135-3.918a1.5,1.5,0,0,0,1.461-1.163c.312-1.35.82-2.989,1.989-3.682a2.9,2.9,0,0,1,1.5-.368,6.085,6.085,0,0,1,1.633.253,1.47,1.47,0,0,0,.407.057,1.5,1.5,0,0,0,.4-2.945,9.1,9.1,0,0,0-2.454-.365,5.834,5.834,0,0,0-3.023.787c-2.424,1.438-3.12,4.453-3.382,5.588a1.5,1.5,0,0,0,1.125,1.8,1.447,1.447,0,0,0,.337.039m3.6-12.442a7.142,7.142,0,0,1,1.884.254l33.987,9.289a6.843,6.843,0,0,1,4.517,9.225l-34.614,83.391a7.658,7.658,0,0,1-7.07,4.722q-.389,0-.781-.039l-21.518-2.2a7.356,7.356,0,0,1-6.377-9.141l23.071-90.142a7.131,7.131,0,0,1,6.9-5.362" fill="#fff" fill-rule="evenodd"/>
        <path id="Fill-41" d="M321.147,158.034a10.288,10.288,0,0,1-8.709-15.434L371.463,40.472a23.511,23.511,0,0,1,20.3-11.712h30.018a11.21,11.21,0,0,1,11.144,10.909l2.212,103.937a14.365,14.365,0,0,1-14.355,14.672l-.383-.006-21.742-.57A12.418,12.418,0,0,1,386.6,144.245c0-.044,1.1-9.887,1.1-9.887l-24.333-.568-7.3,17.971a10.919,10.919,0,0,1-10.094,6.751Z" fill="#ff6398" fill-rule="evenodd"/>
        <path id="Fill-43" d="M421.779,23.759H391.761a28.524,28.524,0,0,0-24.626,14.21L308.11,140.1a15.287,15.287,0,0,0,12.94,22.935l24.616.476c.1,0,.205,0,.308,0a15.886,15.886,0,0,0,14.682-9.762c.015-.035.03-.071.044-.107l6-14.773,15.428.36-.481,4.333c-.01.088-.018.176-.025.263a17.421,17.421,0,0,0,16.9,18.875l21.742.57c.169,0,.342.007.513.007A19.365,19.365,0,0,0,440.134,143.5L437.923,39.562a16.238,16.238,0,0,0-16.144-15.8m-41.65,24.3a1.5,1.5,0,0,0,1.258-.683c1.359-2.091,4.178-5.667,7.8-6.12A1.5,1.5,0,0,0,389,38.263a1.391,1.391,0,0,0-.182.012c-4.585.572-7.937,4.374-9.943,7.462a1.5,1.5,0,0,0,1.257,2.317m41.65-14.295a6.148,6.148,0,0,1,6.146,6.016l2.211,103.937a9.365,9.365,0,0,1-9.358,9.565c-.083,0-.167,0-.25,0l-21.742-.57a7.42,7.42,0,0,1-7.2-8.04l1.682-15.178-33.237-.775-8.6,21.169a5.923,5.923,0,0,1-5.461,3.631h-.116l-24.614-.477a5.288,5.288,0,0,1-4.477-7.933L375.793,42.973a18.444,18.444,0,0,1,15.968-9.214h30.018" fill="#fff" fill-rule="evenodd"/>
        <path id="Fill-45" d="M390.963,59.388c-18.33,0-33.189,13.544-33.189,30.253s14.859,30.253,33.189,30.253,33.188-13.545,33.188-30.253-14.859-30.253-33.188-30.253" fill="#0af" fill-rule="evenodd"/>
        <path id="Fill-47" d="M371.619,72.509a1.5,1.5,0,0,1-.98-2.636,29.775,29.775,0,0,1,5.714-3.864,1.5,1.5,0,1,1,1.384,2.662,26.7,26.7,0,0,0-5.139,3.474,1.5,1.5,0,0,1-.979.364" fill="#fff" fill-rule="evenodd"/>
        <path id="Fill-49" d="M403.207,90.884,384.35,99.5a3.617,3.617,0,0,1-5.07-3.894l2.568-15.154a4.624,4.624,0,0,1,6.88-3.227l14.727,8.545a2.881,2.881,0,0,1-.248,5.112" fill="#fff" fill-rule="evenodd"/>
        <path id="Fill-51" d="M306.689,156.584a13.589,13.589,0,0,1-13.573-13.573V100.379l-29.679,5.238-7.449,36.207a18.288,18.288,0,0,1-17.845,14.55l-.377,0-16.775-.344a13.071,13.071,0,0,1-12.681-14.853L224.852,21.08A18.166,18.166,0,0,1,242.771,5.467h25.3a13.022,13.022,0,0,1,12.742,15.7l-10.1,49.067,22.4-4.074V28.527A12.994,12.994,0,0,1,306.1,15.547h22.2a12.523,12.523,0,0,1,12.5,13.225l-6.369,113.459a15.213,15.213,0,0,1-15.181,14.353Z" fill="#ff6398" fill-rule="evenodd"/>
        <path id="Fill-53" d="M268.07.467h-25.3A23.182,23.182,0,0,0,219.9,20.391l-16.544,120.1a18.072,18.072,0,0,0,17.532,20.534l16.776.343c.16,0,.32.005.479.005a23.306,23.306,0,0,0,22.742-18.542l6.766-32.881,20.465-3.611V143.01a18.594,18.594,0,0,0,18.573,18.574h12.564a20.215,20.215,0,0,0,20.173-19.073L345.8,29.052a17.523,17.523,0,0,0-17.5-18.505H306.1a18,18,0,0,0-17.979,17.98V61.99l-11.01,2,8.609-41.838A18.022,18.022,0,0,0,268.07.467m27.755,76.212c.051,0,.1,0,.155-.007,2.26-.233,5.144-.622,6.05-1.15,1.239-.722,2.629-1.984,2.375-5.359a1.494,1.494,0,0,0-1.482-1.388c-.042,0-.083,0-.125,0a1.5,1.5,0,0,0-1.383,1.608c.144,1.936-.408,2.258-.847,2.517a31.857,31.857,0,0,1-4.895.782,1.5,1.5,0,0,0,.152,2.992m6.262-44.819h.005a1.5,1.5,0,0,0,1.5-1.491c0-.156.064-3.849,2.791-4.224a1.5,1.5,0,1,0-.408-2.972c-4.258.585-5.383,4.959-5.383,7.19a1.5,1.5,0,0,0,1.495,1.5m-66.333-5.514a1.688,1.688,0,1,0-1.687-1.687,1.689,1.689,0,0,0,1.687,1.687m1.024-4.705a1.5,1.5,0,0,0,1.414-1c.732-2.06,1.743-3.02,3.184-3.02h4.869a1.5,1.5,0,0,0,0-3h-4.869c-1.93,0-4.538.87-6.012,5.016a1.5,1.5,0,0,0,1.414,2M268.07,10.467a8.022,8.022,0,0,1,7.85,9.673L264.328,76.482l33.788-6.146V28.527a7.979,7.979,0,0,1,7.979-7.98h22.2a7.523,7.523,0,0,1,7.511,7.944L329.442,141.95a10.206,10.206,0,0,1-10.189,9.634H306.689a8.574,8.574,0,0,1-8.573-8.574V94.42l-38.892,6.862-8.133,39.534a13.222,13.222,0,0,1-12.948,10.557c-.092,0-.183,0-.274,0l-16.776-.343a8.072,8.072,0,0,1-7.83-9.172L229.8,21.762a13.09,13.09,0,0,1,12.966-11.295h25.3" fill="#fff" fill-rule="evenodd"/>
        <path id="Fill-55" d="M163.848,156.584a50.33,50.33,0,0,1-22.812-5.294c-16.643-8.36-25.268-24.43-24.288-45.249C118.184,75.59,139.771,43.769,165.9,33.6c9.865-3.842,19.195-5.79,27.733-5.79,14.326,0,26.724,5.462,36.847,16.233a13.123,13.123,0,0,1,3.537,9.63,12.847,12.847,0,0,1-4.47,9.134L217.081,73.567a14.861,14.861,0,0,1-9.711,3.615h0a14.842,14.842,0,0,1-10.1-3.95,15.644,15.644,0,0,0-10.755-4.564c-11.413,0-22.334,12.558-24.478,23.787-1.694,8.879-1.244,15.184,1.334,18.74,1.812,2.5,4.892,3.946,9.692,4.559a10.5,10.5,0,0,0,1.334.082c3.955,0,8.939-1.989,14.411-5.751a14.108,14.108,0,0,1,8.029-2.494,14.394,14.394,0,0,1,11.375,5.629l5.525,7.079a13.038,13.038,0,0,1-2.086,18.061c-10.881,8.81-29.153,18.224-47.806,18.224" fill="#ff6398" fill-rule="evenodd"/>
        <path id="Fill-57" d="M193.629,22.808c-9.161,0-19.1,2.062-29.548,6.13-13.923,5.421-26.959,16.537-36.708,31.3-9.354,14.167-14.9,30.349-15.618,45.566-1.065,22.58,8.79,40.787,27.037,49.953a55.28,55.28,0,0,0,25.057,5.825c19.96,0,39.407-9.989,50.951-19.338a18.06,18.06,0,0,0,2.882-25.021l-5.532-7.09a19.427,19.427,0,0,0-15.308-7.544,19.091,19.091,0,0,0-10.863,3.375c-4.5,3.1-8.723,4.872-11.578,4.872a5.543,5.543,0,0,1-.7-.042c-3.246-.415-5.357-1.269-6.277-2.536-.787-1.085-2.408-4.706-.47-14.868,1.9-9.954,11.591-19.724,19.567-19.724a10.676,10.676,0,0,1,7.362,3.238,19.869,19.869,0,0,0,26.47.445l12.46-10.763a17.812,17.812,0,0,0,6.195-12.659,18.16,18.16,0,0,0-4.887-13.314C223.013,28.8,209.39,22.808,193.629,22.808m-37.8,31.41a1.83,1.83,0,1,0-1.829-1.829,1.83,1.83,0,0,0,1.829,1.829m4.53-4.836a1.5,1.5,0,0,0,1-.38,25.915,25.915,0,0,1,8.732-4.9,1.5,1.5,0,1,0-.843-2.879,28.542,28.542,0,0,0-9.885,5.542,1.5,1.5,0,0,0,1,2.619m33.275-16.574c16.635,0,26.922,7.973,33.2,14.656a8,8,0,0,1-.558,11.556l-12.46,10.764a9.87,9.87,0,0,1-13.149-.225,20.508,20.508,0,0,0-14.146-5.891c-13.62,0-26.765,14.1-29.389,27.85-3.951,20.705,3.224,27.652,15.3,29.2a15.376,15.376,0,0,0,1.969.123c6.157,0,12.58-3.426,17.243-6.633a9.155,9.155,0,0,1,5.2-1.614,9.3,9.3,0,0,1,7.4,3.665l5.557,7.119a7.969,7.969,0,0,1-1.291,11.1c-8.552,6.925-26.022,17.108-44.658,17.108a45.306,45.306,0,0,1-20.569-4.761c-42.066-21.131-16.618-92.584,24.429-108.567,10.01-3.9,18.582-5.448,25.92-5.448" fill="#fff" fill-rule="evenodd"/>
        <path id="Fill-59" d="M370.118,79.081A1.579,1.579,0,1,1,371.7,77.5a1.581,1.581,0,0,1-1.579,1.579" fill="#fff" fill-rule="evenodd"/>
        <path id="Stroke-61" d="M98.607,125a.06.06,0,1,1-.119,0,.06.06,0,0,1,.119,0Z" fill="none" stroke="#fff" stroke-linecap="round" stroke-linejoin="round" stroke-width="3" fill-rule="evenodd"/>
      </g>
    </g>
  </g>
</svg>
