<svg xmlns="http://www.w3.org/2000/svg" width="11.472" height="16.009" viewBox="0 0 11.472 16.009">
  <path id="路径_103" data-name="路径 103" d="M66.648,199.277l2.639,2.062a.715.715,0,1,1-.88,1.126l-3.843-3A1.466,1.466,0,0,1,64,198.308a.715.715,0,0,1,.715-.715H79.294a.715.715,0,1,1,0,1.429H66.736a.143.143,0,0,0-.088.256Zm10.713-4.793-2.639-2.062a.715.715,0,1,1,.88-1.126l3.843,3a1.466,1.466,0,0,1,.563,1.155.715.715,0,0,1-.715.715H64.715a.715.715,0,1,1,0-1.429H77.273a.143.143,0,0,0,.088-.256Z" transform="translate(-191.145 80.009) rotate(-90)" fill="#666"/>
</svg>
