<svg xmlns="http://www.w3.org/2000/svg" width="16" height="16" viewBox="0 0 16 16">
  <g id="组_656" data-name="组 656" transform="translate(-1016 -538)">
    <g id="矩形_27" data-name="矩形 27" transform="translate(1016 538)" fill="#FF6398" stroke="#FF6398" stroke-width="1">
      <rect width="16" height="16" rx="2" stroke="none"/>
      <rect x="0.5" y="0.5" width="15" height="15" rx="1.5" fill="none"/>
    </g>
    <g id="对号" transform="translate(-72 29)">
      <rect id="矩形_30" data-name="矩形 30" width="14" height="14" transform="translate(1089 510)" fill="none"/>
      <path id="联合_1" data-name="联合 1" d="M-1867.667,1169.3a1.334,1.334,0,0,1-1.334-1.333v-4a1.334,1.334,0,0,1,1.334-1.333,1.333,1.333,0,0,1,1.333,1.333v2.667h6a1.333,1.333,0,0,1,1.333,1.334,1.333,1.333,0,0,1-1.333,1.333Z" transform="translate(1589.475 -1626.084) rotate(-45)" fill="#fff"/>
    </g>
  </g>
</svg>
