<svg id="Icon_Warning" data-name="Icon/Warning" xmlns="http://www.w3.org/2000/svg" width="16" height="16" viewBox="0 0 16 16">
  <defs>
    <style>
      .cls-1 {
        opacity: 0;
      }

      .cls-2 {
        fill: #faad14;
      }
    </style>
  </defs>
  <rect id="矩形" class="cls-1" width="16" height="16"/>
  <path id="形状" class="cls-2" d="M6.5,13A6.5,6.5,0,1,1,13,6.5,6.507,6.507,0,0,1,6.5,13Zm0-4.643a.7.7,0,1,0,.7.7A.7.7,0,0,0,6.5,8.357ZM6.152,3.25a.117.117,0,0,0-.116.116V7.312a.116.116,0,0,0,.116.116h.7a.116.116,0,0,0,.116-.116V3.366a.116.116,0,0,0-.116-.116Z" transform="translate(1.5 1.5)"/>
</svg>
