<?xml version="1.0" encoding="UTF-8"?>
<svg width="40px" height="40px" viewBox="0 0 40 40" version="1.1" xmlns="http://www.w3.org/2000/svg" xmlns:xlink="http://www.w3.org/1999/xlink">
    <title>left-circle备份</title>
    <g id="页面-1" stroke="none" stroke-width="1" fill="none" fill-rule="evenodd">
        <g id="首页-已登录" transform="translate(-340.000000, -899.000000)" fill-rule="nonzero">
            <g id="left-circle备份" transform="translate(340.000000, 899.000000)">
                <rect id="矩形" fill="#000000" opacity="0" x="0" y="0" width="40" height="40"></rect>
                <path d="M20,2.5 C10.3359375,2.5 2.5,10.3359375 2.5,20 C2.5,29.6640625 10.3359375,37.5 20,37.5 C29.6640625,37.5 37.5,29.6640625 37.5,20 C37.5,10.3359375 29.6640625,2.5 20,2.5 Z" id="路径" fill="#999999"></path>
                <path d="M20,34.53125 C11.9765625,34.53125 5.46875,28.0234375 5.46875,20 C5.46875,11.9765625 11.9765625,5.46875 20,5.46875 C28.0234375,5.46875 34.53125,11.9765625 34.53125,20 C34.53125,28.0234375 28.0234375,34.53125 20,34.53125 Z" id="路径" fill="#FFFFFF"></path>
                <path d="M23.5664062,12.7929687 L13.9570312,19.7460938 C13.7851562,19.8710938 13.7851562,20.125 13.9570312,20.25 L23.5664062,27.203125 C23.7734375,27.3515625 24.0625,27.203125 24.0625,26.9492188 L24.0625,25.1171875 C24.0625,24.71875 23.8710938,24.3398438 23.546875,24.1054688 L17.8671875,20 L23.546875,15.890625 C23.8710937,15.65625 24.0625,15.28125 24.0625,14.8789062 L24.0625,13.046875 C24.0625,12.7929687 23.7734375,12.6445312 23.5664062,12.7929687 Z" id="路径" fill="#999999"></path>
            </g>
        </g>
    </g>
</svg>