<svg xmlns="http://www.w3.org/2000/svg" width="20.003" height="19.999" viewBox="0 0 20.003 19.999">
  <g id="仓库_" data-name="仓库 " transform="translate(-40.028 -536.025)">
    <path id="路径_181" data-name="路径 181" d="M1.018.206l12-.208A.959.959,0,0,1,14,.981,1.043,1.043,0,0,1,12.986,2l-12,.208A.959.959,0,0,1,0,1.224,1.043,1.043,0,0,1,1.018.206Z" transform="translate(40.029 545.929) rotate(-45)" fill="#333"/>
    <path id="路径_182" data-name="路径 182" d="M.983,0l12,.208A1.043,1.043,0,0,1,14,1.226a.959.959,0,0,1-.983.983L1.018,2A1.043,1.043,0,0,1,0,.983.959.959,0,0,1,.983,0Z" transform="translate(58.469 547.49) rotate(-135)" fill="#333"/>
    <path id="联合_1" data-name="联合 1" d="M6271.675,19404.48a1,1,0,0,1-1-1v-6.156a1,1,0,0,1,.023-.215l-.169-.174a.517.517,0,0,1,0-.721l6.691-6.832a.488.488,0,0,1,.706,0l6.691,6.832a.517.517,0,0,1,0,.721l-.2.2a.985.985,0,0,1,.018.188v6.156a1,1,0,0,1-1,1Z" transform="translate(-6227.526 -18849.531)" fill="#fa89af"/>
    <path id="矩形_984" data-name="矩形 984" d="M1,0h.457a1,1,0,0,1,1,1V3.053a0,0,0,0,1,0,0H0a0,0,0,0,1,0,0V1A1,1,0,0,1,1,0Z" transform="translate(48.8 551.051)" fill="#fff"/>
    <rect id="矩形_981" data-name="矩形 981" width="15.219" height="1.969" rx="0.985" transform="translate(57.639 556.024) rotate(180)" fill="#333"/>
    <rect id="矩形_982" data-name="矩形 982" width="2.457" height="3.053" transform="translate(45.569 546.35)" fill="#fff"/>
    <rect id="矩形_983" data-name="矩形 983" width="2.457" height="3.053" transform="translate(52.032 546.35)" fill="#fff"/>
    <rect id="矩形_985" data-name="矩形 985" width="0.491" height="3.053" transform="translate(46.555 546.35)" fill="#fa89af"/>
    <rect id="矩形_986" data-name="矩形 986" width="0.509" height="2.949" transform="translate(48.271 547.619) rotate(90)" fill="#fa89af"/>
    <rect id="矩形_987" data-name="矩形 987" width="0.491" height="3.053" transform="translate(53.011 546.35)" fill="#fa89af"/>
    <rect id="矩形_988" data-name="矩形 988" width="0.509" height="2.949" transform="translate(54.736 547.619) rotate(90)" fill="#fa89af"/>
  </g>
</svg>
