<svg id="组件_33_4" data-name="组件 33 – 4" xmlns="http://www.w3.org/2000/svg" width="60" height="60" viewBox="0 0 60 60">
  <defs>
    <style>
      .cls-1 {
        fill: rgba(162,162,162,0);
      }

      .cls-2 {
        fill: #f1403c;
      }
    </style>
  </defs>
  <rect id="矩形_944" data-name="矩形 944" class="cls-1" width="60" height="60"/>
  <path id="路径_169" data-name="路径 169" class="cls-2" d="M110.333,85.333a25,25,0,1,0,25,25A25,25,0,0,0,110.333,85.333Zm7.525,35.55-7.6-7.6-7.563,7.56a2.109,2.109,0,0,1-2.983-2.983l7.56-7.563-7.643-7.642a2.109,2.109,0,0,1,2.98-2.985l7.645,7.645,7.6-7.6a2.11,2.11,0,1,1,2.985,2.983l-7.6,7.6,7.6,7.6a2.11,2.11,0,1,1-2.982,2.985Z" transform="translate(-80.333 -80.334)"/>
</svg>
