<svg xmlns="http://www.w3.org/2000/svg" width="12" height="12" viewBox="0 0 12 12">
  <defs>
    <style>
      .cls-1 {
        fill: none;
      }

      .cls-2 {
        fill: #ff6398;
      }
    </style>
  </defs>
  <g id="delete" transform="translate(0 0)">
    <rect id="矩形_61" data-name="矩形 61" class="cls-1" width="12" height="12" transform="translate(0 0)"/>
    <path id="联合_2" data-name="联合 2" class="cls-2" d="M725.46-5161.094a5.409,5.409,0,0,0-1.96-1.642,7.588,7.588,0,0,0-2.914-.423v1.532a.312.312,0,0,1-.171.278.311.311,0,0,1-.326-.025l-3.83-2.777a.624.624,0,0,1-.259-.506.623.623,0,0,1,.259-.507l3.83-2.777a.311.311,0,0,1,.326-.024.31.31,0,0,1,.171.277v1.55s1.208.093,1.838.228a3.723,3.723,0,0,1,1.646.76,4.623,4.623,0,0,1,1.7,2.637A8.654,8.654,0,0,1,726-5161.3a.3.3,0,0,1-.191.313.3.3,0,0,1-.1.019A.3.3,0,0,1,725.46-5161.094Z" transform="translate(-715 5171)"/>
  </g>
</svg>
