<svg id="图层_1" data-name="图层 1" xmlns="http://www.w3.org/2000/svg" viewBox="0 0 820.87 329.2"><defs><style>.cls-1{fill:#6ec1e1;}.cls-2{fill:#d86b85;}</style></defs><path class="cls-1" d="M964,404c-11.09-15.75-10.39-38.42-.94-54.43C970.92,336.26,1017,339,1007,352c-7.14,9.28-13.7,14.64-16,20a24.65,24.65,0,0,0-.89,18.13c4.29,13.38,18,19.6,31.19,17.2a2,2,0,0,1,1.49,3.6c-4.58,3.35-9.8,6.26-13.79,7.07C991.8,421.51,974.42,418.81,964,404Z" transform="translate(-222.13 -93.57)"/><path class="cls-2" d="M721.64,359.12c0,6.86,1.2,8.08,8.18,8.09,21.33,0,42.66,0,64,0,6.63,0,6.94.24,6.86,6.69-.16,14.15-.52,28.3-.6,42.44a5.5,5.5,0,0,1-5.6,5.49c-8.68-.16-17.36.11-26,.17q-55,.35-109.93.65c-7,0-7.61-1-8.23-8.06-1.75-19.87-26.54-283.46-27-288.92-.34-3.91,1.48-5.56,5.28-5.33.72,0,67.91,0,84.7,0a3.86,3.86,0,0,1,3.86,3.76C717.7,152.34,721.63,330.44,721.64,359.12Z" transform="translate(-222.13 -93.57)"/><path class="cls-1" d="M495,308.15V327.9s14.11-.81,25.8,17.34,14.92-21.37,14.92-21.37L524,313.79S515.56,305.33,495,308.15Z" transform="translate(-222.13 -93.57)"/><path class="cls-1" d="M361,95v49s35-2,64,43,37-53,37-53l-29-25S412,88,361,95Z" transform="translate(-222.13 -93.57)"/><path class="cls-2" d="M520.29,311.2c.39.47.68.87,1,1.22,6.79,6.86,7.64,15,4.32,23.54s-10.35,12.63-20.21,12.23c-5.82-.23-11.27.33-16,4.07-.54.43-1.45.4-2.71.71v-5.85c0-11.33-.05-22.65.16-34,.07-3.69-1.22-4.95-4.88-5-9-.08-18-.55-26.93-.79-8.12-.22-8.12-.18-7.71,8,.06,1.33.19,2.65.33,4,1.87,17.51,8.38,79.95,9.75,93.67.33,3.27,1.64,5,5.39,4.83a167.53,167.53,0,0,1,18.48,0c4.59.29,5.63-1.48,5.5-5.74-.29-9.46-.09-18.94-.09-29,22.69,10,44.45,1.37,53.17-20.32C547.33,344.25,541.14,319.83,520.29,311.2Z" transform="translate(-222.13 -93.57)"/><path class="cls-2" d="M437.37,315.21c-5.41-4.94-11.95-6.24-19-5.64-9.18.79-16.82,4.65-23.32,13.32-.21-2.8-.33-3.78-.35-4.76-.15-6.77-.15-6.78-6.79-6.89-10.82-.17-21.64-.24-32.45-.55-3.16-.09-3.1,1.39-2.81,3.72,1.25,9.88,9,76.52,11.44,100,.4,3.79,1.87,4.76,5.3,4.68,6.49-.16,13-.27,19.48,0,4.5.21,6-1.17,5.93-5.88-.23-25.48,0-51-.19-76.44A7.7,7.7,0,0,1,399,329.2c7.22-4.1,12.93-3,18.11,3.76s14.79,7.06,21.54.75C444.6,328.15,444.17,321.43,437.37,315.21Z" transform="translate(-222.13 -93.57)"/><path class="cls-2" d="M415.63,286.54c42.08-14.35,74.28-58.33,67-107-5.82-39-29.36-63.62-64.07-79.21-1.9-.85-3.92-1.41-6.33-2.26,5,4.28,10,7.74,14,12.11,24.18,26.45,14.05,72.33-26.57,81.79-9.32,2.17-19.44,1-29.2,1.22-16.9.38-30.23,8-41.31,20.22-1.41,1.55-2.61,3.31-3.91,5l-1.44-.47V212.1q0-54.49,0-109c0-3.44-.42-5.71-4.71-5.79q-46.2-.85-92.38-2c-4-.1-4.87,1.32-4.54,4.94,1.56,17.21,26.42,295.38,28,316.44.36,4.86,1.86,6.16,6.54,6.1,20.17-.22,40.33-.09,60.49-.09,6.56,0,6.58,0,6.58-6.59V268.37c1.22.14,1.67.06,1.83.23.91,1,1.76,2,2.61,3C337.14,282.31,348,290.17,362,292A117,117,0,0,0,415.63,286.54Z" transform="translate(-222.13 -93.57)"/><path class="cls-2" d="M836.64,309a4,4,0,0,0,4-4.14q-.5-13.71-1-27.4c-.14-4.06-.63-7.21-7.42-6a94,94,0,0,1-29.51.72c-6.84-.94-8.92.5-8.26,5.35q1.93,14,3.79,28a4,4,0,0,0,4,3.47Z" transform="translate(-222.13 -93.57)"/><path class="cls-2" d="M603.1,305.63c-7.65,1.46-13.57,5.84-18.23,12.16l-1.19-.72c0-2-.13-4,0-5.94.24-3-1.08-4.13-4.05-4.17-10.65-.13-21.3-.26-31.94-.71-4.18-.18-4.72,1.8-4.34,5.14.74,6.44,1.37,12.89,2,19.33,3,28.26,6,56.51,8.84,84.78.32,3.21,1.49,4.37,4.62,4.31,6.33-.13,12.68-.29,19,.05,4.57.25,6-1.21,5.92-5.87-.22-27-.14-54,0-81,0-2,.23-4.58,1.41-6,5.84-7.08,16.3-6.42,21.67,1.07a20.48,20.48,0,0,0,2.27,2.65c5.38,5.17,14.66,4.53,20.72-1.4,5.16-5.06,5.11-11.16-.43-17.22C622.11,304.17,612.81,303.79,603.1,305.63Z" transform="translate(-222.13 -93.57)"/><path class="cls-2" d="M1007.2,329.76c19,3.3,30.51,14.95,35.15,32.95,3.86,15-10.12,28.6-25.38,25.15-10.14-2.3-15.5-9.12-17.74-18.63a16.87,16.87,0,0,0-8.93-11.83c-15.53-8-29.35-2.06-34.24,14.62-.39-7.17,3.19-19.68,7.78-25.26C975,333.21,989.36,326.66,1007.2,329.76Z" transform="translate(-222.13 -93.57)"/><path class="cls-2" d="M841.71,332.84a4,4,0,0,0-4-3.84h-31.8a4,4,0,0,0-4,4.5c1.84,14.4,7.55,59.28,10.39,81.92.38,3,1.86,4.47,4.91,4.41,5.5-.1,11-.07,16.48-.32,11.28-.51,11.28.49,11-11.85C844.76,406.92,842.36,348.82,841.71,332.84Z" transform="translate(-222.13 -93.57)"/><path class="cls-2" d="M941,337.93c0-6.4-2.19-9-6.68-8.93-5.45.14-10.9,0-16.34,0-8.27,0-8.79,1-7,11.91,1.47,8.92,3.18,20.82,4,29.86,1.17,12.73-5.55,24-13.92,24.5s-16.89-10.67-16.8-22.56c.06-10.26.58-23.53,1.11-33.77.31-5.91-1-8.78-5.69-8.6-6.45.25-12.91-.24-19.36-.27-6.65,0-7.76,1.72-6.84,11,2.31,23.06,4.82,46.09,7,69.18.65,7.05,3.21,9.46,8,9.39,10.69-.16,21.38-.05,32.07-.05,11.09,0,22.19-.09,33.28,0,4.63.06,7.22-2.14,7.19-9.14Q940.85,374.23,941,337.93Z" transform="translate(-222.13 -93.57)"/></svg>