<svg xmlns="http://www.w3.org/2000/svg" xmlns:xlink="http://www.w3.org/1999/xlink" width="24" height="24" viewBox="0 0 24 24">
  <defs>
    <linearGradient id="linear-gradient" x1="0.02" y1="0.111" x2="1" y2="1" gradientUnits="objectBoundingBox">
      <stop offset="0" stop-color="#ff6398"/>
      <stop offset="0.465" stop-color="#ff5c93"/>
      <stop offset="1" stop-color="#ff99bc"/>
    </linearGradient>
  </defs>
  <g id="_1" data-name="1" transform="translate(-906 -469)">
    <path id="矩形_1107" data-name="矩形 1107" d="M4,0H24a0,0,0,0,1,0,0V20a4,4,0,0,1-4,4H0a0,0,0,0,1,0,0V4A4,4,0,0,1,4,0Z" transform="translate(906 469)" fill="url(#linear-gradient)"/>
    <g id="对" transform="translate(0 -1)">
      <rect id="矩形_1110" data-name="矩形 1110" width="18" height="16" transform="translate(909 474)" fill="none"/>
      <path id="联合_7" data-name="联合 7" d="M14345.364,3129.106a1.489,1.489,0,0,1-1.061-.44l-4.244-4.24a1.5,1.5,0,0,1,2.122-2.122l3.183,3.183,7.424-7.427a1.5,1.5,0,0,1,2.122,2.122l-8.484,8.485a1.5,1.5,0,0,1-1.062.44Z" transform="translate(-13429.484 -2641.121)" fill="#fff"/>
    </g>
  </g>
</svg>
