<svg id="删除" xmlns="http://www.w3.org/2000/svg" width="20" height="20" viewBox="0 0 20 20">
  <rect id="矩形_839" data-name="矩形 839" width="20" height="20" fill="rgba(204,204,204,0)"/>
  <g id="组_194" data-name="组 194" transform="translate(2.962 1.704)">
    <path id="路径_102" data-name="路径 102" d="M138.276,49.038h-6.922a1.7,1.7,0,0,1-1.7-1.622l-.516-10.844a.568.568,0,1,1,1.134-.055l.516,10.844a.567.567,0,0,0,.568.541h6.922a.568.568,0,0,0,.568-.541l.516-10.844a.573.573,0,0,1,.595-.54.565.565,0,0,1,.54.595l-.516,10.844A1.7,1.7,0,0,1,138.276,49.038Zm2.786-14.2H128.568a.568.568,0,0,1,0-1.136h12.494a.568.568,0,1,1,0,1.136Zm-5.111-1.7h-2.272a.568.568,0,0,1,0-1.136h2.272a.568.568,0,1,1,0,1.136Z" transform="translate(-128 -32)" fill="#666"/>
    <path id="路径_103" data-name="路径 103" d="M416.576,359.487a.575.575,0,0,1-.576-.576v-6.335a.576.576,0,1,1,1.152,0v6.335A.575.575,0,0,1,416.576,359.487Zm2.3,0a.575.575,0,0,1-.576-.576v-6.335a.576.576,0,1,1,1.152,0v6.335A.575.575,0,0,1,418.879,359.487Z" transform="translate(-410.913 -346.382)" fill="#666"/>
  </g>
</svg>
