<svg id="icon7" xmlns="http://www.w3.org/2000/svg" width="18" height="18" viewBox="0 0 18 18">
  <rect id="矩形_807" data-name="矩形 807" width="18" height="18" fill="rgba(248,158,158,0)"/>
  <path id="路径_81" data-name="路径 81" d="M11.565-7.313q-.41,4.743-.41,4.922,0,1.746,1.01,1.746a1.789,1.789,0,0,0,1.548-1.011,5.041,5.041,0,0,0,.612-2.636A5.213,5.213,0,0,0,12.8-8.166a5.716,5.716,0,0,0-4.2-1.5A5.716,5.716,0,0,0,4.267-7.857,6.331,6.331,0,0,0,2.551-3.325,5.828,5.828,0,0,0,4.16.963,5.892,5.892,0,0,0,8.544,2.587a8.875,8.875,0,0,0,3.727-.723V3.018a9.9,9.9,0,0,1-3.842.65A7.17,7.17,0,0,1,3.22,1.747,6.679,6.679,0,0,1,1.237-3.277,7.31,7.31,0,0,1,3.318-8.609a7.143,7.143,0,0,1,5.332-2.124,7.235,7.235,0,0,1,5.012,1.766,5.884,5.884,0,0,1,1.974,4.6A5.382,5.382,0,0,1,14.578-.917,3.194,3.194,0,0,1,11.992.419q-1.946,0-1.962-2.039H9.989A2.525,2.525,0,0,1,7.477.419,2.455,2.455,0,0,1,5.519-.458a3.55,3.55,0,0,1-.751-2.388A5.137,5.137,0,0,1,5.8-6.135,3.25,3.25,0,0,1,8.47-7.443a2.049,2.049,0,0,1,1.137.321,1.388,1.388,0,0,1,.628.8h.033q.008-.032.09-.991ZM6.106-2.838a2.678,2.678,0,0,0,.423,1.58,1.386,1.386,0,0,0,1.2.6,1.892,1.892,0,0,0,1.7-1.064,5.553,5.553,0,0,0,.62-2.81q0-1.836-1.56-1.836a1.981,1.981,0,0,0-1.72,1.023A4.531,4.531,0,0,0,6.106-2.838Z" transform="translate(0.563 12.532)" fill="#666"/>
</svg>
