<svg id="icon6" xmlns="http://www.w3.org/2000/svg" width="18" height="18" viewBox="0 0 18 18">
  <rect id="矩形_806" data-name="矩形 806" width="18" height="18" fill="none"/>
  <g id="组_98" data-name="组 98" transform="translate(3 1)">
    <path id="路径_78" data-name="路径 78" d="M156.236.791a1.676,1.676,0,0,0-1.757,1.581v11.07a1.676,1.676,0,0,0,1.757,1.581h7.029a1.676,1.676,0,0,0,1.757-1.581V2.372A1.676,1.676,0,0,0,163.264.791h-7.029Zm0-.791h7.029A2.514,2.514,0,0,1,165.9,2.372v11.07a2.514,2.514,0,0,1-2.636,2.372h-7.029a2.514,2.514,0,0,1-2.636-2.372V2.372A2.514,2.514,0,0,1,156.236,0Z" transform="translate(-153.6 0)" fill="#666" stroke="#666" stroke-width="0.25"/>
    <path id="路径_79" data-name="路径 79" d="M358.834,794.467a.434.434,0,1,1,0-.867h4.336a.434.434,0,1,1,0,.867Z" transform="translate(-354.852 -781.406)" fill="#666" stroke="#666" stroke-width="0.25"/>
  </g>
</svg>
