<svg xmlns="http://www.w3.org/2000/svg" width="21.818" height="21.818" viewBox="0 -1 21.818 21.818">
  <defs>
    <style>
      .cls-1 {
        fill: #999;
      }
    </style>
  </defs>
  <path id="search" class="cls-1" d="M129.98,169.472a7.929,7.929,0,1,1,7.921,7.577,7.755,7.755,0,0,1-7.921-7.577M149.529,180.2l-4.431-4.238a9.211,9.211,0,0,0,2.705-6.492,9.911,9.911,0,1,0-9.9,9.472,10.149,10.149,0,0,0,5.7-1.734l4.528,4.332a1.024,1.024,0,0,0,1.4,0,.92.92,0,0,0,0-1.34" transform="translate(-128 -160)"/>
</svg>
