<svg id="icon2" xmlns="http://www.w3.org/2000/svg" width="20" height="20" viewBox="0 0 20 20">
  <defs>
    <style>
      .cls-1 {
        fill: rgba(255,255,255,0);
        opacity: 0.2;
      }

      .cls-2 {
        fill: #666;
      }
    </style>
  </defs>
  <rect id="矩形_756" data-name="矩形 756" class="cls-1" width="20" height="20"/>
  <g id="组_76" data-name="组 76" transform="translate(0.833 1.667)">
    <path id="路径_43" data-name="路径 43" class="cls-2" d="M87.89,103.43,85.2,98.36a2.066,2.066,0,0,0-1.831-1.079H77.245a2.065,2.065,0,0,0-1.822,1.065l-2.746,5.07a1.917,1.917,0,0,0,0,1.834l2.746,5.07a2.067,2.067,0,0,0,1.822,1.065h6.124A2.065,2.065,0,0,0,85.2,110.3l2.69-5.071a1.916,1.916,0,0,0,0-1.8Zm-1.505,7.458a3.4,3.4,0,0,1-3.016,1.777H77.245a3.4,3.4,0,0,1-3-1.753l-2.747-5.07a3.157,3.157,0,0,1,0-3.019l2.746-5.071a3.4,3.4,0,0,1,3-1.753h6.124a3.405,3.405,0,0,1,3.016,1.777l2.69,5.071a3.156,3.156,0,0,1,0,2.97l-2.69,5.071Z" transform="translate(-71.113 -95.999)"/>
    <path id="路径_44" data-name="路径 44" class="cls-2" d="M329.807,332.965a3.285,3.285,0,1,1,3.407-3.282A3.346,3.346,0,0,1,329.807,332.965Zm0-1.132a2.152,2.152,0,1,0-2.232-2.151A2.192,2.192,0,0,0,329.807,331.833Z" transform="translate(-320.64 -321.349)"/>
  </g>
</svg>
