<svg xmlns="http://www.w3.org/2000/svg" width="30" height="30" viewBox="0 0 30 30">
  <g id="仓库" transform="translate(-315 -116)">
    <g id="组_746" data-name="组 746" transform="translate(126 -78.957)">
      <path id="路径_245" data-name="路径 245" d="M202.68,198.334a2.669,2.669,0,0,1,2.52-.12l.12.12,9.6,6.36a2.572,2.572,0,0,1,1.08,1.8v14.04a1.276,1.276,0,0,1-1.08,1.2H210a1.276,1.276,0,0,1-1.2-1.08v-7.32h-9.6v7.2a1.169,1.169,0,0,1-.96,1.2H193.2a1.276,1.276,0,0,1-1.2-1.08v-13.92a2.505,2.505,0,0,1,.96-1.92l.12-.12Zm1.32,2.04-9.6,6.36v12.6h2.4v-7.2a1.169,1.169,0,0,1,.96-1.2H210a1.276,1.276,0,0,1,1.2,1.08v7.32h2.4v-12.6Zm1.2,5.76a1.134,1.134,0,0,1,1.2,1.2,1.276,1.276,0,0,1-1.08,1.2H202.8a1.134,1.134,0,0,1-1.2-1.2,1.276,1.276,0,0,1,1.08-1.2Z" transform="translate(0 0)" fill="#333"/>
      <path id="路径_246" data-name="路径 246" d="M422,643.6a1.134,1.134,0,0,1,1.2,1.2,1.276,1.276,0,0,1-1.08,1.2H417.2a1.134,1.134,0,0,1-1.2-1.2,1.276,1.276,0,0,1,1.08-1.2Zm0-3.6a1.134,1.134,0,0,1,1.2,1.2,1.276,1.276,0,0,1-1.08,1.2H417.2a1.134,1.134,0,0,1-1.2-1.2,1.276,1.276,0,0,1,1.08-1.2Z" transform="translate(-215.6 -425.466)" fill="#333"/>
    </g>
    <rect id="矩形_1096" data-name="矩形 1096" width="30" height="30" transform="translate(315 116)" fill="none"/>
  </g>
</svg>
