<?xml version="1.0" encoding="UTF-8"?>
<svg width="14px" height="14px" viewBox="0 0 14 14" version="1.1" xmlns="http://www.w3.org/2000/svg" xmlns:xlink="http://www.w3.org/1999/xlink">
    <title>3.1-订阅</title>
    <g id="页面-1" stroke="none" stroke-width="1" fill="none" fill-rule="evenodd">
        <g id="详情页-原画备份" transform="translate(-1472.000000, -1605.000000)" fill-rule="nonzero">
            <g id="合辑" transform="translate(1240.000000, 1480.000000)">
                <g id="3.1-订阅" transform="translate(232.000000, 125.000000)">
                    <rect id="矩形" fill="#000000" opacity="0" x="0" y="0" width="14" height="14"></rect>
                    <path d="M4.2585691,6.2761598 C3.72136822,6.10003832 3.13981573,6.00805122 2.54121326,6.00281607 C2.39440531,5.98714668 2.25082205,6.03736077 2.14681353,6.14116294 C1.9615258,6.32606168 1.95001074,6.6167558 2.12143709,6.78783427 C2.16866446,6.8349625 2.22822511,6.86799428 2.30316322,6.88748195 L2.31931077,6.90359561 L2.36532287,6.90285116 C2.86577663,6.90038968 3.33912128,6.98148626 3.90002608,7.16588071 C5.75124295,7.77368476 6.98803467,9.47834579 7.12900688,11.614113 L7.13916226,11.7274249 L7.14931765,11.725888 C7.16716177,11.7873048 7.19886729,11.841049 7.24319484,11.8852835 C7.40509149,12.0468402 7.6789862,12.036394 7.85319205,11.8625538 C7.91195854,11.8039107 7.95351863,11.7329602 7.97475592,11.65585 L8,11.6527642 L7.99535548,11.5510993 C7.88612487,9.0189146 6.45451572,6.99693951 4.25859316,6.27612378 M2.2929354,10.2923388 C1.90261062,10.6826636 1.90226977,11.3174167 2.29242413,11.707571 C2.68238183,12.0975287 3.3175019,12.0975419 3.70781356,11.7072171 C4.09745664,11.317574 4.09744353,10.682467 3.70748581,10.2925093 C3.31734458,9.90235489 2.68257848,9.90269574 2.2929354,10.2923388 M6.37301092,2.62645295 C5.09980935,2.14498182 3.74723462,1.92324245 2.40989097,2.023756 L2.3392596,2.09356554 L2.32964632,2.10306695 C1.97502802,2.23050779 1.89464931,2.68257357 2.14656519,2.93154501 C2.20659114,2.99087252 2.3406674,3.05401649 2.42606056,3.07671651 L2.42606056,3.07671651 L2.42606056,3.07671651 C3.60853274,2.98520081 4.89059675,3.15573593 6.012748,3.57942999 C9.4289843,4.87064138 11.4626396,8.18427536 10.8494552,11.4578894 L10.822707,11.60159 L10.8600875,11.6019478 C10.881352,11.695491 10.9283323,11.7812422 10.9983067,11.8504024 C11.200306,12.0500513 11.5284979,12.0496803 11.7301352,11.8504024 C11.7881097,11.7931024 11.8302901,11.7236242 11.8539144,11.6446445 L11.8700437,11.6456781 L11.8896055,11.5409241 C12.5453322,7.83208703 10.225652,4.08259401 6.37301092,2.62645295 L6.37301092,2.62645295 Z" id="形状" fill="#666666"></path>
                </g>
            </g>
        </g>
    </g>
</svg>