<svg id="jg" xmlns="http://www.w3.org/2000/svg" width="14" height="14" viewBox="0 0 14 14">
  <rect id="矩形_774" data-name="矩形 774" width="14" height="14" fill="rgba(130,130,130,0)"/>
  <path id="路径_37" data-name="路径 37" d="M91.7,85.333A6.364,6.364,0,1,1,85.333,91.7,6.364,6.364,0,0,1,91.7,85.333Zm0,2.545a.636.636,0,0,0-.636.636v5.091a.636.636,0,0,0,1.273,0V88.515A.636.636,0,0,0,91.7,87.879Zm0,8.273a.636.636,0,1,0-.636-.636A.636.636,0,0,0,91.7,96.151Z" transform="translate(-84.697 -84.697)" fill="#f1403c"/>
</svg>
