<svg id="出售" xmlns="http://www.w3.org/2000/svg" width="19" height="19" viewBox="0 0 19 19">
  <defs>
    <style>
      .cls-1 {
        fill: rgba(183,183,183,0);
      }

      .cls-2 {
        fill: #333;
        stroke: #333;
        stroke-width: 0.5px;
      }
    </style>
  </defs>
  <rect id="矩形_915" data-name="矩形 915" class="cls-1" width="19" height="19"/>
  <path id="路径_163" data-name="路径 163" class="cls-2" d="M16.626,101.987H3.706a1.929,1.929,0,0,1-2.039-1.3,1.777,1.777,0,0,1,.83-2.162L9.711,94.6v-.265c0-.488.408-.748.768-.978a2.281,2.281,0,0,0,.777-.683,1.959,1.959,0,0,0,.306-1.12A2.185,2.185,0,0,0,9.386,89.5a2.142,2.142,0,0,0-2.265,1.933.429.429,0,0,1-.858,0,2.988,2.988,0,0,1,3.122-2.751,3.025,3.025,0,0,1,3.034,2.87,2.721,2.721,0,0,1-.426,1.535,3.03,3.03,0,0,1-1.038.946,1.5,1.5,0,0,0-.388.3v.279l7.173,3.925a1.841,1.841,0,0,1,.856,2.127A1.978,1.978,0,0,1,16.626,101.987Zm-6.5-6.671-7.195,3.91a1,1,0,0,0-.441,1.232c.08.266.344.712,1.215.712H16.624a1.12,1.12,0,0,0,1.149-.728,1.062,1.062,0,0,0-.462-1.195Z" transform="translate(-0.622 -85.837)"/>
</svg>
