<svg id="icon" xmlns="http://www.w3.org/2000/svg" width="21" height="21" viewBox="0 0 21 21">
  <defs>
    <style>
      .cls-1 {
        fill: rgba(203,203,203,0);
      }

      .cls-2 {
        fill: #333;
      }
    </style>
  </defs>
  <rect id="矩形_910" data-name="矩形 910" class="cls-1" width="21" height="21"/>
  <path id="路径_158" data-name="路径 158" class="cls-2" d="M79.7,72.4a.659.659,0,0,1-.659-.659V65.483a.165.165,0,0,0-.165-.165H65.483a.165.165,0,0,0-.165.165V80.972a.165.165,0,0,0,.165.165h5.953a.659.659,0,1,1,0,1.318H64.659A.659.659,0,0,1,64,81.8V64.659A.659.659,0,0,1,64.659,64H79.7a.659.659,0,0,1,.659.659v7.085A.659.659,0,0,1,79.7,72.4ZM67.028,68.243h9.7a.659.659,0,1,1,0,1.318h-9.7a.659.659,0,1,1,0-1.318Zm.1,4.243H71.5a.659.659,0,0,1,0,1.318H67.131a.659.659,0,0,1,0-1.318Zm0,4.243H71.5a.659.659,0,0,1,0,1.318H67.131a.659.659,0,0,1,0-1.318Zm6.262-4.243H74.3a.659.659,0,0,1,0,1.318h-.906a.659.659,0,0,1,0-1.318Zm.452,4.484a4.031,4.031,0,0,1,.483-1.255.834.834,0,0,0,1.114-1.222,4.038,4.038,0,0,1,1.566-.689.834.834,0,0,0,1.647,0,4.038,4.038,0,0,1,1.559.694.834.834,0,0,0,1.107,1.223,4.031,4.031,0,0,1,.478,1.249.834.834,0,0,0,0,1.632,4.034,4.034,0,0,1-.548,1.35.834.834,0,0,0-1.11,1.157,4.036,4.036,0,0,1-1.49.641.834.834,0,0,0-1.632,0,4.036,4.036,0,0,1-1.5-.635A.834.834,0,0,0,74.4,79.963a4.034,4.034,0,0,1-.552-1.354.834.834,0,0,0,0-1.64Zm3.987,2.19a1.37,1.37,0,1,0-1.37-1.37A1.37,1.37,0,0,0,77.831,79.159Z" transform="translate(-62.399 -62.41)"/>
</svg>
