<svg id="编辑" xmlns="http://www.w3.org/2000/svg" width="20" height="20" viewBox="0 0 20 20">
  <defs>
    <style>
      .cls-1 {
        fill: rgba(175,175,175,0);
      }

      .cls-2 {
        fill: #666;
      }

      .cls-3, .cls-4 {
        stroke: none;
      }

      .cls-4 {
        fill: #fff;
      }
    </style>
  </defs>
  <rect id="矩形_914" data-name="矩形 914" class="cls-1" width="20" height="20"/>
  <g id="组_217" data-name="组 217" transform="translate(2 1.822)">
    <g id="路径_160" data-name="路径 160" class="cls-2" transform="translate(0 -24.912)">
      <path class="cls-3" d="M 12.20365905761719 41.03989410400391 L 3.03023886680603 41.03989410400391 C 1.385918855667114 41.03781509399414 0.04894889891147614 39.66454315185547 0.04995889961719513 37.97864532470703 L 0.04995889961719513 28.55050277709961 C 0.05096890032291412 26.88902282714844 1.370238900184631 25.53643417358398 2.990828990936279 25.53539276123047 L 11.85443878173828 25.53539276123047 C 12.20059871673584 25.53539276123047 12.48221874237061 25.82456398010254 12.48221874237061 26.17999267578125 C 12.48221874237061 26.53542327880859 12.20059871673584 26.82459259033203 11.85444927215576 26.82459259033203 L 2.990808963775635 26.82459259033203 C 2.062558889389038 26.82568359375 1.30656886100769 27.59989356994629 1.305508852005005 28.55044364929199 L 1.305508852005005 37.97863388061523 C 1.304478883743286 38.45084381103516 1.483248949050903 38.8951416015625 1.808858871459961 39.22959518432617 C 2.134809017181396 39.56439208984375 2.56856894493103 39.74877166748047 3.03023886680603 39.74877166748047 L 12.20365905761719 39.74877166748047 C 12.66455936431885 39.74771499633789 13.09719848632812 39.56279373168945 13.42196846008301 39.22806167602539 C 13.74643898010254 38.8936653137207 13.92427921295166 38.44988250732422 13.92273902893066 37.97847366333008 L 13.92273902893066 30.91524314880371 C 13.9236888885498 30.55986404418945 14.20614910125732 30.27063369750977 14.55238914489746 30.27063369750977 C 14.71983909606934 30.27063369750977 14.87732887268066 30.33752250671387 14.99585914611816 30.458984375 C 15.11470890045166 30.58078384399414 15.1801586151123 30.74281311035156 15.1801586151123 30.91522407531738 L 15.1801586151123 37.97863388061523 C 15.18116855621338 39.6624641418457 13.84585857391357 41.03572463989258 12.20352935791016 41.03989410400391 L 12.20365905761719 41.03989410400391 Z"/>
      <path class="cls-4" d="M 2.990798950195312 25.58539199829102 L 2.990859031677246 25.58539199829102 C 1.397809028625488 25.5864143371582 0.1009492874145508 26.91658401489258 0.09995937347412109 28.55050277709961 L 0.09995937347412109 37.97867584228516 C 0.09895896911621094 39.63701248168945 1.413538932800293 40.98783111572266 3.030239105224609 40.98989105224609 L 12.20340919494629 40.98989105224609 C 13.81821918487549 40.98579406738281 15.13114929199219 39.63497161865234 15.13015937805176 37.97863388061523 L 15.13015937805176 30.91522216796875 C 15.13015937805176 30.75593185424805 15.06975936889648 30.6063117980957 14.96006870269775 30.49390411376953 C 14.85103893280029 30.38216400146484 14.70624923706055 30.32063293457031 14.55238914489746 30.32063293457031 C 14.23364925384521 30.32063293457031 13.97361850738525 30.58749389648438 13.97272872924805 30.91523361206055 L 13.97272872924805 37.97830200195312 C 13.97432899475098 38.46285247802734 13.79147911071777 38.91905212402344 13.45785903930664 39.26288604736328 C 13.1235990524292 39.60736083984375 12.67826843261719 39.79768371582031 12.20365905761719 39.79877471923828 L 3.030239105224609 39.79877471923828 C 2.561848640441895 39.79877471923828 2.103618621826172 39.60402297973633 1.773038864135742 39.26447296142578 C 1.438239097595215 38.92059326171875 1.254448890686035 38.46386337280273 1.255508422851562 37.97863388061523 L 1.255508422851562 28.55039215087891 C 1.256598472595215 27.57233428955078 2.034998893737793 26.77571487426758 2.990808486938477 26.77459335327148 L 11.85444831848145 26.77459335327148 C 12.17302894592285 26.77459335327148 12.43221855163574 26.50785446166992 12.43221855163574 26.17999267578125 C 12.43221855163574 25.85213470458984 12.17302894592285 25.58539199829102 11.85443878173828 25.58539199829102 L 2.990798950195312 25.58539199829102 M 2.990798950195312 25.48539352416992 L 11.85443878173828 25.48539352416992 C 12.22876930236816 25.48539352416992 12.53221893310547 25.7963752746582 12.53221893310547 26.17999267578125 C 12.53221893310547 26.56361389160156 12.22876930236816 26.87459182739258 11.85444831848145 26.87459182739258 L 2.990808486938477 26.87459182739258 C 2.088088989257812 26.87565231323242 1.356538772583008 27.62536239624023 1.355508804321289 28.55050277709961 L 1.355508804321289 37.97863388061523 C 1.354509353637695 38.43449401855469 1.530518531799316 38.87202453613281 1.84468936920166 39.1947135925293 C 2.158868789672852 39.51742553710938 2.585409164428711 39.69877624511719 3.030239105224609 39.69877624511719 L 12.20365905761719 39.69877624511719 C 12.64764881134033 39.69775390625 13.07302856445312 39.51588439941406 13.38608932495117 39.19324493408203 C 13.69915866851807 38.8705940246582 13.87422943115234 38.43364334106445 13.87272930145264 37.97863388061523 L 13.87272930145264 30.91523361206055 C 13.87376880645752 30.53131484985352 14.17774868011475 30.22063446044922 14.55238914489746 30.22063446044922 L 14.55238914489746 30.22062301635742 C 14.92670917510986 30.22062301635742 15.23015880584717 30.5316047668457 15.23015880584717 30.91522216796875 L 15.23015880584717 37.97863388061523 C 15.23118877410889 39.69361114501953 13.87708854675293 41.08564376831055 12.20365905761719 41.08989334106445 L 3.030239105224609 41.08989334106445 C 1.355319023132324 41.08776092529297 -0.001070976257324219 39.69511413574219 -4.100799560546875e-05 37.97861480712891 L -4.100799560546875e-05 28.55050277709961 C 0.0009889602661132812 26.85812377929688 1.339428901672363 25.48645401000977 2.990798950195312 25.48539352416992 Z"/>
    </g>
    <g id="路径_161" data-name="路径 161" class="cls-2" transform="translate(-166.716 0)">
      <path class="cls-3" d="M 179.2022399902344 12.93772411346436 L 169.9076385498047 12.93772411346436 C 169.5863647460938 12.91879463195801 169.3345794677734 12.63230419158936 169.3493194580078 12.29916477203369 C 169.3305816650391 11.95715427398682 169.5823516845703 11.6674747467041 169.9105377197266 11.64843463897705 L 179.2022399902344 11.64851474761963 C 179.5232849121094 11.68456554412842 179.7650756835938 11.9611988067627 179.7650756835938 12.29311466217041 C 179.7650756835938 12.62504005432129 179.5232849121094 12.90167331695557 179.2022399902344 12.93772411346436 Z M 175.0698852539062 9.634024620056152 L 169.9103851318359 9.634024620056152 C 169.5893402099609 9.597973823547363 169.3475646972656 9.321340560913086 169.3475646972656 8.989424705505371 C 169.3475646972656 8.657508850097656 169.5893402099609 8.380875587463379 169.9103851318359 8.34482479095459 L 175.0698852539062 8.34482479095459 C 175.3909454345703 8.380875587463379 175.6327209472656 8.657508850097656 175.6327209472656 8.989424705505371 C 175.6327209472656 9.321340560913086 175.3909454345703 9.597973823547363 175.0698852539062 9.634024620056152 Z M 175.9015655517578 7.748084545135498 C 175.7330169677734 7.748084545135498 175.5747375488281 7.680484294891357 175.4559020996094 7.55774450302124 C 175.2111358642578 7.304954528808594 175.2126922607422 6.895214557647705 175.4593658447266 6.644364356994629 L 181.5969390869141 0.4160544872283936 C 181.7158203125 0.2946644723415375 181.8734893798828 0.2278644740581512 182.041015625 0.2278644740581512 C 182.2085266113281 0.2278644740581512 182.3661956787109 0.2946644723415375 182.4850006103516 0.4159544706344604 C 182.6016082763672 0.5363245010375977 182.6676025390625 0.7029944658279419 182.6658935546875 0.873044490814209 C 182.6664886474609 1.043564438819885 182.5986480712891 1.208704471588135 182.4797668457031 1.326794505119324 L 176.34375 7.561304569244385 C 176.2252807617188 7.681754589080811 176.0682525634766 7.748084545135498 175.9015655517578 7.748084545135498 Z"/>
      <path class="cls-4" d="M 182.041015625 0.2778644561767578 C 181.8870544433594 0.2778644561767578 181.7420654296875 0.3393239974975586 181.6325531005859 0.4511547088623047 L 175.4950256347656 6.679424285888672 C 175.2672119140625 6.911094665527344 175.2657775878906 7.289504528045654 175.4918212890625 7.522964477539062 C 175.6011657714844 7.635894298553467 175.7466888427734 7.698084354400635 175.9015655517578 7.698084354400635 C 176.0547485351562 7.698084354400635 176.1991119384766 7.637064456939697 176.30810546875 7.526224613189697 L 182.4445343017578 1.291314125061035 C 182.5539703369141 1.182594299316406 182.6164398193359 1.030454635620117 182.6159057617188 0.8725442886352539 C 182.6174774169922 0.7155342102050781 182.5566101074219 0.5617246627807617 182.4492797851562 0.4509344100952148 C 182.3399658203125 0.3393344879150391 182.1949768066406 0.2778644561767578 182.041015625 0.2778644561767578 M 169.9132232666016 8.394824981689453 C 169.6188812255859 8.429283142089844 169.3975677490234 8.683975219726562 169.3975677490234 8.989424705505371 C 169.3975677490234 9.294873237609863 169.6188812255859 9.549566268920898 169.9132232666016 9.584024429321289 L 175.0670471191406 9.584024429321289 C 175.3614044189453 9.549566268920898 175.5827178955078 9.294882774353027 175.5827178955078 8.989424705505371 C 175.5827178955078 8.683965682983398 175.3614044189453 8.429283142089844 175.0670471191406 8.394824981689453 L 169.9132232666016 8.394824981689453 M 169.91064453125 11.69851493835449 C 169.6112976074219 11.71745109558105 169.382080078125 11.98280811309814 169.3992156982422 12.29141426086426 L 169.3994903564453 12.29639434814453 L 169.3992614746094 12.3013744354248 C 169.3857727050781 12.60640239715576 169.614990234375 12.86883544921875 169.9107360839844 12.88772487640381 L 179.1994018554688 12.88771438598633 C 179.4937591552734 12.85325622558594 179.715087890625 12.59857273101807 179.715087890625 12.29311466217041 C 179.715087890625 11.98765563964844 179.4937591552734 11.73297309875488 179.1994018554688 11.69851493835449 L 169.91064453125 11.69851493835449 M 182.041015625 0.1778640747070312 C 182.2145538330078 0.1778640747070312 182.3881072998047 0.2455644607543945 182.5207214355469 0.3809642791748047 L 182.5206298828125 0.3809747695922852 C 182.6474304199219 0.5117645263671875 182.7177429199219 0.6891946792602539 182.7158966064453 0.8735446929931641 C 182.7165374755859 1.05766487121582 182.6440124511719 1.234114646911621 182.5149993896484 1.362264633178711 L 176.3793792724609 7.59637451171875 C 176.2470703125 7.73090124130249 176.0742950439453 7.798083782196045 175.9015808105469 7.798083782196045 C 175.7270660400391 7.798083782196045 175.5526123046875 7.729508399963379 175.4199829101562 7.592524528503418 C 175.1560668945312 7.319954395294189 175.1577758789062 6.879754543304443 175.4237213134766 6.609304428100586 L 181.5613250732422 0.3809642791748047 C 181.6939239501953 0.2455644607543945 181.8674621582031 0.1778640747070312 182.041015625 0.1778640747070312 Z M 169.9076385498047 8.294824600219727 L 175.0726318359375 8.294824600219727 C 175.4194641113281 8.332284927368164 175.6827239990234 8.632024765014648 175.6827239990234 8.989424705505371 C 175.6827239990234 9.346824645996094 175.4194641113281 9.646564483642578 175.0726318359375 9.684024810791016 L 169.9076385498047 9.684024810791016 C 169.5608520507812 9.646564483642578 169.2975616455078 9.346824645996094 169.2975616455078 8.989424705505371 C 169.2975616455078 8.632024765014648 169.5608520507812 8.332284927368164 169.9076385498047 8.294824600219727 Z M 169.9076385498047 11.59851455688477 L 179.2049865722656 11.59851455688477 C 179.5518188476562 11.6359748840332 179.8150787353516 11.93571472167969 179.8150787353516 12.29311466217041 C 179.8150787353516 12.65051460266113 179.5518188476562 12.95025444030762 179.2049865722656 12.98771476745605 L 169.9076385498047 12.98772430419922 C 169.5545196533203 12.96701431274414 169.2833557128906 12.6590747833252 169.2993621826172 12.29695415496826 C 169.2790985107422 11.93192481994629 169.5514526367188 11.61918449401855 169.9076385498047 11.59851455688477 Z"/>
    </g>
  </g>
</svg>
