<svg xmlns="http://www.w3.org/2000/svg" width="20" height="20" viewBox="0 0 20 20">
  <g id="安全1" transform="translate(-701 -311)">
    <rect id="矩形_1004" data-name="矩形 1004" width="20" height="20" transform="translate(701 311)" fill="none"/>
    <g id="组_627" data-name="组 627" transform="translate(613.609 243.174)">
      <path id="路径_240" data-name="路径 240" d="M92.354,75.011v-.148a5.037,5.037,0,0,1,10.074,0v.148h.889a2.074,2.074,0,0,1,2.074,2.074v7.407a2.074,2.074,0,0,1-2.074,2.074H91.465a2.074,2.074,0,0,1-2.074-2.074V77.085a2.074,2.074,0,0,1,2.074-2.074h.889Zm1.185,0h7.7v-.148a3.852,3.852,0,0,0-7.7,0v.148ZM91.465,76.2a.889.889,0,0,0-.889.889v7.407a.889.889,0,0,0,.889.889h11.852a.889.889,0,0,0,.889-.889V77.085a.889.889,0,0,0-.889-.889Z" fill="#ff6398"/>
      <path id="路径_241" data-name="路径 241" d="M363.9,599.272h4.444a.593.593,0,1,0,0-1.185H363.9a.593.593,0,1,0,0,1.185Z" transform="translate(-268.728 -518.261)" fill="#ff6398"/>
    </g>
  </g>
</svg>
