<svg xmlns="http://www.w3.org/2000/svg" width="30" height="30" viewBox="0 0 30 30">
  <defs>
    <style>
      .cls-1 {
        fill: #2abf14;
      }

      .cls-2 {
        fill: #fff;
      }
    </style>
  </defs>
  <g id="微信" transform="translate(-709 -476)">
    <rect id="矩形_855" data-name="矩形 855" class="cls-1" width="30" height="30" rx="4" transform="translate(709 476)"/>
    <g id="组_193" data-name="组 193" transform="translate(709 476)">
      <path id="路径_91" data-name="路径 91" class="cls-1" d="M298.222,333.456a.906.906,0,0,0,0-1.813.921.921,0,1,0,0,1.813Zm-5.075-1.831a.93.93,0,1,0,0,1.831.906.906,0,1,0,0-1.812Z" transform="translate(-283.497 -321.906)"/>
      <path id="路径_93" data-name="路径 93" class="cls-1" d="M559.231,511.866a.725.725,0,1,0,0,1.45.743.743,0,1,0,0-1.45Zm3.987,0a.725.725,0,1,0,0,1.45.743.743,0,1,0,0-1.45Z" transform="translate(-542.144 -496.866)"/>
      <path id="路径_94" data-name="路径 94" class="cls-2" d="M447.982,412.8c-3.45,0-6.169,2.363-6.169,5.263s2.719,5.263,6.169,5.263a9.107,9.107,0,0,0,2.138-.362l1.987,1.087-.544-1.812a5.459,5.459,0,0,0,2.55-4.175C454.144,415.163,451.244,412.8,447.982,412.8Zm-2.025,4.375a.725.725,0,1,1,0-1.45.736.736,0,1,1,0,1.431Zm3.988,0a.725.725,0,0,1,0-1.45.736.736,0,1,1,0,1.431Z" transform="translate(-428.869 -400.706)"/>
      <path id="路径_95" data-name="路径 95" class="cls-2" d="M176.215,232.249a6.31,6.31,0,0,1,.7.044c-.625-2.925-3.75-5.094-7.319-5.094-3.988,0-7.25,2.719-7.25,6.169a5.946,5.946,0,0,0,2.9,4.894l-.725,2.181,2.537-1.25a12.4,12.4,0,0,0,2.538.363h.675a5.4,5.4,0,0,1-.225-1.512,5.955,5.955,0,0,1,6.169-5.794Zm-3.9-1.969a.906.906,0,0,1,0,1.813.921.921,0,1,1,0-1.812Zm-5.075,1.794a.922.922,0,1,1,0-1.812.906.906,0,0,1,0,1.813Z" transform="translate(-157.59 -220.543)"/>
    </g>
  </g>
</svg>
