<svg xmlns="http://www.w3.org/2000/svg" width="20" height="20" viewBox="0 0 20 20">
  <g id="我的" transform="translate(-761 -311)">
    <rect id="矩形_1006" data-name="矩形 1006" width="20" height="20" transform="translate(761 311)" fill="none"/>
    <path id="路径_244" data-name="路径 244" d="M70,70a4,4,0,1,0-4-4A4,4,0,0,0,70,70Zm0-1.164A2.836,2.836,0,1,1,72.836,66,2.836,2.836,0,0,1,70,68.836Zm-4.364,1.891h8.727A3.636,3.636,0,0,1,78,74.364v1.455A2.182,2.182,0,0,1,75.818,78H64.182A2.182,2.182,0,0,1,62,75.818V74.364A3.636,3.636,0,0,1,65.636,70.727Zm0,1.164a2.473,2.473,0,0,0-2.473,2.473v1.455a1.018,1.018,0,0,0,1.018,1.018H75.818a1.018,1.018,0,0,0,1.018-1.018V74.364a2.473,2.473,0,0,0-2.473-2.473H65.636Z" transform="translate(701 251)" fill="#333"/>
  </g>
</svg>
