<svg xmlns="http://www.w3.org/2000/svg" width="30.02" height="30" viewBox="0 0 30.02 30">
  <defs>
    <style>
      .cls-1 {
        fill: #02a9f1;
      }

      .cls-2 {
        fill: #fff;
      }
    </style>
  </defs>
  <g id="支付宝" transform="translate(-645.955 -374.333)">
    <rect id="矩形_857" data-name="矩形 857" class="cls-1" width="30" height="30" rx="4" transform="translate(645.955 374.333)"/>
    <path id="减去_6" data-name="减去 6" class="cls-2" d="M7857.975,21924.146v0l-10.965-5.217-.006.006a18,18,0,0,1-4.511,3.566,12.4,12.4,0,0,1-5.442,1.369,10.08,10.08,0,0,1-2.289-.264c-3.211-.76-4.809-2.838-4.5-5.855a4.377,4.377,0,0,1,2.46-3.516,9.371,9.371,0,0,1,4.407-1c2.921,0,8.47,1.895,8.523,1.914.009-.012.467-1.049.93-2.262a11.558,11.558,0,0,0,.583-2.18h-11.891v-1.193h5.777v-2.289l-7.2.051v-1.508h7.2v-3.434h3.78v3.434h7.72v1.508l-7.72.055v2.129l6.377.055h0v.006a16.1,16.1,0,0,1-.924,3.367,17.708,17.708,0,0,1-1.554,3.271l0,.008,0,.006,9.255,3.053v4.922Zm-21.762-9.207c-.146,0-.3,0-.44.01-3.693.248-4.468,1.984-4.468,3.4a3.232,3.232,0,0,0,.968,2.383,5.869,5.869,0,0,0,4.138,1.242c4.192,0,7.768-4.391,7.8-4.434C7844.172,21917.512,7839.735,21914.939,7836.213,21914.939Z" transform="translate(-7182 -21524)"/>
  </g>
</svg>
