<svg id="收藏" xmlns="http://www.w3.org/2000/svg" width="16" height="16" viewBox="0 0 16 16">
  <defs>
    <style>
      .cls-1 {
        fill: rgba(168,88,88,0);
      }

      .cls-2 {
        fill: #666;
      }
    </style>
  </defs>
  <rect id="矩形_763" data-name="矩形 763" class="cls-1" width="16" height="16"/>
  <path id="收藏-2" data-name="收藏" class="cls-2" d="M70.572,94.684l1.368-2.872a1.5,1.5,0,0,1,2.737,0l1.367,2.872,3.049.465a1.545,1.545,0,0,1,1.231,1.08,1.632,1.632,0,0,1-.385,1.626l-2.2,2.24.517,3.16a1.618,1.618,0,0,1-.608,1.551,1.478,1.478,0,0,1-1.607.122l-2.729-1.487-2.729,1.488a1.478,1.478,0,0,1-1.607-.121,1.618,1.618,0,0,1-.608-1.552l.517-3.16-2.2-2.24a1.633,1.633,0,0,1-.385-1.627,1.545,1.545,0,0,1,1.231-1.08l3.049-.465Zm2.962-2.642a.5.5,0,0,0-.682.24l-1.407,2.955a.852.852,0,0,1-.637.481L67.67,96.2a.515.515,0,0,0-.41.36.544.544,0,0,0,.128.542l2.268,2.3a.9.9,0,0,1,.243.779l-.532,3.25a.539.539,0,0,0,.2.517.493.493,0,0,0,.535.041l2.808-1.531a.82.82,0,0,1,.788,0l2.808,1.531a.493.493,0,0,0,.535-.041.539.539,0,0,0,.2-.517l-.532-3.251a.9.9,0,0,1,.243-.779l2.268-2.3a.544.544,0,0,0,.128-.542.515.515,0,0,0-.41-.36l-3.137-.478a.852.852,0,0,1-.637-.481l-1.407-2.955a.52.52,0,0,0-.23-.24Z" transform="translate(-65.308 -90.02)"/>
</svg>
