<svg xmlns="http://www.w3.org/2000/svg" width="20" height="20" viewBox="0 0 20 20">
  <g id="日历" transform="translate(-1482 -247)">
    <rect id="矩形_825" data-name="矩形 825" width="20" height="20" transform="translate(1482 247)" fill="rgba(232,232,232,0)"/>
    <path id="路径_53" data-name="路径 53" d="M14.159,4.519a.784.784,0,0,1-1.415,0h-5.5a.784.784,0,0,1-1.415,0H3.353a.785.785,0,0,0-.784.786V7.263a.785.785,0,0,1,.181-.02L17.613,7.3v-2a.785.785,0,0,0-.784-.786Zm.077-1.572h2.594A2.355,2.355,0,0,1,19.182,5.3v10.61a2.355,2.355,0,0,1-2.353,2.358H3.353A2.355,2.355,0,0,1,1,15.915V5.3A2.355,2.355,0,0,1,3.353,2.947h2.4V1.786a.784.784,0,1,1,1.569,0V2.947h5.348V1.786a.784.784,0,1,1,1.569,0ZM2.569,8.794v7.121a.785.785,0,0,0,.784.786H16.829a.785.785,0,0,0,.784-.786V8.875L2.744,8.815A.785.785,0,0,1,2.569,8.794Zm3.3,5.075a.786.786,0,0,1,0-1.572h8.4a.786.786,0,0,1,0,1.572Z" transform="translate(1481.909 247.818)" fill="#595959"/>
  </g>
</svg>
