<svg xmlns="http://www.w3.org/2000/svg" width="20" height="20" viewBox="0 0 20 20">
  <g id="点赞" transform="translate(-0.207)">
    <rect id="矩形" width="20" height="20" transform="translate(0.207)" fill="#ff6398" opacity="0"/>
    <path id="路径" d="M8.8,15.72a.7.7,0,0,1-.379-.113C3.021,12.119.269,8.9,0,5.764q0-.035,0-.07v-.85q0-.036,0-.072A4.914,4.914,0,0,1,4.3.038C4.574.013,4.841,0,5.091,0A4.872,4.872,0,0,1,8.8,1.517,4.872,4.872,0,0,1,12.5,0c.25,0,.517.013.793.038a4.915,4.915,0,0,1,4.3,4.734q0,.036,0,.072v.85c0,.023,0,.047,0,.07-.266,3.135-3.018,6.355-8.415,9.843a.7.7,0,0,1-.379.113Z" transform="translate(1.211 2.256)" fill="#ff6398"/>
    <path id="路径-2" data-name="路径" d="M0,4.1c.231,2.5,2.7,5.312,7.336,8.372,4.638-3.06,7.1-5.875,7.336-8.372V3.326A3.423,3.423,0,0,0,11.71.032C11.474.011,11.25,0,11.041,0A3.764,3.764,0,0,0,7.86,1.593a.7.7,0,0,1-1.048,0A3.764,3.764,0,0,0,3.631,0C3.422,0,3.2.011,2.962.032A3.422,3.422,0,0,0,0,3.325V4.1Z" transform="translate(2.671 3.813)" fill="#ff6398"/>
  </g>
</svg>
