<svg xmlns="http://www.w3.org/2000/svg" width="20" height="20" viewBox="0 0 20 20">
  <g id="点赞" transform="translate(-0.207)">
    <rect id="矩形" width="20" height="20" transform="translate(0.207)" fill="#ff6398" opacity="0"/>
    <path id="形状" d="M8.8,15.721a.692.692,0,0,1-.378-.114C3.022,12.12.269,8.9,0,5.764c0-.023,0-.047,0-.07v-.85c0-.023,0-.048,0-.071A4.914,4.914,0,0,1,4.3.038C4.578.013,4.844,0,5.09,0A4.886,4.886,0,0,1,8.8,1.517,4.887,4.887,0,0,1,12.5,0c.247,0,.514.013.794.038a4.915,4.915,0,0,1,4.3,4.735c0,.023,0,.048,0,.071v.85c0,.023,0,.047,0,.07-.266,3.135-3.019,6.355-8.415,9.844A.689.689,0,0,1,8.8,15.721ZM5.09,1.556c-.215,0-.439.011-.668.032A3.427,3.427,0,0,0,1.46,4.882v.776c.231,2.5,2.7,5.313,7.336,8.372,4.636-3.059,7.105-5.876,7.336-8.372V4.882a3.427,3.427,0,0,0-2.963-3.294c-.229-.021-.454-.032-.669-.032A3.761,3.761,0,0,0,9.32,3.148a.714.714,0,0,1-.524.237.7.7,0,0,1-.524-.237A3.762,3.762,0,0,0,5.09,1.556Z" transform="translate(1.211 2.256)" fill="#ff6398"/>
  </g>
</svg>
