<svg xmlns="http://www.w3.org/2000/svg" width="26" height="26" viewBox="0 0 26 26">
  <defs>
    <style>
      .cls-1 {
        fill: none;
        opacity: 0.6;
      }

      .cls-2 {
        fill: #333;
      }
    </style>
  </defs>
  <g id="s" transform="translate(-513 -277)">
    <rect id="矩形_1002" data-name="矩形 1002" class="cls-1" width="26" height="26" transform="translate(513 277)"/>
    <path id="路径_239" data-name="路径 239" class="cls-2" d="M99.576,102.04V99.6H92.242a1.222,1.222,0,0,0-1.222,1.222v1.222h8.556Zm1.63,0h8.556v-1.222a1.222,1.222,0,0,0-1.222-1.222h-7.333v2.444Zm-1.63,11.2V103.67H92.039V111a2.241,2.241,0,0,0,2.241,2.241h5.3Zm1.63,0h5.3A2.241,2.241,0,0,0,108.742,111V103.67h-7.537Zm9.167-9.574V111a3.87,3.87,0,0,1-3.87,3.87H94.279a3.87,3.87,0,0,1-3.87-3.87V103.67h-.1a.917.917,0,0,1-.917-.917v-1.935a2.852,2.852,0,0,1,2.852-2.852h1.263l-.346-.347a2.852,2.852,0,0,1,4.033-4.033l3.2,3.2,3.2-3.2a2.852,2.852,0,0,1,4.033,4.033l-.347.347h1.263a2.852,2.852,0,0,1,2.852,2.852v1.935a.917.917,0,0,1-.917.917h-.1Zm-5.4-5.7,1.5-1.5a1.222,1.222,0,1,0-1.728-1.728l-3.2,3.2.023.029h3.4Zm-5.756,0,.023-.029-3.2-3.2a1.222,1.222,0,1,0-1.728,1.728L95.7,97.858a.818.818,0,0,1,.092.108h3.421Z" transform="translate(425.609 186.25)"/>
  </g>
</svg>
