<svg id="编辑" xmlns="http://www.w3.org/2000/svg" width="16" height="16" viewBox="0 0 16 16">
  <defs>
    <style>
      .cls-1 {
        fill: none;
      }

      .cls-2 {
        fill: #ff6398;
      }

      .cls-3, .cls-4 {
        stroke: none;
      }

      .cls-4 {
        fill: #fff;
      }
    </style>
  </defs>
  <rect id="矩形_914" data-name="矩形 914" class="cls-1" width="16" height="16"/>
  <g id="组_217" data-name="组 217" transform="translate(1.6 1.6)">
    <g id="路径_160" data-name="路径 160" class="cls-2" transform="translate(0 -25.169)">
      <path class="cls-3" d="M 9.762919425964355 37.91899108886719 L 2.424179553985596 37.91899108886719 C 1.114249587059021 37.91733169555664 0.04914958402514458 36.82320022583008 0.04995958507061005 35.48000335693359 L 0.04995958507061005 27.9374828338623 C 0.05076958611607552 26.61381149291992 1.101699590682983 25.53622245788574 2.392659664154053 25.53539276123047 L 9.483549118041992 25.53539276123047 C 9.754960060119629 25.53539276123047 9.975769996643066 25.76224136352539 9.975769996643066 26.04107284545898 C 9.975769996643066 26.31990242004395 9.754960060119629 26.54675102233887 9.483549118041992 26.54675102233887 L 2.392639636993408 26.54675102233887 C 1.644539594650269 26.54763221740723 1.035259604454041 27.17148208618164 1.034399628639221 27.93742179870605 L 1.034399628639221 35.4799919128418 C 1.033569574356079 35.8603515625 1.177579641342163 36.21828079223633 1.439929604530334 36.48773193359375 C 1.698769569396973 36.75360107421875 2.057519674301147 36.90609359741211 2.424179553985596 36.90610122680664 L 9.762919425964355 36.90610122680664 C 10.13437938690186 36.90524291992188 10.48302936553955 36.75622177124023 10.74475002288818 36.48649215698242 C 11.00615978240967 36.21709060668945 11.14942932128906 35.85958099365234 11.14818000793457 35.47983169555664 L 11.14818000793457 29.82927131652832 C 11.14892959594727 29.55049133300781 11.3704195022583 29.32358169555664 11.64189910888672 29.32358169555664 C 11.77314949035645 29.32358169555664 11.89659976959229 29.37602233886719 11.9895191192627 29.47125244140625 C 12.0827693939209 29.56681251525879 12.13411998748779 29.6939525604248 12.13411998748779 29.82926177978516 L 12.13411998748779 35.4799919128418 C 12.13492965698242 36.82155227661133 11.07115936279297 37.91567230224609 9.762789726257324 37.91899108886719 L 9.762919425964355 37.91899108886719 Z"/>
      <path class="cls-4" d="M 2.392629623413086 25.58539199829102 L 2.39268970489502 25.58539199829102 C 1.129269599914551 25.5861930847168 0.1007499694824219 26.64136123657227 0.09995937347412109 27.93748092651367 L 0.09995937347412109 35.48003387451172 C 0.09915924072265625 36.79568099975586 1.141860008239746 37.86736297607422 2.424180030822754 37.86899185180664 L 9.762669563293457 37.86899185180664 C 11.04351997375488 37.86574172973633 12.08490943908691 36.79405975341797 12.08411979675293 35.4799919128418 L 12.08411979675293 29.82926177978516 C 12.08411979675293 29.70708084106445 12.03781986236572 29.59233093261719 11.95373916625977 29.50617218017578 C 11.87029933929443 29.42066192626953 11.75955963134766 29.37358093261719 11.64189910888672 29.37358093261719 C 11.39790916442871 29.37358093261719 11.19885921478271 29.57812118530273 11.19817924499512 29.82927322387695 L 11.19817924499512 35.47966003417969 C 11.19946956634521 35.87255096435547 11.05118942260742 36.24248123168945 10.7806396484375 36.52131271362305 C 10.50943946838379 36.80080413818359 10.14808940887451 36.9552116394043 9.762919425964355 36.95610046386719 L 2.424180030822754 36.95610046386719 C 2.044109344482422 36.95609283447266 1.672299385070801 36.79809188842773 1.404099464416504 36.52261352539062 C 1.132589340209961 36.24374389648438 0.9835395812988281 35.87339019775391 0.9843997955322266 35.4799919128418 L 0.9843997955322266 27.93737030029297 C 0.9852895736694336 27.1439208984375 1.616969108581543 26.49766159057617 2.39263916015625 26.49675369262695 L 9.483549118041992 26.49675369262695 C 9.727389335632324 26.49675369262695 9.925769805908203 26.29233169555664 9.925769805908203 26.04107284545898 C 9.925769805908203 25.78981018066406 9.727389335632324 25.58539199829102 9.483549118041992 25.58539199829102 L 2.392629623413086 25.58539199829102 M 2.392629623413086 25.48539352416992 L 9.483549118041992 25.48539352416992 C 9.78300952911377 25.48539352416992 10.02576923370361 25.73417282104492 10.02576923370361 26.04107284545898 C 10.02576923370361 26.34797286987305 9.78300952911377 26.59675216674805 9.483549118041992 26.59675216674805 L 2.39263916015625 26.59675216674805 C 1.670459747314453 26.59760284423828 1.085229873657227 27.19737243652344 1.084399223327637 27.93748092651367 L 1.084399223327637 35.4799919128418 C 1.083600044250488 35.84467315673828 1.224410057067871 36.1947021484375 1.475749969482422 36.45285034179688 C 1.727089881896973 36.71101379394531 2.068319320678711 36.85609436035156 2.424180030822754 36.85610198974609 L 9.762919425964355 36.85610198974609 C 10.11810970306396 36.85528182983398 10.45840930938721 36.70979309082031 10.70886993408203 36.4516716003418 C 10.95932006835938 36.19356155395508 11.09937953948975 35.843994140625 11.09817981719971 35.4799919128418 L 11.09817981719971 29.82927322387695 C 11.09900951385498 29.52212142944336 11.34219932556152 29.27358245849609 11.64189910888672 29.27358245849609 L 11.64189910888672 29.2735710144043 C 11.9413595199585 29.2735710144043 12.18411922454834 29.52236175537109 12.18411922454834 29.82926177978516 L 12.18411922454834 35.4799919128418 C 12.18494987487793 36.85197448730469 11.10165977478027 37.96559143066406 9.762919425964355 37.968994140625 L 2.424180030822754 37.968994140625 C 1.084249496459961 37.96729278564453 -0.0008707046508789062 36.85317230224609 -4.00543212890625e-05 35.47997283935547 L -4.00543212890625e-05 27.93748092651367 C 0.000789642333984375 26.58358383178711 1.071539878845215 25.48623275756836 2.392629623413086 25.48539352416992 Z"/>
    </g>
    <g id="路径_161" data-name="路径 161" class="cls-2" transform="translate(-167.232 -0.178)">
      <path class="cls-3" d="M 177.2207489013672 10.3757495880127 L 169.7856292724609 10.3757495880127 C 169.5346221923828 10.36093997955322 169.3374176025391 10.13641929626465 169.3489532470703 9.875349998474121 C 169.3342590332031 9.606239318847656 169.5314636230469 9.379220008850098 169.7885284423828 9.364309310913086 L 177.2207489013672 9.364389419555664 C 177.4722442626953 9.392921447753906 177.6615753173828 9.609838485717773 177.6615753173828 9.87006950378418 C 177.6615753173828 10.1303014755249 177.4722442626953 10.34721755981445 177.2207489013672 10.3757495880127 Z M 173.9148712158203 7.732799530029297 L 169.7883911132812 7.732799530029297 C 169.5368957519531 7.704267501831055 169.3475646972656 7.487351417541504 169.3475646972656 7.227119922637939 C 169.3475646972656 6.966878414154053 169.5368957519531 6.749961853027344 169.7883758544922 6.721429824829102 L 173.9148712158203 6.721429824829102 C 174.1663665771484 6.749961853027344 174.3556976318359 6.966878414154053 174.3556976318359 7.227119922637939 C 174.3556976318359 7.487351417541504 174.1663665771484 7.704267501831055 173.9148712158203 7.732799530029297 Z M 174.5807647705078 6.224039554595947 C 174.4486541748047 6.224039554595947 174.3245849609375 6.17104959487915 174.2314147949219 6.074819564819336 C 174.0393524169922 5.876439571380615 174.0405731201172 5.554909706115723 174.2341461181641 5.35807991027832 L 179.1441955566406 0.3754497170448303 C 179.2374267578125 0.2802397310733795 179.3610229492188 0.2278697341680527 179.4923248291016 0.2278697341680527 C 179.6236267089844 0.2278697341680527 179.7472381591797 0.2802397310733795 179.8403778076172 0.3753397166728973 C 179.9317932128906 0.469709724187851 179.9835662841797 0.6004797220230103 179.9822235107422 0.7339097261428833 C 179.9826965332031 0.8678097128868103 179.9295043945312 0.997319757938385 179.8362731933594 1.089919686317444 L 174.9273681640625 6.07759952545166 C 174.8345031738281 6.17203950881958 174.71142578125 6.224039554595947 174.5807647705078 6.224039554595947 Z"/>
      <path class="cls-4" d="M 179.4923248291016 0.2778701782226562 C 179.3745727539062 0.2778701782226562 179.263671875 0.3249101638793945 179.1798095703125 0.4105396270751953 L 174.2697906494141 5.393139839172363 C 174.0950927734375 5.570789813995361 174.093994140625 5.860989570617676 174.267333984375 6.040039539337158 C 174.3510131835938 6.126449584960938 174.4623260498047 6.174039840698242 174.5807647705078 6.174039840698242 C 174.6979064941406 6.174039840698242 174.8083343505859 6.127339839935303 174.8917388916016 6.042519569396973 L 179.8010559082031 1.054439544677734 C 179.8848419189453 0.9712095260620117 179.9326477050781 0.8546895980834961 179.9322357177734 0.7334098815917969 C 179.9334411621094 0.6130294799804688 179.8867950439453 0.4951295852661133 179.8046569824219 0.4103193283081055 C 179.7209930419922 0.3249101638793945 179.6100769042969 0.2778701782226562 179.4923248291016 0.2778701782226562 M 169.7912750244141 6.771430015563965 C 169.5664672851562 6.798355102539062 169.3975524902344 6.993328094482422 169.3975524902344 7.227109909057617 C 169.3975524902344 7.460901260375977 169.5664672851562 7.655874252319336 169.7912750244141 7.682799816131592 L 173.9119720458984 7.682799816131592 C 174.1367950439453 7.655874252319336 174.3056945800781 7.460901260375977 174.3056945800781 7.227109909057617 C 174.3056945800781 6.993328094482422 174.1367950439453 6.798355102539062 173.9119720458984 6.771430015563965 L 169.7912750244141 6.771430015563965 M 169.7886505126953 9.414389610290527 C 169.5603942871094 9.429178237915039 169.3857574462891 9.63187313079834 169.3988647460938 9.867589950561523 L 169.3991241455078 9.872579574584961 L 169.3989105224609 9.877559661865234 C 169.3885955810547 10.1105375289917 169.5632476806641 10.31099891662598 169.7887573242188 10.32574939727783 L 177.2178649902344 10.32574939727783 C 177.4426727294922 10.29882431030273 177.611572265625 10.10385131835938 177.611572265625 9.87006950378418 C 177.611572265625 9.63627815246582 177.4426727294922 9.441305160522461 177.2178649902344 9.414389610290527 L 169.7886505126953 9.414389610290527 M 179.4923248291016 0.1778697967529297 C 179.6311645507812 0.1778697967529297 179.7700042724609 0.232029914855957 179.8760986328125 0.3403501510620117 L 179.8760223388672 0.3403501510620117 C 179.9774627685547 0.4449901580810547 180.0337066650391 0.5869293212890625 180.0322265625 0.7344093322753906 C 180.0327453613281 0.8817100524902344 179.9747314453125 1.022870063781738 179.8715209960938 1.12539005279541 L 174.9630126953125 6.112669944763184 C 174.8571624755859 6.220308303833008 174.7189788818359 6.27404260635376 174.5807800292969 6.27404260635376 C 174.4411773681641 6.27404260635376 174.3015899658203 6.219170570373535 174.1954956054688 6.109599590301514 C 173.984375 5.891539573669434 173.9857330322266 5.539379596710205 174.198486328125 5.323019504547119 L 179.1085815429688 0.3403501510620117 C 179.2146606445312 0.232029914855957 179.3534851074219 0.1778697967529297 179.4923248291016 0.1778697967529297 Z M 169.7856292724609 6.671429634094238 L 173.9176177978516 6.671429634094238 C 174.1950836181641 6.701399803161621 174.4057006835938 6.941189765930176 174.4057006835938 7.227109909057617 C 174.4057006835938 7.513039588928223 174.1950836181641 7.752829551696777 173.9176177978516 7.78279972076416 L 169.7856292724609 7.78279972076416 C 169.5081939697266 7.752829551696777 169.2975616455078 7.513039588928223 169.2975616455078 7.227109909057617 C 169.2975616455078 6.941189765930176 169.5081939697266 6.701399803161621 169.7856292724609 6.671429634094238 Z M 169.7856292724609 9.314390182495117 L 177.2235107421875 9.314390182495117 C 177.5009765625 9.34434986114502 177.7115783691406 9.584149360656738 177.7115783691406 9.87006950378418 C 177.7115783691406 10.15598964691162 177.5009765625 10.39577960968018 177.2235107421875 10.42574977874756 L 169.7856292724609 10.42574977874756 C 169.5031280517578 10.4091796875 169.2861938476562 10.16282939910889 169.2990112304688 9.873139381408691 C 169.2827911376953 9.581110000610352 169.5006713867188 9.33091926574707 169.7856292724609 9.314390182495117 Z"/>
    </g>
  </g>
</svg>
