<svg xmlns="http://www.w3.org/2000/svg" width="20" height="20" viewBox="0 0 20 20">
  <g id="订单" transform="translate(-673 -311)">
    <rect id="矩形_1005" data-name="矩形 1005" width="20" height="20" transform="translate(673 311)" fill="none"/>
    <g id="组_628" data-name="组 628" transform="translate(543.455 241.818)">
      <path id="路径_242" data-name="路径 242" d="M134.814,70.182h9.462a3.269,3.269,0,0,1,3.269,3.269V85.494a3.269,3.269,0,0,1-3.269,3.269h-9.462a3.269,3.269,0,0,1-3.269-3.269V73.451a3.269,3.269,0,0,1,3.269-3.269Zm0,1.376a1.892,1.892,0,0,0-1.892,1.892V85.494a1.892,1.892,0,0,0,1.892,1.892h9.462a1.892,1.892,0,0,0,1.892-1.892V73.451a1.892,1.892,0,0,0-1.892-1.892h-9.462Z" fill="#333"/>
      <path id="路径_243" data-name="路径 243" d="M295.87,337.467h7.742a.688.688,0,1,0,0-1.376H295.87a.688.688,0,1,0,0,1.376Zm0,4.3h4.3a.688.688,0,0,0,0-1.376h-4.3a.688.688,0,0,0,0,1.376Z" transform="translate(-160.196 -260.317)" fill="#333"/>
    </g>
  </g>
</svg>
