<svg xmlns="http://www.w3.org/2000/svg" width="30" height="30" viewBox="0 0 30 30">
  <g id="消息" transform="translate(-1573 -192)">
    <rect id="矩形_936" data-name="矩形 936" width="30" height="30" transform="translate(1573 192)" fill="none"/>
    <path id="联合_2" data-name="联合 2" d="M14711,11474h8a4,4,0,0,1-8,0Zm-6-2a2,2,0,0,1,0-4v-5a10.021,10.021,0,0,1,7.034-9.551,3,3,0,1,1,5.969-.451,3.088,3.088,0,0,1-.033.449A10.019,10.019,0,0,1,14725,11463v5a2,2,0,0,1,0,4Z" transform="translate(-13126.999 -11256.998)" fill="#666"/>
  </g>
</svg>
