<svg xmlns="http://www.w3.org/2000/svg" width="30" height="30" viewBox="0 0 30 30">
  <g id="组_580" data-name="组 580" transform="translate(-1607 -17)">
    <rect id="矩形_938" data-name="矩形 938" width="30" height="30" rx="4" transform="translate(1607 17)" fill="none"/>
    <path id="路径_225" data-name="路径 225" d="M24.723,40.288a2.117,2.117,0,1,1,2.321-2.107A2.222,2.222,0,0,1,24.723,40.288Zm10.744,0a2.117,2.117,0,1,1,2.321-2.107,2.222,2.222,0,0,1-2.321,2.107Zm6.291-19.665-2.132,7.945a1.636,1.636,0,0,1-1.842,1.185H23.868l.581,2.107H37.014a1.411,1.411,0,1,1,0,2.809H23.864a1.273,1.273,0,0,1-.5,0H23.09a1.481,1.481,0,0,1-1.547-1.4L18.023,20.8l-.319-1.13-.724-2.557H15.342a1.411,1.411,0,1,1,0-2.809h2.321a2.541,2.541,0,0,1,.5,0h.274a1.481,1.481,0,0,1,1.547,1.4l.782,2.809H39.593a1.349,1.349,0,0,1,.618,0,1.481,1.481,0,0,1,1.547,1.4,1.35,1.35,0,0,1,0,.16,1.015,1.015,0,0,1,0,.543Zm0,0" transform="translate(1594.205 5.712)" fill="#666"/>
  </g>
</svg>
