<svg xmlns="http://www.w3.org/2000/svg" width="30" height="30" viewBox="0 0 30 30">
  <g id="h" transform="translate(-198 -126)">
    <rect id="矩形_1094" data-name="矩形 1094" width="30" height="30" transform="translate(198 126)" fill="none"/>
    <path id="路径_243" data-name="路径 243" d="M123.446,153.739l-11.861-9.134a.965.965,0,0,0-1.177,0l-11.861,9.134a.962.962,0,0,1-1.55-.757v-1.969a.956.956,0,0,1,.373-.757L110.407,140.2a.965.965,0,0,1,1.178,0l13.038,10.056a.956.956,0,0,1,.373.757v1.969A.962.962,0,0,1,123.446,153.739Zm-1.95,1.289v9.014a.959.959,0,0,1-.962.957h-5.076a.959.959,0,0,1-.962-.957V158.99a.959.959,0,0,0-.962-.957h-5.076a.959.959,0,0,0-.962.957v5.052a.959.959,0,0,1-.962.957h-5.076a.959.959,0,0,1-.962-.957v-9.014a.956.956,0,0,1,.385-.766l9.538-7.119a.965.965,0,0,1,1.154,0l9.538,7.12A.956.956,0,0,1,121.5,155.028Zm0-.479" transform="translate(102.004 -12)" fill="#666"/>
  </g>
</svg>
