<?xml version="1.0" encoding="UTF-8"?>
<svg width="40px" height="40px" viewBox="0 0 40 40" version="1.1" xmlns="http://www.w3.org/2000/svg" xmlns:xlink="http://www.w3.org/1999/xlink">
    <title>编组</title>
    <g id="页面-1" stroke="none" stroke-width="1" fill="none" fill-rule="evenodd">
        <g id="Live2D组件备份-19" transform="translate(-1155.000000, -355.000000)">
            <g id="编组" transform="translate(1155.000000, 355.000000)">
                <circle id="椭圆形" fill-opacity="0" fill="#000000" cx="20" cy="20" r="20"></circle>
                <g id="编组-11" transform="translate(8.000000, 8.000000)" stroke="#FFFFFF" stroke-width="2">
                    <circle id="椭圆形" cx="11.8890873" cy="5.5" r="4.5"></circle>
                    <path d="M20.2426407,8.56066017 C20.7544853,8.56066017 21.26633,8.75592232 21.6568542,9.14644661 C22.0473785,9.5369709 22.2426407,10.0488155 22.2426407,10.5606602 C22.2426407,11.0725048 22.0473785,11.5843494 21.6569303,11.9747977 L21.6569303,11.9747977 L17.8884947,15.7424228 L17.8890873,22 C17.8890873,22.2761424 17.7771585,22.5261424 17.5961941,22.7071068 C17.4152297,22.8880712 17.1652297,23 16.8890873,23 L16.8890873,23 L6.8890873,23 C6.61294492,23 6.36294492,22.8880712 6.18198052,22.7071068 C6.00101611,22.5261424 5.8890873,22.2761424 5.88908729,21.9999053 L5.88908729,21.9999053 L5.88849468,15.7424377 L2.12132034,11.9748737 C1.73079605,11.5843494 1.53553391,11.0725048 1.53553391,10.5606602 C1.53553391,10.0488155 1.73079605,9.5369709 2.12132034,9.14644661 C2.51184464,8.75592232 3.02368927,8.56066018 3.53553391,8.56066018 C4.04737854,8.56066018 4.55922318,8.75592232 4.94978315,9.14648229 L4.94978315,9.14648229 L8.8033499,12.9996602 L14.9736269,12.9996602 L18.8284271,9.14644661 C19.2189514,8.75592232 19.7307961,8.56066017 20.2426407,8.56066017 Z" id="形状结合"></path>
                </g>
            </g>
        </g>
    </g>
</svg>