<svg xmlns="http://www.w3.org/2000/svg" width="40" height="40" viewBox="0 0 40 40">
  <defs>
    <style>
      .cls-1 {
        fill: rgba(0,0,0,0);
      }

      .cls-2 {
        fill: #fff;
      }
    </style>
  </defs>
  <g id="组_762" data-name="组 762" transform="translate(-1475 -619)">
    <circle id="椭圆形备份_4" data-name="椭圆形备份 4" class="cls-1" cx="20" cy="20" r="20" transform="translate(1475 619)"/>
    <g id="组_761" data-name="组 761">
      <path id="路径_254" data-name="路径 254" class="cls-2" d="M580.718,197h-4.267a1.067,1.067,0,0,0,0,2.133h1.691l-4.489,4.489a1.067,1.067,0,0,0,1.509,1.509l4.488-4.489v1.691a1.067,1.067,0,0,0,2.134,0v-4.267A1.07,1.07,0,0,0,580.718,197Z" transform="translate(2079.543 833.242) rotate(180)"/>
      <path id="路径_255" data-name="路径 255" class="cls-2" d="M529.13,249.654a1.069,1.069,0,0,0-1.509,0l-4.489,4.489v-1.691a1.066,1.066,0,1,0-2.133,0v4.267a1.07,1.07,0,0,0,1.066,1.067h4.267a1.067,1.067,0,0,0,0-2.133h-1.692l4.489-4.489a1.069,1.069,0,0,0,0-1.508Z" transform="translate(2013.242 899.543) rotate(180)"/>
      <path id="路径_256" data-name="路径 256" class="cls-2" d="M580.718,251.385a1.071,1.071,0,0,0-1.067,1.067v1.691l-4.488-4.489a1.07,1.07,0,0,0-1.509,0h0a1.071,1.071,0,0,0,0,1.508l4.489,4.489h-1.691a1.067,1.067,0,0,0,0,2.133h4.267a1.07,1.07,0,0,0,1.066-1.067v-4.267A1.07,1.07,0,0,0,580.718,251.385Z" transform="translate(2079.543 899.543) rotate(180)"/>
      <path id="路径_257" data-name="路径 257" class="cls-2" d="M524.641,199.133h1.692a1.067,1.067,0,0,0,0-2.133h-4.267A1.069,1.069,0,0,0,521,198.067v4.267a1.066,1.066,0,1,0,2.133,0v-1.691l4.489,4.489a1.067,1.067,0,0,0,1.509-1.509Z" transform="translate(2013.242 833.242) rotate(180)"/>
    </g>
  </g>
</svg>
