<svg xmlns="http://www.w3.org/2000/svg" width="40" height="40" viewBox="0 0 40 40">
  <defs>
    <style>
      .cls-1 {
        fill: rgba(0,0,0,0);
      }

      .cls-2 {
        fill: #fff;
      }
    </style>
  </defs>
  <g id="面捕" transform="translate(-950 -510)">
    <circle id="椭圆形备份_2" data-name="椭圆形备份 2" class="cls-1" cx="20" cy="20" r="20" transform="translate(950 510)"/>
    <g id="组_723" data-name="组 723" transform="translate(958 518)">
      <path id="路径_249" data-name="路径 249" class="cls-2" d="M307,219a12,12,0,1,1,12-12A12.013,12.013,0,0,1,307,219Zm0-21.818A9.818,9.818,0,1,0,316.818,207,9.829,9.829,0,0,0,307,197.182Z" transform="translate(-295 -195)"/>
      <circle id="椭圆_4" data-name="椭圆 4" class="cls-2" cx="1.364" cy="1.364" r="1.364" transform="translate(6 7.091)"/>
      <circle id="椭圆_5" data-name="椭圆 5" class="cls-2" cx="1.364" cy="1.364" r="1.364" transform="translate(15.273 7.091)"/>
      <path id="路径_250" data-name="路径 250" class="cls-2" d="M326.644,246a1.4,1.4,0,0,1-.159-.009c-.634-.073-1.092-.564-2.583-2.255-.343-.389-.8-.908-1.146-1.271-.354.351-.823.859-1.174,1.239-1.552,1.68-2.125,2.263-2.836,2.293-1.119.045-1.34-1.018-1.708-2.782a13.04,13.04,0,0,0-.4-1.63,1.1,1.1,0,0,1,.488-1.463,1.083,1.083,0,0,1,1.455.47,9.891,9.891,0,0,1,.594,2.178c.017.081.035.168.054.259.259-.273.528-.563.751-.8,1.635-1.771,2.141-2.28,2.893-2.223.662.049,1.134.553,2.667,2.292.175.2.38.43.584.658.028-.133.054-.26.076-.371a8.552,8.552,0,0,1,.54-2.005,1.091,1.091,0,1,1,1.924,1.029c-.071.167-.225.917-.326,1.414-.11.535-.223,1.088-.343,1.524C327.882,244.948,327.593,246,326.644,246Z" transform="translate(-310.656 -227.724)"/>
    </g>
  </g>
</svg>
