<?xml version="1.0" encoding="UTF-8"?>
<svg width="12px" height="12px" viewBox="0 0 12 12" version="1.1" xmlns="http://www.w3.org/2000/svg" xmlns:xlink="http://www.w3.org/1999/xlink">
    <title>Icon-iconfont09</title>
    <g id="页面-1" stroke="none" stroke-width="1" fill="none" fill-rule="evenodd">
        <g id="Live2D组件-动作表情备份" transform="translate(-95.000000, -63.000000)" fill="#FFFFFF" fill-rule="nonzero">
            <g id="Icon-iconfont09" transform="translate(95.000000, 63.000000)">
                <path d="M7.63875,10.3404375 C7.0846875,10.5699375 6.4785,10.698 5.8415625,10.698 C3.2469375,10.6981875 1.1431875,8.5948125 1.1431875,6 C1.1431875,5.386125 1.263375,4.8009375 1.4773125,4.2635625 L2.184,4.6966875 C2.359875,4.8045 2.4980625,4.7240625 2.49075,4.518 L2.4165,2.411625 C2.4091875,2.2055625 2.25,2.1080625 2.0630625,2.1950625 L0.151875,3.084375 C-0.034875,3.171375 -0.0440625,3.33075 0.1318125,3.4385625 L0.8004375,3.848625 C0.5180625,4.509375 0.360375,5.236125 0.360375,6 C0.360375,9.027375 2.8145625,11.4811875 5.8411875,11.4811875 C6.6980625,11.4811875 7.5091875,11.284125 8.2314375,10.9336875 C8.2314375,10.9336875 8.595375,10.631625 8.3145,10.3164375 C8.1024375,10.078125 7.63875,10.3404375 7.63875,10.3404375 Z M11.8408125,8.1155625 L11.026875,7.7761875 C11.2179375,7.2189375 11.3229375,6.62175 11.3229375,5.9998125 C11.3229375,2.9724375 8.8685625,0.518625 5.84175,0.518625 C4.9850625,0.518625 4.174125,0.7156875 3.451875,1.066125 C3.451875,1.066125 3.11475,1.31325 3.3406875,1.6284375 C3.534375,1.8995625 4.0445625,1.6595625 4.0445625,1.6595625 C4.59825,1.4300625 5.2048125,1.302 5.8415625,1.302 C8.4365625,1.302 10.5399375,3.4051875 10.5399375,6 C10.5399375,6.51525 10.4548125,7.0100625 10.30125,7.4735625 L9.6181875,7.18875 C9.427875,7.10925 9.3039375,7.210125 9.3429375,7.412625 L9.7415625,9.4824375 C9.7805625,9.6849375 9.9526875,9.75675 10.123875,9.642 L11.8755,8.4684375 C12.0466875,8.3540625 12.031125,8.1950625 11.8408125,8.1155625 Z" id="形状"></path>
            </g>
        </g>
    </g>
</svg>