<?xml version="1.0" encoding="UTF-8"?>
<svg width="10px" height="12px" viewBox="0 0 10 12" version="1.1" xmlns="http://www.w3.org/2000/svg" xmlns:xlink="http://www.w3.org/1999/xlink">
    <title>Icon-suoding</title>
    <g id="页面-1" stroke="none" stroke-width="1" fill="none" fill-rule="evenodd">
        <g id="Live2D组件-动作表情备份" transform="translate(-75.000000, -63.000000)" fill="#FFFFFF" fill-rule="nonzero">
            <g id="Icon-suoding" transform="translate(75.000000, 63.000000)">
                <path d="M9.58,5.36 L8.59333333,5.36 L8.59333333,3.50666667 C8.59333333,2.71333333 8.23333333,1.97333333 7.58,1.42 C6.96,0.886666667 6.12666667,0.6 5.23333333,0.6 C4.34,0.6 3.5,0.9 2.87333333,1.44 C2.56,1.7 2.31333333,2.02 2.14,2.37333333 C1.96,2.73333333 1.86666667,3.12666667 1.86666667,3.53333333 L1.86666667,5.36 L0.933333333,5.36 C0.726666667,5.36 0.553333333,5.53333333 0.553333333,5.74 L0.553333333,11.0066667 C0.553333333,11.2133333 0.726666667,11.3866667 0.933333333,11.3866667 L9.58,11.3866667 C9.78666667,11.3866667 9.96,11.2133333 9.96,11.0066667 L9.96,5.74 C9.96,5.53333333 9.78666667,5.36 9.58,5.36 L9.58,5.36 Z M2.62,3.54 C2.62,2.34 3.78666667,1.36666667 5.22666667,1.36666667 C6.66666667,1.36666667 7.83333333,2.32666667 7.83333333,3.50666667 L7.83333333,5.37333333 L2.62,5.37333333 L2.62,3.54 Z M9.19333333,10.6333333 L1.32,10.6333333 L1.32,6.13333333 L9.19333333,6.13333333 L9.19333333,10.6333333 Z" id="形状"></path>
            </g>
        </g>
    </g>
</svg>