<svg xmlns="http://www.w3.org/2000/svg" width="40" height="40" viewBox="0 0 40 40">
  <defs>
    <style>
      .cls-1 {
        fill: rgba(255,255,255,0);
      }

      .cls-2 {
        fill: #fff;
      }
    </style>
  </defs>
  <g id="重置" transform="translate(-790 -510)">
    <circle id="椭圆形" class="cls-1" cx="20" cy="20" r="20" transform="translate(790 510)"/>
    <path id="路径_247" data-name="路径 247" class="cls-2" d="M90.341,202.64h0a.909.909,0,0,0-.908.91,8.182,8.182,0,0,1-8.169,8.195H81.25a8.182,8.182,0,0,1-.012-16.364h.013a8.132,8.132,0,0,1,4.134,1.119l-.853,1.615a.682.682,0,0,0,.66,1l4.888-.414a.682.682,0,0,0,.536-1.015l-2.415-4.27a.682.682,0,0,0-1.2.017l-.771,1.461a9.94,9.94,0,0,0-4.983-1.328h-.016a10,10,0,0,0,.015,20h.016a10,10,0,0,0,9.985-10.015A.909.909,0,0,0,90.341,202.64Z" transform="translate(728.75 326.934)"/>
  </g>
</svg>
