<?xml version="1.0" encoding="UTF-8"?>
<svg width="40px" height="37px" viewBox="0 0 40 37" version="1.1" xmlns="http://www.w3.org/2000/svg" xmlns:xlink="http://www.w3.org/1999/xlink">
    <title>Icon-upload</title>
    <g id="页面-1" stroke="none" stroke-width="1" fill="none" fill-rule="evenodd">
        <g id="Live2D组件备份-6" transform="translate(-580.000000, -176.000000)" fill="#000000" fill-rule="nonzero">
            <g id="Icon-upload" transform="translate(580.000000, 176.000000)">
                <path d="M20.0026548,36.0666667 L37.4478222,36.0666667 C38.0512595,36.0666667 38.6299774,35.8269422 39.0564585,35.4000342 C39.4829397,34.9731262 39.7221862,34.3941688 39.721483,33.7907319 L39.721483,22.418643 C39.721483,21.1625363 38.7027911,20.1419496 37.4478222,20.1419496 C36.8442495,20.1419492 36.2654362,20.3818991 35.8388948,20.8089384 C35.4123535,21.2359777 35.1730791,21.8150706 35.1737837,22.418643 L35.1737837,31.5144178 L4.82659556,31.5144178 L4.82659556,22.4137126 C4.82659556,21.1583644 3.80828444,20.1377778 2.55217778,20.1377778 C1.29607111,20.1377778 0.278518486,21.1545719 0.278518486,22.4137126 L0.278518486,33.7903526 C0.278518486,35.0466631 1.29624678,36.0654499 2.55255704,36.0662874 L20.0026548,36.0666667 L20.0026548,36.0666667 Z M18.3062281,1.54762667 C18.7385977,1.06805329 19.3542963,0.794669858 20,0.79555341 C20.67584,0.79555341 21.2746904,1.08455111 21.6937719,1.54762667 L28.5170252,9.13091556 C28.8928662,9.54900936 29.1012376,10.0910719 29.1022222,10.6532622 C29.1022222,11.9093689 28.07936,12.9273007 26.8232533,12.9273007 C26.1781072,12.9277484 25.5635347,12.6524122 25.1344119,12.1706785 L22.2740385,8.99324444 L22.2740385,22.7937304 C22.2742398,23.3969394 22.034731,23.9755059 21.6082333,24.4020747 C21.1817356,24.8286435 20.6032091,25.0681482 20,25.0681482 C19.3968218,25.0681482 18.8183137,24.8287076 18.3917668,24.4022318 C17.9652198,23.9757559 17.7255822,23.3972879 17.7255822,22.7941096 L17.7255822,9.00272593 L14.8659674,12.18016 C14.434765,12.661897 13.8187294,12.9370853 13.1721956,12.9367822 C11.9168236,12.9353197 10.8994496,11.9181154 10.8977778,10.6627437 C10.8977778,10.0756504 11.1166104,9.54392889 11.4829748,9.14001778 L18.3062281,1.54762667 L18.3062281,1.54762667 Z" id="形状"></path>
            </g>
        </g>
    </g>
</svg>