<?xml version="1.0" encoding="UTF-8"?>
<svg width="14px" height="14px" viewBox="0 0 14 14" version="1.1" xmlns="http://www.w3.org/2000/svg" xmlns:xlink="http://www.w3.org/1999/xlink">
    <title>编组 2</title>
    <g id="页面-1" stroke="none" stroke-width="1" fill="none" fill-rule="evenodd">
        <g id="钱包-提现" transform="translate(-188.000000, -68.000000)" fill-rule="nonzero">
            <g id="编组" transform="translate(188.000000, 68.000000)">
                <path d="M7,14 C3.13400675,14 0,10.8659932 0,7 C0,3.13400675 3.13400675,0 7,0 C10.8659932,0 14,3.13400675 14,7 C14,10.8659932 10.8659932,14 7,14 Z" id="路径" fill="#EFEFEF"></path>
                <path d="M7.181125,3.5783125 C7.74722337,3.54988558 8.30279868,3.73878118 8.73425,4.106375 C9.1370996,4.46705361 9.35625237,4.98987115 9.331,5.53 C9.34615245,5.96582092 9.21287796,6.39387266 8.953,6.7440625 C8.68916838,7.01846429 8.41003558,7.27773207 8.1169375,7.520625 C7.94436168,7.66342912 7.80201956,7.83923726 7.69825,8.03775 C7.5899978,8.2393119 7.53517256,8.4652401 7.539,8.694 L7.539,8.862875 L6.47325,8.862875 L6.47325,8.694 C6.46036786,8.36728721 6.52860798,8.04247024 6.671875,7.7485625 C6.97394902,7.27623304 7.35433565,6.85885821 7.7966875,6.514375 L7.9655625,6.325375 C8.13900895,6.1222854 8.2372628,5.86568218 8.2438125,5.5986875 C8.25927721,5.29927481 8.15526594,5.00596616 7.954625,4.7831875 C7.72399367,4.57372395 7.41861931,4.46614889 7.107625,4.4848125 C6.7304327,4.44974712 6.36181652,4.61164718 6.1324375,4.913125 C5.93551343,5.21368061 5.84126608,5.56994791 5.8638125,5.9285625 L4.818625,5.9285625 C4.76827824,5.28883174 5.00137065,4.65925898 5.4561789,4.20655633 C5.91098714,3.75385367 6.54163476,3.52368521 7.181125,3.577 L7.181125,3.5783125 Z M7.0030625,9.401875 C7.19884562,9.39304332 7.38969492,9.46482922 7.531125,9.6005 C7.67127149,9.73145382 7.74772408,9.91675957 7.7406875,10.1084375 C7.74249047,10.3036599 7.66328759,10.4908955 7.5219375,10.6255625 C7.38156984,10.7558897 7.19633309,10.8270382 7.0048125,10.8241875 C6.81116717,10.8272655 6.62455937,10.7516435 6.4876875,10.614625 C6.3508713,10.4813921 6.27505691,10.2976332 6.278125,10.1066875 C6.27108842,9.91500957 6.34754101,9.72970382 6.4876875,9.59875 C6.62528411,9.4653396 6.81156327,9.39418032 7.0030625,9.401875 Z" id="形状" fill="#CCCCCC"></path>
            </g>
        </g>
    </g>
</svg>