<svg id="评论" xmlns="http://www.w3.org/2000/svg" width="14" height="14" viewBox="0 0 14 14">
  <defs>
    <style>
      .cls-1 {
        fill: rgba(0,0,0,0);
      }

      .cls-2 {
        fill: #666;
      }
    </style>
  </defs>
  <rect id="矩形_775" data-name="矩形 775" class="cls-1" width="14" height="14"/>
  <path id="路径_69" data-name="路径 69" class="cls-2" d="M86.4,95.218c-.163-.277-.27-.463-.324-.563A6.332,6.332,0,1,1,88.413,97.1l-.3-.175-1.55.423a.475.475,0,0,1-.583-.583l.422-1.548Zm.969.056-.256.94.94-.256a.475.475,0,0,1,.364.048l.48.281a5.379,5.379,0,1,0-1.984-2.08c.055.1.192.339.406.7a.475.475,0,0,1,.05.367Zm2.167-1.051a.475.475,0,1,1,.607-.73,2.375,2.375,0,0,0,3.034,0,.475.475,0,0,1,.607.731,3.325,3.325,0,0,1-4.249,0Z" transform="translate(-84.666 -84.666)"/>
</svg>
