<svg id="编辑" xmlns="http://www.w3.org/2000/svg" width="20" height="20" viewBox="0 0 20 20">
  <defs>
    <style>
      .cls-1 {
        fill: rgba(154,154,154,0);
      }

      .cls-2 {
        fill: #f989ae;
      }
    </style>
  </defs>
  <rect id="矩形_781" data-name="矩形 781" class="cls-1" width="20" height="20"/>
  <path id="路径_74" data-name="路径 74" class="cls-2" d="M64.481,78.435a.606.606,0,0,1,0-1.2H77.829a.606.606,0,0,1,0,1.2ZM75.474,64.314l1.345,1.356a.968.968,0,0,1,0,1.357L68.295,75.6a.949.949,0,0,1-.677.278H65.845a.479.479,0,0,1-.477-.48V73.558a.967.967,0,0,1,.276-.683l8.487-8.561A.948.948,0,0,1,75.474,64.314Zm-8.914,9.34v1.019h1.01l8.248-8.32-1.011-1.029Z" transform="translate(-63.155 -63.235)"/>
</svg>
