<svg id="图层_1" data-name="图层 1" xmlns="http://www.w3.org/2000/svg" width="200" height="200" viewBox="0 0 200 200">
  <circle id="椭圆_1" data-name="椭圆 1" cx="100" cy="100" r="100" fill="#f1f2f3"/>
  <circle id="椭圆_2" data-name="椭圆 2" cx="100" cy="100" r="100" fill="#f1f2f3"/>
  <path id="路径_69" data-name="路径 69" d="M96.3,109.343c-31.894,0-61.282,2.662-84.787,7.136,18.4,28.084,50.549,45.142,85.137,45.172s66.769-16.971,85.223-45.023C158.244,112.062,128.581,109.343,96.3,109.343Z" transform="translate(3.301 38.345)" fill="#c1c1c1"/>
  <ellipse id="椭圆_3" data-name="椭圆 3" cx="33.148" cy="6.572" rx="33.148" ry="6.572" transform="translate(74.182 152.92)" fill="#b1b2b3"/>
  <path id="路径_70" data-name="路径 70" d="M66.6,90.653s-2.691,3.312-16.565,2.714c-3.668-.857-13.311,3.962,2.3,7.722,9.775,2.352,14.622.753,14.622.753s-7.2,34.35,9.775,35.85a3.231,3.231,0,0,0,2.553-1.955c.9-1.874.972-11.7,5.02-13.345s8.475.3,8.475.3,6,3.45,7.13,7.124c0,0,3.6,3.674,5.094,4.2s5.33.678,5.853-3.973-.3-25.65-4.347-34.051a43.573,43.573,0,0,0,9.775-9.631c3.53-5.238,4.652-11.563-3.047-14.553-11.408-3.237-10.66,2.875-4.761,5.589,2.955,1.345,3.755,2.024,2.875,3.634-1.15,2.1-8.688,4.025-8.688,4.025l.345-.966Z" transform="translate(15.876 25.379)" fill="#e5dfd7"/>
  <ellipse id="椭圆_4" data-name="椭圆 4" cx="25.978" cy="25.029" rx="25.978" ry="25.029" transform="translate(71.68 69.138)" fill="#d4ccc1"/>
  <circle id="椭圆_5" data-name="椭圆 5" cx="31.659" cy="31.659" r="31.659" transform="translate(64.905 54.251)" fill="#e5dfd7"/>
  <path id="路径_71" data-name="路径 71" d="M52.028,86.22c-8-7.406-16,7.412-24,0v-19.5c8,7.412,16-7.412,24,0Z" transform="translate(10.972 21.951)" fill="#e5dfd7"/>
  <rect id="矩形_776" data-name="矩形 776" width="3" height="16.502" transform="translate(60 104.607)" fill="#e5dfd7"/>
</svg>
