<svg xmlns="http://www.w3.org/2000/svg" width="15" height="16" viewBox="0 0 15 16">
  <defs>
    <style>
      .cls-1 {
        fill: #666;
      }
    </style>
  </defs>
  <g id="组_297" data-name="组 297" transform="translate(-107.631 -69.982)">
    <path id="路径_104" data-name="路径 104" class="cls-1" d="M108.02,72.421l4.155,4.127a.146.146,0,0,1,.044.1V83.4a1.317,1.317,0,0,0,.646,1.13l2.439,1.451a1.352,1.352,0,0,0,1.348.019,1.317,1.317,0,0,0,.679-1.149V76.683a.146.146,0,0,1,.05-.11l4.742-4.089a1.308,1.308,0,0,0,.372-1.458,1.336,1.336,0,0,0-1.252-.856H108.968a1.337,1.337,0,0,0-1.234.813,1.307,1.307,0,0,0,.286,1.437Zm.843-.828a.145.145,0,0,1-.032-.16.149.149,0,0,1,.137-.09h12.274a.148.148,0,0,1,.139.095.145.145,0,0,1-.041.162L116.6,75.69a1.312,1.312,0,0,0-.457.994v8.169a.146.146,0,0,1-.075.128.15.15,0,0,1-.15,0l-2.439-1.451a.146.146,0,0,1-.071-.126V76.652a1.311,1.311,0,0,0-.389-.93l-4.156-4.128Z" transform="translate(0 -0.189)"/>
    <path id="路径_105" data-name="路径 105" class="cls-1" d="M696.148,520.827h3.115a.623.623,0,1,0,0-1.246h-3.115a.623.623,0,0,0,0,1.246Zm-.03,2.336h3.115a.623.623,0,0,0,0-1.246h-3.115a.623.623,0,0,0,0,1.246Zm-.135,2.336H699.1a.623.623,0,1,0,0-1.246h-3.115a.623.623,0,0,0,0,1.246Z" transform="translate(-577.255 -441.985)"/>
  </g>
</svg>
