<?xml version="1.0" encoding="UTF-8"?>
<svg width="231px" height="42px" viewBox="0 0 231 42" version="1.1" xmlns="http://www.w3.org/2000/svg" xmlns:xlink="http://www.w3.org/1999/xlink">
    <title>编组 15</title>
    <g id="页面-1" stroke="none" stroke-width="1" fill="none" fill-rule="evenodd">
        <g id="编组-15">
            <g id="编组-13">
                <path d="M42,21 C42,32.5978481 32.5978481,42 21,42 C9.4021519,42 0,32.5978481 0,21 C0,9.4021519 9.4021519,0 21,0 C32.5978481,0 42,9.4021519 42,21" id="Fill-1" fill="#FF778F"></path>
                <path d="M35.2950633,28.1699494 C32.0203038,23.8540506 26.8356962,21.0666329 21,21.0666329 C15.1641266,21.0666329 9.97951899,23.8540506 6.70475949,28.1703038" id="Stroke-3" stroke="#FFFFFF" stroke-width="3.5443038"></path>
                <polygon id="Fill-5" fill="#FFFFFF" points="6.66667595 29.0667468 12.2666759 35.0665443 22.4000177 37.4665696 32.1333848 33.1999367 34.6666759 29.5999873 34.6666759 28.1331772 31.3332582 24.6666709 23.1999671 21.4666962 17.0667266 22.1333797 10.2850557 24.6182911"></polygon>
                <path d="M15.3332608,27.5332506 C15.3332608,28.380162 14.6469063,29.0666937 13.7999949,29.0666937 C12.9530835,29.0666937 12.2665519,28.380162 12.2665519,27.5332506 C12.2665519,26.6865165 12.9530835,25.9999848 13.7999949,25.9999848 C14.6469063,25.9999848 15.3332608,26.6865165 15.3332608,27.5332506" id="Fill-7" fill="#FF778F"></path>
                <path d="M29.0667468,27.5332506 C29.0667468,28.380162 28.3802152,29.0666937 27.5333038,29.0666937 C26.6863924,29.0666937 25.9998608,28.380162 25.9998608,27.5332506 C25.9998608,26.6865165 26.6863924,25.9999848 27.5333038,25.9999848 C28.3802152,25.9999848 29.0667468,26.6865165 29.0667468,27.5332506" id="Fill-9" fill="#FF778F"></path>
                <path d="M21.3333241,18.9332987 C20.882843,18.2533241 22.4469443,16.4296025 23.6000835,15.4666152 C24.4365392,14.7682101 26.3079316,13.4777291 26.9333241,13.9999823 C27.5181342,14.4885646 26.9514,16.5107671 25.7334,17.7333747 C24.2743873,19.1977038 21.7832734,19.6125646 21.3333241,18.9332987" id="Fill-11" fill="#FFFFFF"></path>
                <path d="M20.9113924,18.9332987 C21.3423797,18.2533241 19.8461519,16.4296025 18.7433418,15.4666152 C17.9432152,14.7682101 16.1529873,13.4777291 15.5548861,13.9999823 C14.9955949,14.4885646 15.5376962,16.5107671 16.7027089,17.7333747 C18.0984557,19.1977038 20.4809367,19.6125646 20.9113924,18.9332987" id="Fill-13" fill="#FFFFFF"></path>
                <path d="M21,3.0666557 C11.0956203,3.0666557 3.06670886,11.0957443 3.06670886,20.9999468 C3.06670886,30.9043266 11.0956203,38.9334152 21,38.9334152 C30.9043797,38.9334152 38.9332911,30.9043266 38.9332911,20.9999468 C38.9332911,11.0957443 30.9043797,3.0666557 21,3.0666557 M21,6.61095949 C28.9341013,6.61095949 35.3889873,13.0658456 35.3889873,20.9999468 C35.3889873,28.9342253 28.9341013,35.3891114 21,35.3891114 C13.0658987,35.3891114 6.61101266,28.9342253 6.61101266,20.9999468 C6.61101266,13.0658456 13.0658987,6.61095949 21,6.61095949" id="Fill-15" fill="#FFFFFF"></path>
                <path d="M28.1702861,4.83689367 C26.5275013,7.00193165 23.9270456,8.39998228 20.9998051,8.39998228 C18.0727418,8.39998228 15.4721089,7.00193165 13.8295013,4.83707089" id="Fill-17" fill="#FFFFFF"></path>
            </g>
            <g id="编组-14" transform="translate(52.000000, 3.000000)" fill="#FF778F">
                <path d="M13.7405954,26.3816794 C9.18700763,26.3816794 5.49632061,22.6909924 5.49632061,18.1374046 C5.49632061,13.5838168 9.18700763,9.89312977 13.7405954,9.89312977 C18.2941832,9.89312977 21.9848702,13.5838168 21.9848702,18.1374046 C21.9848702,22.6909924 18.2941832,26.3816794 13.7405954,26.3816794 M13.7405954,4.39694656 C6.20010687,4.39694656 0.074610687,10.4757252 0.00288549618,18 C0.000137404581,18.0467176 0.000137404581,18.090687 0.000137404581,18.1374046 C0.000137404581,22.6305344 2.15766412,26.6207634 5.49632061,29.1270229 C7.79372519,30.8555725 10.6489924,31.8778626 13.7405954,31.8778626 C21.3280763,31.8778626 27.4810534,25.7248855 27.4810534,18.1374046 C27.4810534,10.5499237 21.3280763,4.39694656 13.7405954,4.39694656" id="Fill-19"></path>
                <polygon id="Fill-21" opacity="0.75" points="0 35.8625954 5.49618321 35.8625954 5.49618321 18 0 18"></polygon>
                <path d="M148.671893,18.1374046 C148.671893,22.6305344 146.514641,26.6207634 143.17571,29.1270229 L143.17571,18.1374046 C143.17571,13.5838168 139.485023,9.89312977 134.931435,9.89312977 C130.377847,9.89312977 126.68716,13.5838168 126.68716,18.1374046 L126.68716,29.1270229 C123.348504,26.6207634 121.190977,22.6305344 121.190977,18.1374046 C121.190977,18.090687 121.190977,18.0467176 121.193725,18 C121.234947,13.5618321 123.383954,9.62656489 126.68716,7.14778626 C128.984565,5.41923664 131.839832,4.39694656 134.931435,4.39694656 C142.472198,4.39694656 148.597695,10.4757252 148.669145,18 C148.671893,18.0467176 148.671893,18.090687 148.671893,18.1374046" id="Fill-23"></path>
                <path d="M74.4734198,26.3816794 C69.9198321,26.3816794 66.229145,22.6909924 66.229145,18.1374046 C66.229145,13.5838168 69.9198321,9.89312977 74.4734198,9.89312977 C79.0270076,9.89312977 82.7176947,13.5838168 82.7176947,18.1374046 C82.7176947,22.6909924 79.0270076,26.3816794 74.4734198,26.3816794 M88.2111298,18 C88.1396794,10.4757252 82.0141832,4.39694656 74.4734198,4.39694656 C66.8862137,4.39694656 60.7329618,10.5499237 60.7329618,18.1374046 C60.7329618,25.7248855 66.8862137,31.8778626 74.4734198,31.8778626 C77.5650229,31.8778626 80.4205649,30.8555725 82.7176947,29.1270229 C86.056626,26.6207634 88.2138779,22.6305344 88.2138779,18.1374046 C88.2138779,18.090687 88.2138779,18.0467176 88.2111298,18" id="Fill-25"></path>
                <polygon id="Fill-27" opacity="0.75" points="82.7175573 31.740458 88.2137405 31.740458 88.2137405 18 82.7175573 18"></polygon>
                <path d="M165.160443,26.3816794 C160.606855,26.3816794 156.916168,22.6909924 156.916168,18.1374046 C156.916168,13.5838168 160.606855,9.89312977 165.160443,9.89312977 C169.714031,9.89312977 173.404718,13.5838168 173.404718,18.1374046 C173.404718,22.6909924 169.714031,26.3816794 165.160443,26.3816794 M178.898153,18 C178.826702,10.4757252 172.701206,4.39694656 165.160443,4.39694656 C157.573237,4.39694656 151.419985,10.5499237 151.419985,18.1374046 C151.419985,25.7248855 157.573237,31.8778626 165.160443,31.8778626 C168.252046,31.8778626 171.107588,30.8555725 173.404718,29.1270229 C176.743649,26.6207634 178.900901,22.6305344 178.900901,18.1374046 C178.900901,18.090687 178.900901,18.0467176 178.898153,18" id="Fill-29"></path>
                <polygon id="Fill-31" opacity="0.75" points="173.40458 31.740458 178.900763 31.740458 178.900763 18 173.40458 18"></polygon>
                <polygon id="Fill-33" opacity="0.75" points="121.19084 31.740458 126.687023 31.740458 126.687023 0 121.19084 0"></polygon>
                <polygon id="Fill-35" opacity="0.75" points="143.175573 31.740458 148.671756 31.740458 148.671756 18 143.175573 18"></polygon>
                <path d="M57.4325588,20.8854962 C57.6166809,19.9978626 57.710116,19.08 57.710116,18.1374046 C57.710116,10.5499237 51.5571389,4.39694656 43.969658,4.39694656 C36.3821771,4.39694656 30.2292,10.5499237 30.2292,18.1374046 C30.2292,25.7248855 36.3821771,31.8778626 43.969658,31.8778626 C49.6032458,31.8778626 54.4453832,28.4867176 56.5641618,23.6335878 L50.1116427,23.6335878 C48.6029405,25.320916 46.4099634,26.3816794 43.969658,26.3816794 C39.4157954,26.3816794 35.7253832,22.6909924 35.7253832,18.1374046 C35.7253832,13.5838168 39.4157954,9.89312977 43.969658,9.89312977 C48.5232458,9.89312977 52.2139328,13.5838168 52.2139328,18.1374046 C52.2139328,19.1019847 52.0490473,20.0253435 51.7412611,20.8854962 L57.4325588,20.8854962 Z" id="Fill-37"></path>
                <path d="M49.4657863,18.1374046 C49.4657863,19.1377099 49.1967481,20.0775573 48.7268244,20.8854962 L39.2126565,20.8854962 C38.7427328,20.0775573 38.4734198,19.1377099 38.4734198,18.1374046 C38.4734198,17.1370992 38.7427328,16.1972519 39.2126565,15.389313 L48.7268244,15.389313 C49.1967481,16.1972519 49.4657863,17.1370992 49.4657863,18.1374046" id="Fill-39" opacity="0.75"></path>
                <path d="M140.427618,18.2748092 C140.427618,19.2751145 140.15858,20.2149618 139.688656,21.0229008 L130.174489,21.0229008 C129.704565,20.2149618 129.435252,19.2751145 129.435252,18.2748092 C129.435252,17.2745038 129.704565,16.3346565 130.174489,15.5267176 L139.688656,15.5267176 C140.15858,16.3346565 140.427618,17.2745038 140.427618,18.2748092" id="Fill-41" opacity="0.75"></path>
                <path d="M112.336681,21.0229008 L118.027979,21.0229008 C116.755612,27.2940458 111.209689,32.0152672 104.565078,32.0152672 C96.9775969,32.0152672 90.8246198,25.8622901 90.8246198,18.2748092 C90.8246198,10.6873282 96.9775969,4.53435115 104.565078,4.53435115 C111.209689,4.53435115 116.755612,9.25557252 118.027979,15.5267176 L112.336681,15.5267176 C111.207215,12.3224427 108.154085,10.0305344 104.565078,10.0305344 C100.011215,10.0305344 96.3208031,13.7212214 96.3208031,18.2748092 C96.3208031,22.8283969 100.011215,26.519084 104.565078,26.519084 C108.154085,26.519084 111.207215,24.2271756 112.336681,21.0229008" id="Fill-43"></path>
            </g>
        </g>
    </g>
</svg>
