<svg xmlns="http://www.w3.org/2000/svg" width="14" height="14" viewBox="0 0 14 14">
  <g id="点赞0" transform="translate(-440 -3153)">
    <rect id="矩形_762" data-name="矩形 762" width="14" height="14" transform="translate(440 3153)" fill="none"/>
    <g id="组_183" data-name="组 183" transform="translate(442 3154)">
      <path id="路径_47" data-name="路径 47" d="M239.959,117.844h-3.97a1.434,1.434,0,0,1-1.323-1.524v-6.29a1.677,1.677,0,0,1,.457-1.174l.518-.5q1.5-1.415,3.005-2.818a.943.943,0,0,1,1.129-.033,1.281,1.281,0,0,1,.513,1.158l-.209,2.344.065.009a4.533,4.533,0,0,1,.085,8.816l-.085.009A1.164,1.164,0,0,1,239.959,117.844Z" transform="translate(-232.72 -105.337)" fill="#ff6398"/>
      <path id="路径_48" data-name="路径 48" d="M64.73,390.911m-.365,0h0q-.365,0-.365-.417V383.82q0-.417.365-.417h0q.365,0,.365.417v6.673Q64.73,390.911,64.365,390.911Z" transform="translate(-64 -378.681)" fill="#ff6398"/>
    </g>
  </g>
</svg>
