<svg xmlns="http://www.w3.org/2000/svg" width="14" height="14" viewBox="0 0 14 14">
  <defs>
    <style>
      .cls-1 {
        fill: none;
      }

      .cls-2 {
        fill: #999;
      }
    </style>
  </defs>
  <g id="点赞" transform="translate(-774 -1363)">
    <rect id="矩形_1114" data-name="矩形 1114" class="cls-1" width="14" height="14" transform="translate(774 1363)"/>
    <path id="路径_265" data-name="路径 265" class="cls-2" d="M84.605,84.962h.758a2.254,2.254,0,0,0,2.275-2.4V81.234a.538.538,0,0,1,.032-.221,1.286,1.286,0,0,1,1.485-1.043l.19.032a1.858,1.858,0,0,1,1.422,1.074,2.911,2.911,0,0,1,.253,1.706l-.126.979v.032a.149.149,0,0,0,.158.158h3.317a1.135,1.135,0,0,1,.948,1.264l-1.106,5.5a1.1,1.1,0,0,1-1.106.948H84.858a.966.966,0,0,1-.948-.916l-.253-4.8a.913.913,0,0,1,.916-.979h.032Zm2.18,5.75H93.1c.063,0,.158-.063.158-.126l1.106-5.466a.213.213,0,0,0-.126-.19H91.051a1.119,1.119,0,0,1-1.106-1.106v-.158l.126-.979a1.849,1.849,0,0,0-.19-1.169.958.958,0,0,0-.727-.569l-.19-.032a.328.328,0,0,0-.379.253V82.53a3.261,3.261,0,0,1-2.148,3.191l.348,4.992Zm-1.548-4.834h-.316a.317.317,0,0,0-.316.316l.126,4.2a.34.34,0,0,0,.316.316h.474a.3.3,0,0,0,.316-.316v-.032l-.284-4.171a.368.368,0,0,0-.316-.316Z" transform="translate(691.511 1284.217)"/>
  </g>
</svg>
