<svg id="价格" xmlns="http://www.w3.org/2000/svg" width="19" height="19" viewBox="0 0 19 19">
  <defs>
    <style>
      .cls-1 {
        fill: rgba(196,196,196,0);
      }

      .cls-2 {
        fill: #333;
        stroke: #fff;
        stroke-width: 0.2px;
      }
    </style>
  </defs>
  <rect id="矩形_918" data-name="矩形 918" class="cls-1" width="19" height="19"/>
  <path id="路径_166" data-name="路径 166" class="cls-2" d="M113.013,109.329a7.458,7.458,0,0,1-.2,2.9,7.705,7.705,0,0,1-1.282,2.622,7.712,7.712,0,0,1-4.783,2.911,7.336,7.336,0,0,1-1.236.1,7.417,7.417,0,0,1-1.34-.127.556.556,0,0,1-.37-.231.569.569,0,0,1,.139-.786.619.619,0,0,1,.427-.092,6.094,6.094,0,0,0,2.195.012,6.208,6.208,0,0,0,2.114-.774l.035-.023h.012a6.507,6.507,0,0,0,3-3.916,6.331,6.331,0,0,0,.173-2.461,6.247,6.247,0,0,0-.82-2.414,6.712,6.712,0,0,0-1.525-1.791h-.092v-.035a.641.641,0,0,1-.4-.7v-.058a.665.665,0,0,1,.312-.416.6.6,0,0,1,.439-.069l2.172.416a.65.65,0,0,1,.5.739v.058a.661.661,0,0,1-.624.508.473.473,0,0,1-.127-.012l-.243-.046a7.382,7.382,0,0,1,.578.855,7.6,7.6,0,0,1,.947,2.83Zm-5.557,1.329a.646.646,0,0,1,.612.612c0,.243-.22.612-.52.612H106.1v1.34c0,.289-.37.52-.612.52a.566.566,0,0,1-.612-.52v-1.329h-1.456c-.3,0-.52-.37-.52-.612s.219-.612.52-.612h1.444v-.635h-1.444c-.289,0-.52-.37-.52-.612s.219-.612.52-.612h.786l-1.074-.878a.626.626,0,0,1-.185-.427.618.618,0,0,1,1.051-.427l1.479,1.213,1.4-1.305a.6.6,0,1,1,.855.855l-.012.012-1.1.947h.82c.2,0,.52.081.52.612a.574.574,0,0,1-.52.612h-1.352v.635h1.363Zm-1.617-6.827a6.523,6.523,0,0,0-3.558.843,6.381,6.381,0,0,0-1.941,1.7,6.486,6.486,0,0,0-1.1,2.23,6.348,6.348,0,0,0,.647,4.875.036.036,0,0,1,.012.023,5.368,5.368,0,0,0,1.063,1.375l.1.023a.64.64,0,0,1,.5.739v.058a.661.661,0,0,1-.624.508.473.473,0,0,1-.127-.012l-2.183-.416a.65.65,0,0,1-.5-.739V115a.639.639,0,0,1,.254-.416.647.647,0,0,1,.5-.1l.312.058c-.1-.162-.208-.335-.3-.508a7.524,7.524,0,0,1-.762-5.73,7.5,7.5,0,0,1,1.282-2.622,7.7,7.7,0,0,1,2.276-2,7.617,7.617,0,0,1,4.182-1.005.568.568,0,0,1,.543.589.555.555,0,0,1-.578.566Z" transform="translate(-95.975 -100.766)"/>
</svg>
