<svg id="点赞备份_3" data-name="点赞备份 3" xmlns="http://www.w3.org/2000/svg" width="14" height="14" viewBox="0 0 14 14">
  <rect id="矩形" width="14" height="14" opacity="0"/>
  <g id="Icon-fenxiang" transform="translate(0.333 0.333)">
    <path id="形状" d="M0,6.667A6.667,6.667,0,0,1,6.667,0a.567.567,0,0,1,0,1.134A5.533,5.533,0,1,0,12.2,6.667a.566.566,0,1,1,1.132,0A6.667,6.667,0,0,1,0,6.667Zm5.819.8C5.819,4.354,6.954,3,9.549,3h.718l-.17-.17a.557.557,0,0,1,.792-.783l.976.976a.753.753,0,0,1,0,1.066l-.976.976a.557.557,0,0,1-.787-.787l.165-.166H9.549c-1.954,0-2.618.832-2.618,3.349a.556.556,0,0,1-1.113,0Z" transform="translate(0)" fill="#666"/>
  </g>
</svg>
