<?xml version="1.0" encoding="UTF-8"?>
<svg width="14px" height="14px" viewBox="0 0 14 14" version="1.1" xmlns="http://www.w3.org/2000/svg" xmlns:xlink="http://www.w3.org/1999/xlink">
    <title>点赞</title>
    <g id="页面-1" stroke="none" stroke-width="1" fill="none" fill-rule="evenodd">
        <g id="首页-已登录" transform="translate(-380.000000, -2626.000000)" fill-rule="nonzero">
            <g id="1" transform="translate(360.000000, 2341.000000)">
                <g id="编组备份-5">
                    <g id="点赞" transform="translate(20.000000, 285.000000)">
                        <rect id="矩形" fill="#000000" opacity="0" x="0" y="0" width="14" height="14"></rect>
                        <path d="M7.00719521,11.9764613 C6.92076889,11.9764613 6.83437057,11.9532239 6.75771512,11.9067211 C3.20191739,9.74981468 1.3882245,7.75892965 1.21321613,5.82025881 C1.21191403,5.80587735 1.21128409,5.79144393 1.21128409,5.77700365 L1.21128409,5.25122252 C1.21128409,5.23638419 1.21198427,5.22157383 1.2133561,5.2067915 C1.38606877,3.34483205 2.8018422,2.38400765 4.04417505,2.2792434 C4.22525876,2.26381713 4.4009671,2.25595 4.56595262,2.25595 C5.74896011,2.25595 6.43549922,2.66991163 7.00719521,3.19415292 C7.57891917,2.66988363 8.26545828,2.25595 9.44838177,2.25595 C9.61331129,2.25595 9.78901962,2.26381713 9.97066328,2.27932738 C11.2123802,2.38403565 12.6281536,3.34480405 12.8012863,5.20673552 C12.8026581,5.22154586 12.803358,5.23638422 12.803358,5.25127852 L12.803358,5.77705962 C12.803358,5.79150601 12.8027421,5.8059244 12.8014262,5.82031478 C12.6264178,7.75878967 10.812669,9.74967468 7.25667526,11.9067771 C7.18145218,11.9523819 7.09516285,11.9764613 7.00719521,11.9764613 L7.00719521,11.9764613 Z M2.17339659,5.75438217 C2.32581152,7.29832524 3.95150544,9.03917028 7.00719521,10.9311704 C10.0630249,9.03900228 11.6888309,7.29815727 11.8412178,5.75438217 L11.8412178,5.27440392 C11.7107244,3.97747717 10.7403251,3.30975196 9.88936039,3.23799602 C9.73431375,3.2247535 9.58612635,3.21809024 9.44838177,3.21809024 C8.38738461,3.21809024 7.92969187,3.60803057 7.35245252,4.20287993 C7.26184453,4.29624729 7.13728603,4.34893882 7.00718119,4.34893882 C6.87707635,4.34893882 6.75251786,4.29624729 6.66190987,4.20287993 C6.08469851,3.60803057 5.62692178,3.21809024 4.56592462,3.21809024 C4.42812404,3.21809024 4.27990866,3.2247535 4.12544995,3.23794002 C3.27392532,3.30975199 2.30358198,3.9775332 2.17339659,5.27434795 L2.17339659,5.75438217 L2.17339659,5.75438217 Z" id="形状" fill="#666666"></path>
                    </g>
                </g>
            </g>
        </g>
    </g>
</svg>