<?xml version="1.0" encoding="UTF-8"?>
<svg width="14px" height="14px" viewBox="0 0 14 14" version="1.1" xmlns="http://www.w3.org/2000/svg" xmlns:xlink="http://www.w3.org/1999/xlink">
    <title>点赞备份 2</title>
    <g id="页面-1" stroke="none" stroke-width="1" fill="none" fill-rule="evenodd">
        <g id="首页-未登录" transform="translate(-927.000000, -2840.000000)" fill-rule="nonzero">
            <g id="1备份-13" transform="translate(360.000000, 2535.000000)">
                <g id="编组备份-7" transform="translate(488.000000, 0.000000)">
                    <g id="点赞备份-2" transform="translate(79.000000, 305.000000)">
                        <rect id="矩形" fill="#000000" opacity="0" x="0" y="0" width="14" height="14"></rect>
                        <path d="M7.28986606,1.15398633 L7.28986606,1.96554102 C7.30000637,1.96554102 7.31861323,1.97400757 7.32706756,1.9807637 C7.33213771,1.99090401 7.33552189,2.00104432 7.34059204,2.00951087 L8.72529418,4.82286057 C8.84025842,5.05616101 9.05836062,5.21845484 9.31365209,5.26413511 L12.4076685,5.80515121 C12.4178088,5.8068494 12.4296595,5.8085476 12.4397876,5.81022136 C12.4448578,5.81022136 12.4533121,5.81698972 12.4549981,5.82207209 C12.4583822,5.83727034 12.4634524,5.854179 12.4685348,5.86940168 C12.4719067,5.87954199 12.4820593,5.90998736 12.4533121,5.94380468 L10.2401588,8.03014299 C10.0389653,8.21951023 9.94767805,8.49845429 9.99839182,8.76898066 L10.5614112,11.7987344 L10.5614112,11.8004203 C10.5664813,11.8308657 10.5411183,11.8562165 10.5259079,11.868055 C10.5225115,11.8714392 10.5191395,11.8731251 10.5157676,11.8764971 C10.5022309,11.8731251 10.4853222,11.8663568 10.4667276,11.8579269 L7.65337786,10.4512337 C7.53841362,10.3937516 7.41498283,10.3650166 7.28987827,10.3650166 C7.16644748,10.3650166 7.04304113,10.3937516 6.92975065,10.4495477 L4.09442214,11.8562043 C4.08596781,11.8595884 4.07921167,11.8646586 4.07075734,11.8680428 C4.06905915,11.8680428 4.06229079,11.8714269 4.0521627,11.8714269 C4.04202239,11.8714269 4.03356806,11.869741 4.03186986,11.8680428 C4.013263,11.8528323 3.99806476,11.8223869 3.99636656,11.8071887 L3.99636656,11.8054783 L4.58135251,8.7740386 C4.63376448,8.50014027 4.54246503,8.2177876 4.33788733,8.0267466 L2.12474627,5.96575906 C2.10445343,5.94208205 2.0943009,5.89643844 2.0959991,5.86938946 C2.10445343,5.8507826 2.11290776,5.84234049 2.11629194,5.83896853 C2.11797791,5.83725812 2.12136209,5.83558436 2.1315024,5.83388616 C2.14672508,5.83218796 2.16194777,5.83050198 2.17547225,5.82713003 L5.26947642,5.26412289 C5.52306969,5.21846706 5.73948591,5.05447503 5.85276417,4.82452211 L7.2357559,2.01456881 C7.25436275,1.97906551 7.28310992,1.967227 7.28816786,1.967227 L7.28816786,1.15398633 M7.28987827,1.15398633 C6.96526617,1.15398633 6.66262067,1.34842372 6.51046714,1.65106923 L5.12576501,4.46439449 L2.03174863,5.02740162 C1.68514549,5.07135926 1.42646984,5.30805609 1.31826173,5.63268041 C1.23203244,5.9353137 1.31826173,6.30389565 1.55665676,6.54227847 L3.78500828,8.62186064 L3.20002233,11.6516143 C3.13577186,11.9762509 3.2862394,12.322854 3.54662547,12.5172792 C3.69201064,12.6271733 3.87292355,12.6812712 4.05215048,12.6812712 C4.19247772,12.6812712 4.33111897,12.6474661 4.45453755,12.5815174 L7.28985384,11.1748487 L10.1032035,12.5815174 C10.2334027,12.6457801 10.383858,12.6897256 10.5140449,12.6897256 C10.7084945,12.6897256 10.8826147,12.6254751 11.0111278,12.5172792 C11.2714772,12.322854 11.421957,11.9982297 11.3577065,11.6516388 L10.7947116,8.62188508 L13.0230754,6.52198563 C13.2614704,6.2835906 13.3476875,5.93702411 13.2394794,5.61239979 C13.1532501,5.28777547 12.8709096,5.04938044 12.5462853,5.00710878 L9.45228113,4.46609268 L8.06757899,1.65274299 C7.93909026,1.35009749 7.61447816,1.15398633 7.28985384,1.15398633 L7.28987827,1.15398633 Z" id="形状" fill="#666666"></path>
                    </g>
                </g>
            </g>
        </g>
    </g>
</svg>