<svg xmlns="http://www.w3.org/2000/svg" width="20" height="20" viewBox="0 0 20 20">
  <defs>
    <style>
      .cls-1 {
        fill: none;
      }

      .cls-2 {
        fill: #333;
      }
    </style>
  </defs>
  <g id="组_773" data-name="组 773" transform="translate(-289 -479)">
    <rect id="矩形_1095" data-name="矩形 1095" class="cls-1" width="20" height="20" transform="translate(289 479)"/>
    <g id="组_772" data-name="组 772" transform="translate(289.668 413.952)">
      <path id="路径_249" data-name="路径 249" class="cls-2" d="M13.656,238.864a1.025,1.025,0,0,1,1.017,1.019v2.883h2.257a.48.48,0,0,1,.473.473V245.2a.479.479,0,0,1-.473.473H14.674v2.883a1.025,1.025,0,0,1-1.017,1.019H2.181a1.025,1.025,0,0,1-1.017-1.019v-8.676a1.025,1.025,0,0,1,1.017-1.019H13.656m0-1.164H2.181A2.188,2.188,0,0,0,0,239.883v8.676a2.188,2.188,0,0,0,2.181,2.183H13.655a2.188,2.188,0,0,0,2.181-2.183V246.84h1.093a1.641,1.641,0,0,0,1.635-1.637v-1.964a1.641,1.641,0,0,0-1.635-1.637H15.836v-1.719A2.187,2.187,0,0,0,13.656,237.7Z" transform="translate(0 -167.619)"/>
      <path id="路径_250" data-name="路径 250" class="cls-2" d="M597.117,454.064a.48.48,0,0,1,.473.473V456.5a.479.479,0,0,1-.473.473h-4.582a.479.479,0,0,1-.473-.473v-1.964a.479.479,0,0,1,.473-.473h4.582m0-1.164h-4.582a1.641,1.641,0,0,0-1.635,1.637V456.5a1.641,1.641,0,0,0,1.635,1.637h4.58a1.641,1.641,0,0,0,1.635-1.637v-1.964A1.638,1.638,0,0,0,597.117,452.9Z" transform="translate(-580.186 -378.917)"/>
      <path id="路径_251" data-name="路径 251" class="cls-2" d="M128.3,76.039a.582.582,0,1,0,.582.582A.583.583,0,0,0,128.3,76.039Zm-12.041-4.823-.355-1.108,9.577-3.08a.854.854,0,0,1,1.075.546l.892,2.712-1.106.363-.772-2.35a.073.073,0,0,0-.091-.047Z" transform="translate(-113.799)"/>
    </g>
  </g>
</svg>
