<svg id="我的钱包1" xmlns="http://www.w3.org/2000/svg" width="20" height="20" viewBox="0 0 20 20">
  <rect id="矩形" width="20" height="20" fill="#ff6398" opacity="0"/>
  <path id="减去_2" data-name="减去 2" d="M3677.528,11009.556a9.028,9.028,0,1,1,9.027-9.029A9.038,9.038,0,0,1,3677.528,11009.556Zm0-16.8a7.775,7.775,0,1,0,7.775,7.775A7.784,7.784,0,0,0,3677.528,10992.754Z" transform="translate(-3667.564 -10990.48)" fill="#ff6398" stroke="rgba(0,0,0,0)" stroke-miterlimit="10" stroke-width="1"/>
  <path id="路径" d="M1.934,3.088a.625.625,0,0,1-.511-.263L.116.989A.626.626,0,1,1,1.136.263L2.444,2.1a.626.626,0,0,1-.509.989Z" transform="translate(6.876 5.038)" fill="#ff6398"/>
  <path id="路径-2" data-name="路径" d="M6.611,1.252H.626A.626.626,0,0,1,.626,0H6.611a.626.626,0,0,1,0,1.252Z" transform="translate(6.346 8.665)" fill="#ff6398"/>
  <path id="路径-3" data-name="路径" d="M6.611,1.252H.626A.626.626,0,0,1,.626,0H6.611a.626.626,0,0,1,0,1.252Z" transform="translate(6.346 10.899)" fill="#ff6398"/>
  <path id="路径-4" data-name="路径" d="M.626,4.218a.626.626,0,0,1-.509-.989L2.228.263A.626.626,0,1,1,3.248.99L1.136,3.955A.625.625,0,0,1,.626,4.218Z" transform="translate(9.752 5.566)" fill="#ff6398"/>
  <path id="路径-5" data-name="路径" d="M.626,6.081A.626.626,0,0,1,0,5.455V.626a.626.626,0,0,1,1.252,0V5.455a.626.626,0,0,1-.626.626Z" transform="translate(9.357 8.976)" fill="#ff6398"/>
</svg>
