<svg id="点赞" xmlns="http://www.w3.org/2000/svg" width="16" height="16" viewBox="0 0 16 16">
  <defs>
    <style>
      .cls-1 {
        fill: rgba(168,88,88,0);
      }

      .cls-2 {
        fill: #666;
      }
    </style>
  </defs>
  <rect id="矩形_762" data-name="矩形 762" class="cls-1" width="16" height="16"/>
  <g id="组_183" data-name="组 183" transform="translate(0.715 0.986)">
    <path id="路径_47" data-name="路径 47" class="cls-2" d="M241.582,119.631H236.4a1.735,1.735,0,0,1-1.729-1.742V110.7a1.78,1.78,0,0,1,.6-1.341l.677-.568q1.958-1.617,3.927-3.221a1.375,1.375,0,0,1,1.475-.038,1.4,1.4,0,0,1,.67,1.324l-.273,2.679.085.01a5.065,5.065,0,0,1,.111,10.075l-.112.01A1.738,1.738,0,0,1,241.582,119.631Zm-5.879-1.742a.694.694,0,0,0,.692.7h5.218l.106,0-.041.006.163-.016a4.019,4.019,0,0,0-.1-7.993l-.154-.018a1.044,1.044,0,0,1-.878-1.14l.272-2.667a.349.349,0,0,0-.154-.322.344.344,0,0,0-.354-.016l-3.645,2.988-.385.319-.5.422a.637.637,0,0,0-.134.16.753.753,0,0,0-.1.365l0,.07v7.143Z" transform="translate(-232.124 -105.337)"/>
    <path id="路径_48" data-name="路径 48" class="cls-2" d="M64.953,391.983m-.477,0h0a.421.421,0,0,1-.477-.477V383.88a.421.421,0,0,1,.477-.477h0a.421.421,0,0,1,.477.477v7.627A.421.421,0,0,1,64.477,391.983Z" transform="translate(-64 -378.006)"/>
  </g>
</svg>
