<svg xmlns="http://www.w3.org/2000/svg" width="24" height="24" viewBox="0 0 24 24">
  <g id="组_900" data-name="组 900" transform="translate(-390 -125)">
    <g id="组_898" data-name="组 898">
      <g id="购物车" transform="translate(390 125)">
        <rect id="矩形_751" data-name="矩形 751" width="24" height="24" fill="rgba(15,15,15,0)"/>
      </g>
    </g>
    <path id="路径_374" data-name="路径 374" d="M62.42,20.46c-1.92-1.38-3.54-3.06-3.54-7.02V3.54A70.26,70.26,0,0,0,69.44,0L80,3.54V14.28c0,3.96-1.8,5.04-2.7,5.64A59.513,59.513,0,0,1,69.62,24,39.53,39.53,0,0,1,62.42,20.46Zm1.62-1.8a32.512,32.512,0,0,0,5.64,2.76,56.967,56.967,0,0,0,6-3.18c.72-.48,2.1-1.32,2.1-4.38V5.46L69.56,2.7a58.276,58.276,0,0,1-8.28,2.7v7.74A5.96,5.96,0,0,0,64.04,18.66Zm1.62-11.4a.8.8,0,0,1,.42-1.08.763.763,0,0,1,1.14.3l2.28,3.6,2.34-3.6a.824.824,0,0,1,1.08-.36.841.841,0,0,1,.42,1.14L71,10.8h1.92a.833.833,0,0,1,.3.6.738.738,0,0,1-.3.6H70.4v1.02h2.52a.833.833,0,0,1,.3.6.738.738,0,0,1-.3.6H70.4V16.8c.06.72-.24,1.14-.9,1.14s-1.02-.36-.96-1.14V14.22H66.02a.66.66,0,0,1-.36-.6.6.6,0,0,1,.36-.6h2.52V12H66.08a.73.73,0,0,1-.36-.6.66.66,0,0,1,.36-.6H68L65.66,7.26Z" transform="translate(332.4 125)" fill="#2c2c2c"/>
  </g>
</svg>
