<svg xmlns="http://www.w3.org/2000/svg" width="308.998" height="102" viewBox="0 0 308.998 102">
  <defs>
    <style>
      .cls-1 {
        fill: #fff2f2;
      }
    </style>
  </defs>
  <path id="减去_23" data-name="减去 23" class="cls-1" d="M9264-752H8963a4,4,0,0,1-4-4v-32.032A15.029,15.029,0,0,0,8973-803a15.029,15.029,0,0,0-14-14.966V-850a4,4,0,0,1,4-4h301a4,4,0,0,1,4,4v32a15.015,15.015,0,0,0-15,15,15.017,15.017,0,0,0,15,15v32A4,4,0,0,1,9264-752Z" transform="translate(-8959.001 854.001)"/>
</svg>
