<svg xmlns="http://www.w3.org/2000/svg" width="20" height="20" viewBox="0 0 20 20">
  <g id="组_899" data-name="组 899" transform="translate(-390 -716)">
    <g id="购物车" transform="translate(390 716)">
      <rect id="矩形_751" data-name="矩形 751" width="20" height="20" fill="rgba(15,15,15,0)"/>
    </g>
    <g id="组_909" data-name="组 909" transform="translate(323.35 538.998)">
      <path id="路径_378" data-name="路径 378" d="M85.418,183.184a2.988,2.988,0,0,0,1.231-2.3v-2.105a1.765,1.765,0,0,0-1.762-1.762H72.533a.312.312,0,0,0-.241,0H68.623a1.765,1.765,0,0,0-1.762,1.762v2.111a3,3,0,0,0,1.22,2.294,1.543,1.543,0,0,1,.005,2.471,3.005,3.005,0,0,0-1.226,2.3v2.169a1.765,1.765,0,0,0,1.762,1.762H84.887a1.765,1.765,0,0,0,1.762-1.762v-2.163a2.986,2.986,0,0,0-1.226-2.291,1.542,1.542,0,0,1-.005-2.489Zm-.68-1.023a2.768,2.768,0,0,0,0,4.531,1.791,1.791,0,0,1,.682,1.272v2.163a.534.534,0,0,1-.534.534H68.623a.534.534,0,0,1-.534-.534v-2.169a1.806,1.806,0,0,1,.681-1.279,2.769,2.769,0,0,0,0-4.507,1.8,1.8,0,0,1-.681-1.278v-2.111a.534.534,0,0,1,.534-.534h3.17v.6a.619.619,0,1,0,1.238,0v-.6H84.887a.534.534,0,0,1,.534.534v2.105A1.791,1.791,0,0,1,84.739,182.161Z" transform="translate(0 3)"/>
      <path id="路径_379" data-name="路径 379" d="M289.383,344.118a.619.619,0,0,0-.619.619v1.238a.619.619,0,0,0,1.238,0v-1.238A.619.619,0,0,0,289.383,344.118Z" transform="translate(-216.97 -160.406)"/>
      <path id="路径_380" data-name="路径 380" d="M289.383,511.239a.619.619,0,0,0-.619.619V513.1a.619.619,0,1,0,1.238,0v-1.238A.619.619,0,0,0,289.383,511.239Z" transform="translate(-216.97 -323.813)"/>
      <path id="路径_381" data-name="路径 381" d="M289.383,678.358a.619.619,0,0,0-.619.619v1.238a.619.619,0,0,0,1.238,0v-1.238A.619.619,0,0,0,289.383,678.358Z" transform="translate(-216.97 -487.217)"/>
    </g>
  </g>
</svg>
