<svg xmlns="http://www.w3.org/2000/svg" width="15" height="14" viewBox="0 0 15 14">
  <path id="形状" d="M1.125,14A1.135,1.135,0,0,1,0,12.857V2.2A1.134,1.134,0,0,1,1.125,1.053H3.75V2.576H2.25a.756.756,0,0,0-.75.761v8.378a.756.756,0,0,0,.75.761h10.5a.756.756,0,0,0,.75-.761V3.337a.756.756,0,0,0-.75-.761h-1.5V1.053h2.625A1.134,1.134,0,0,1,15,2.2V12.857A1.135,1.135,0,0,1,13.875,14Zm6.188-3.338a.567.567,0,0,1-.562-.571V3.019L4.473,5.332l-1.1-1.115L7.528,0l.279.284.1-.1,4.012,4.074-1.06,1.077L8.25,2.695v7.4a.567.567,0,0,1-.562.571Z" transform="translate(15 14) rotate(180)" fill="#40a9ff"/>
</svg>
