<svg xmlns="http://www.w3.org/2000/svg" xmlns:xlink="http://www.w3.org/1999/xlink" width="192" height="192" viewBox="0 0 192 192">
  <defs>
    <filter id="椭圆_1" x="0" y="0" width="192" height="192" filterUnits="userSpaceOnUse">
      <feOffset dy="3" input="SourceAlpha"/>
      <feGaussianBlur stdDeviation="3" result="blur"/>
      <feFlood flood-opacity="0.322"/>
      <feComposite operator="in" in2="blur"/>
      <feComposite in="SourceGraphic"/>
    </filter>
    <filter id="路径_1" x="39.19" y="61.439" width="113.176" height="69.46" filterUnits="userSpaceOnUse">
      <feOffset dy="3" input="SourceAlpha"/>
      <feGaussianBlur stdDeviation="3" result="blur-2"/>
      <feFlood flood-opacity="0.322"/>
      <feComposite operator="in" in2="blur-2"/>
      <feComposite in="SourceGraphic"/>
    </filter>
  </defs>
  <g id="组_11" data-name="组 11" transform="translate(-1543 -871)">
    <g transform="matrix(1, 0, 0, 1, 1543, 871)" filter="url(#椭圆_1)">
      <g id="椭圆_1-2" data-name="椭圆 1" transform="translate(9 6)" fill="none" stroke="#fff" stroke-width="6">
        <circle cx="87" cy="87" r="87" stroke="none"/>
        <circle cx="87" cy="87" r="84" fill="none"/>
      </g>
    </g>
    <g transform="matrix(1, 0, 0, 1, 1543, 871)" filter="url(#路径_1)">
      <path id="路径_1-2" data-name="路径 1" d="M93.021,268.9,61,248.917c-4.08-2.546-7.418-.581-7.418,4.369v11.248H9.555a9.005,9.005,0,0,0,0,18H53.582v11.248c0,4.95,3.338,6.915,7.418,4.369l32.021-19.985c4.08-2.546,4.08-6.714,0-9.26Z" transform="translate(47.28 -180.36)" fill="#fff"/>
    </g>
  </g>
</svg>
