<svg xmlns="http://www.w3.org/2000/svg" width="30" height="30" viewBox="0 0 30 30">
  <defs>
    <style>
      .cls-1, .cls-3 {
        fill: none;
      }

      .cls-2 {
        fill: #333;
      }

      .cls-3 {
        stroke: #333;
        stroke-linecap: round;
        stroke-linejoin: round;
        fill-rule: evenodd;
      }
    </style>
  </defs>
  <g id="_2D" data-name="2D" transform="translate(-360 -300)">
    <rect id="矩形_1148" data-name="矩形 1148" class="cls-1" width="30" height="30" transform="translate(360 300)"/>
    <g id="Live2D" transform="translate(363.281 300)">
      <path id="路径_299" data-name="路径 299" class="cls-2" d="M31.478,5.259c-.195-.18-.4-.375-.645-.6-.675-.614-1.334-1.229-1.979-1.813a1.217,1.217,0,0,1-.15-.135c-.855-.764-1.559-1.394-2.084-1.843-.3-.255-.555-.45-.72-.584a1.5,1.5,0,0,0-.315-.195A.789.789,0,0,0,25.2,0a.765.765,0,0,0-.75.764V7.507h6.747l-.75-.749V29.25l.75-.749H11.7a2.245,2.245,0,0,1-2.249-2.248V.794l-.75.749H22.2a.742.742,0,0,0,.75-.749A.742.742,0,0,0,22.2.044H7.952V26.253A3.749,3.749,0,0,0,11.7,30H31.942V6.038H25.2l.75.749V.794a.743.743,0,0,1-.72.734.5.5,0,0,1-.285-.06c-.015,0,.03.015.075.045.135.1.36.27.63.509.51.435,1.2,1.049,2.039,1.8a1.217,1.217,0,0,1,.15.135c.63.569,1.3,1.184,1.964,1.8.24.21.45.42.645.6.12.1.195.18.24.225a.753.753,0,1,0,1.035-1.094,2.337,2.337,0,0,1-.24-.225ZM7.967,13.531h1.5l-1.5-.015v.015Z" transform="translate(-7.952 0)"/>
      <g id="live2d-2" data-name="live2d" transform="translate(7.182 10.241)">
        <path id="路径_281" data-name="路径 281" class="cls-3" d="M8.067,52.447l7.654,2.869V50.645L12.466,49.3,8.187,51.383C7.509,51.649,7.223,52.077,8.067,52.447Z" transform="translate(-6.409 -40.998)"/>
        <path id="路径_282" data-name="路径 282" class="cls-3" d="M9.312,4.671C.241,8.425,0,9.09,0,9.09V4.626A1.228,1.228,0,0,1,.844,3.547L9.312,0Z" transform="translate(0)"/>
      </g>
    </g>
  </g>
</svg>
