<svg xmlns="http://www.w3.org/2000/svg" width="30" height="30" viewBox="0 0 30 30">
  <defs>
    <style>
      .cls-1 {
        fill: none;
      }

      .cls-2 {
        fill: #333;
      }
    </style>
  </defs>
  <g id="其他" transform="translate(-311 -300)">
    <rect id="矩形_1147" data-name="矩形 1147" class="cls-1" width="30" height="30" transform="translate(311 300)"/>
    <g id="其他-2" data-name="其他" transform="translate(313.813 300)">
      <path id="路径_293" data-name="路径 293" class="cls-2" d="M31.478,5.259c-.195-.18-.4-.375-.645-.6-.675-.614-1.334-1.229-1.979-1.813a1.217,1.217,0,0,1-.15-.135c-.855-.764-1.559-1.394-2.084-1.843-.3-.255-.555-.45-.72-.584a1.5,1.5,0,0,0-.315-.195A.789.789,0,0,0,25.2,0a.765.765,0,0,0-.75.764V7.507h6.747l-.75-.749V29.25l.75-.749H11.7a2.245,2.245,0,0,1-2.249-2.248V.794l-.75.749H22.2a.742.742,0,0,0,.75-.749A.742.742,0,0,0,22.2.044H7.952V26.253A3.749,3.749,0,0,0,11.7,30H31.942V6.038H25.2l.75.749V.794a.743.743,0,0,1-.72.734.5.5,0,0,1-.285-.06c-.015,0,.03.015.075.045.135.1.36.27.63.509.51.435,1.2,1.049,2.039,1.8a1.217,1.217,0,0,1,.15.135c.63.569,1.3,1.184,1.964,1.8.24.21.45.42.645.6.12.1.195.18.24.225a.753.753,0,1,0,1.035-1.094,2.337,2.337,0,0,1-.24-.225ZM7.967,13.531h1.5l-1.5-.015v.015Z" transform="translate(-7.952 0)"/>
      <rect id="矩形_1142" data-name="矩形 1142" class="cls-2" width="1.8" height="1.8" rx="0.9" transform="translate(6.788 22.8)"/>
      <rect id="矩形_1143" data-name="矩形 1143" class="cls-2" width="1.8" height="1.8" rx="0.9" transform="translate(15.188 22.8)"/>
      <rect id="矩形_1144" data-name="矩形 1144" class="cls-2" width="1.8" height="1.8" rx="0.9" transform="translate(10.988 22.8)"/>
    </g>
  </g>
</svg>
