<svg xmlns="http://www.w3.org/2000/svg" width="30" height="30" viewBox="0 0 30 30">
  <defs>
    <style>
      .cls-1 {
        fill: none;
      }

      .cls-2 {
        fill: #333;
      }
    </style>
  </defs>
  <g id="图片" transform="translate(-417 -300)">
    <rect id="矩形_1145" data-name="矩形 1145" class="cls-1" width="30" height="30" transform="translate(417 300)"/>
    <g id="图片-2" data-name="图片" transform="translate(420.281 300)">
      <path id="路径_296" data-name="路径 296" class="cls-2" d="M31.478,5.259c-.195-.18-.4-.375-.645-.6-.675-.614-1.334-1.229-1.979-1.813a1.217,1.217,0,0,1-.15-.135c-.855-.764-1.559-1.394-2.084-1.843-.3-.255-.555-.45-.72-.584a1.5,1.5,0,0,0-.315-.195A.789.789,0,0,0,25.2,0a.765.765,0,0,0-.75.764V7.507h6.747l-.75-.749V29.25l.75-.749H11.7a2.245,2.245,0,0,1-2.249-2.248V.794l-.75.749H22.2a.742.742,0,0,0,.75-.749A.742.742,0,0,0,22.2.044H7.952V26.253A3.749,3.749,0,0,0,11.7,30H31.942V6.038H25.2l.75.749V.794a.743.743,0,0,1-.72.734.5.5,0,0,1-.285-.06c-.015,0,.03.015.075.045.135.1.36.27.63.509.51.435,1.2,1.049,2.039,1.8a1.217,1.217,0,0,1,.15.135c.63.569,1.3,1.184,1.964,1.8.24.21.45.42.645.6.12.1.195.18.24.225a.753.753,0,1,0,1.035-1.094,2.337,2.337,0,0,1-.24-.225ZM7.967,13.531h1.5l-1.5-.015v.015Z" transform="translate(-7.952 0)"/>
      <path id="路径_298" data-name="路径 298" class="cls-2" d="M227.95,322.8a1.185,1.185,0,1,0-1.185,1.2A1.193,1.193,0,0,0,227.95,322.8Zm1.58,0a2.765,2.765,0,1,1-2.765-2.8A2.784,2.784,0,0,1,229.53,322.8Zm1.374,8.147a.784.784,0,0,1-.767.285.794.794,0,0,1-.605-.556.809.809,0,0,1,.2-.8l4.321-4.806a.782.782,0,0,1,1.169,0l2.788,3.108a.809.809,0,0,1,.2.8.794.794,0,0,1-.605.556.784.784,0,0,1-.767-.285l-2.2-2.459Zm-5.577.048a.782.782,0,0,1-1.076-.076.809.809,0,0,1,0-1.093l3.42-3.2a.782.782,0,0,1,1.066,0l1.327,1.234a.81.81,0,0,1,.043,1.133.783.783,0,0,1-1.118.044l-.79-.729Z" transform="translate(-219.125 -309.875)"/>
    </g>
  </g>
</svg>
