<svg xmlns="http://www.w3.org/2000/svg" width="10" height="11" viewBox="0 0 10 11">
  <defs>
    <style>
      .cls-1 {
        fill: #333;
      }
    </style>
  </defs>
  <path id="路径_1" data-name="路径 1" class="cls-1" d="M194.894,142.211a6.274,6.274,0,0,0-1.579.2v4.948a8.575,8.575,0,0,1,1.579-.148,5.457,5.457,0,0,1,1.168.127q.584.127,1.328.362c.063.022.182.06.355.115s.3.1.382.122.2.058.356.1.287.073.393.093.228.038.364.055a3.223,3.223,0,0,0,.391.025,6.273,6.273,0,0,0,1.579-.2v-4.95a8.437,8.437,0,0,1-1.579.15,5.455,5.455,0,0,1-1.168-.128q-.583-.128-1.328-.362l-.356-.115-.383-.12c-.081-.025-.2-.058-.355-.1s-.287-.075-.393-.1-.227-.037-.364-.055A3.238,3.238,0,0,0,194.894,142.211Zm0-1a4.711,4.711,0,0,1,.938.1q.5.105.966.25l.929.293.967.25q.966.25.937.1a7.609,7.609,0,0,0,.876-.05,6.021,6.021,0,0,0,.736-.125c.2-.05.384-.1.544-.148s.28-.092.36-.125l.115-.05v7c-.027.013-.069.032-.123.053s-.171.062-.348.122-.366.11-.553.152-.434.083-.726.12a7.049,7.049,0,0,1-.882.055,4.591,4.591,0,0,1-.937-.105,9.469,9.469,0,0,1-.967-.25l-.929-.292-.966-.252q-.966-.248-.937-.1a7.623,7.623,0,0,0-1.579.168v3.332a.467.467,0,0,1-.155.353.545.545,0,0,1-.744,0,.467.467,0,0,1-.155-.353v-10c.027-.013.069-.032.124-.053s.171-.063.347-.122.366-.11.553-.152.435-.083.726-.12a7.079,7.079,0,0,1,.882-.055h0Z" transform="translate(-192.262 -141.211)"/>
</svg>
