<svg xmlns="http://www.w3.org/2000/svg" width="12" height="12.007" viewBox="0 0 12 12.007">
  <defs>
    <style>
      .cls-1 {
        fill: none;
      }

      .cls-2 {
        fill: #353535;
      }
    </style>
  </defs>
  <g id="组_499" data-name="组 499" transform="translate(-714 -271)">
    <rect id="矩形_48" data-name="矩形 48" class="cls-1" width="12" height="12" transform="translate(714 271)"/>
    <g id="组_710" data-name="组 710" transform="translate(221.992 -185)">
      <g id="组_711" data-name="组 711" transform="translate(492.007 456.007)">
        <path id="路径_267" data-name="路径 267" class="cls-2" d="M70,64a6,6,0,1,0,6,6A6,6,0,0,0,70,64Zm0,10.982A4.982,4.982,0,1,1,74.982,70,4.983,4.983,0,0,1,70,74.982Z" transform="translate(-64 -64)"/>
        <path id="路径_268" data-name="路径 268" class="cls-2" d="M349.35,299h-.86a.114.114,0,0,0-.1.064l-1.309,2.6h-.049l-1.309-2.6a.116.116,0,0,0-.1-.064h-.877a.107.107,0,0,0-.055.014.116.116,0,0,0-.046.158l1.609,2.962h-.887a.116.116,0,0,0-.116.116v.432a.116.116,0,0,0,.116.116h1.18v.6h-1.18a.116.116,0,0,0-.116.116v.432a.116.116,0,0,0,.116.116h1.18v.985a.116.116,0,0,0,.116.116h.784a.116.116,0,0,0,.116-.116v-.985h1.185a.116.116,0,0,0,.116-.116v-.432a.116.116,0,0,0-.116-.116h-1.185v-.6h1.185a.116.116,0,0,0,.116-.116v-.432a.116.116,0,0,0-.116-.116h-.9l1.6-2.962a.125.125,0,0,0,.014-.055A.118.118,0,0,0,349.35,299Z" transform="translate(-341.044 -296.081)"/>
      </g>
    </g>
  </g>
</svg>
