<svg xmlns="http://www.w3.org/2000/svg" width="20" height="20" viewBox="0 0 20 20">
  <g id="J2" transform="translate(-661 -1093)">
    <g id="组_754" data-name="组 754" transform="translate(665 1098)">
      <path id="路径_261" data-name="路径 261" d="M6,1.091A4.909,4.909,0,1,0,10.909,6,4.909,4.909,0,0,0,6,1.091ZM0,6a6,6,0,1,1,6,6A6,6,0,0,1,0,6Z" fill="#ccc"/>
      <path id="路径_262" data-name="路径 262" d="M400.169,201.15a.549.549,0,0,1,.176.474l-.437,3.559.311-.079a.527.527,0,0,1,.516.147.55.55,0,0,1,.13.529.538.538,0,0,1-.387.377l-1.067.272a.526.526,0,0,1-.483-.12.549.549,0,0,1-.176-.474l.437-3.559-.311.079a.533.533,0,0,1-.643-.4.544.544,0,0,1,.384-.658l1.067-.271A.526.526,0,0,1,400.169,201.15Zm-1.42-1.495a.538.538,0,0,1,.533-.543h.533a.543.543,0,0,1,0,1.087h-.533a.528.528,0,0,1-.377-.159.549.549,0,0,1-.156-.384Z" transform="translate(-393.552 -196.778)" fill="#ccc"/>
    </g>
    <rect id="矩形_1079" data-name="矩形 1079" width="20" height="20" transform="translate(661 1093)" fill="none"/>
  </g>
</svg>
