<svg xmlns="http://www.w3.org/2000/svg" width="35" height="35" viewBox="0 0 35 35"><defs><style>.a{fill:#fff;}</style></defs><path class="a" d="M156.9,145.581l-11.324-3.088a18.393,18.393,0,0,0,2.059-4.118,16.533,16.533,0,0,0,1.029-4.118h-7.206v-3.088H149.7v-1.029h-8.235v-4.118h-4.118v4.118H129.11v1.029h8.235v3.088h-7.206v1.029h13.382a5.472,5.472,0,0,1,0,3.088,8.223,8.223,0,0,1-1.029,2.059s-6.911-2.059-10.294-2.059-6.807,1.2-7.206,5.147a6.331,6.331,0,0,0,5.147,7.206,11.137,11.137,0,0,0,8.235-1.029,20.5,20.5,0,0,0,5.147-4.118l13.382,6.176a6.035,6.035,0,0,1-6.176,5.147H128.08a5.954,5.954,0,0,1-6.176-6.176V128.081a5.954,5.954,0,0,1,6.176-6.176h22.647a5.954,5.954,0,0,1,6.176,6.176Zm-16.471-2.059s-4.412,5.147-9.265,5.147-5.147-2.341-5.147-4.118,1.016-3.838,5.147-4.118,9.265,3.088,9.265,3.088Z" transform="translate(-121.904 -121.904)"/></svg>