<svg xmlns="http://www.w3.org/2000/svg" width="67" height="67" viewBox="0 0 67 67"><defs><style>.a{fill:#fff;stroke:#343434;stroke-width:3px;}</style></defs><path class="a" d="M74.667,42.667a32,32,0,1,0,32,32A32,32,0,0,0,74.667,42.667ZM79.409,93.2a3.142,3.142,0,0,1-.611.96,2.647,2.647,0,0,1-.931.669,3.2,3.2,0,0,1-2.356,0,2.647,2.647,0,0,1-.931-.669,3.142,3.142,0,0,1-.611-.96,2.924,2.924,0,1,1,5.44,0ZM86.3,68.849A9.746,9.746,0,0,1,85.111,71.5a10.851,10.851,0,0,1-1.775,2.065l-1.8,1.571q-.9.727-1.513,1.309a4.1,4.1,0,0,0-.7.873,3.112,3.112,0,0,0-.349.931,8.435,8.435,0,0,0,0,1.687v2.909a2.327,2.327,0,0,1-4.655,0V79.932a12.887,12.887,0,0,1,.233-2.647,7.738,7.738,0,0,1,.873-2.3A8.727,8.727,0,0,1,76.936,73.1c.495-.495,1.105-1.018,1.775-1.571L80.34,70.1a6.2,6.2,0,0,0,1.018-1.193,5.12,5.12,0,0,0,.611-1.4,7.156,7.156,0,0,0,.233-1.978,5.818,5.818,0,0,0-.611-2.5A5.44,5.44,0,0,0,80.223,61.2a5.818,5.818,0,0,0-2.095-1.135,9.105,9.105,0,0,0-2.909-.436,7.011,7.011,0,0,0-4.684,1.542,7.214,7.214,0,0,0-2.415,4.393,2.327,2.327,0,1,1-4.567-.873,13.149,13.149,0,0,1,1.425-4.015,11.113,11.113,0,0,1,6.2-5.12,12.771,12.771,0,0,1,4.16-.669,13.76,13.76,0,0,1,4.247.64,10.56,10.56,0,0,1,3.694,2.036,10.065,10.065,0,0,1,2.531,3.375,10.5,10.5,0,0,1,.96,4.509,11.637,11.637,0,0,1-.465,3.4Z" transform="translate(-41.167 -41.167)"/></svg>