<svg xmlns="http://www.w3.org/2000/svg" width="33.633" height="32.909" viewBox="0 0 33.633 32.909">
  <g id="组_27" data-name="组 27" transform="translate(-5503 3804)">
    <path id="矩形" d="M2.119,0,40,.043A2.11,2.11,0,0,1,42.129,2.13a2.1,2.1,0,0,1-2.119,2.083L2.124,4.17A2.109,2.109,0,0,1,0,2.083,2.1,2.1,0,0,1,2.119,0Z" transform="translate(5505.979 -3804) rotate(45)" fill="#fff"/>
    <path id="矩形备份_15" data-name="矩形备份 15" d="M2.124.043,40.009,0a2.1,2.1,0,0,1,2.119,2.083A2.109,2.109,0,0,1,40,4.17L2.119,4.213A2.1,2.1,0,0,1,0,2.13,2.109,2.109,0,0,1,2.124.043Z" transform="translate(5536.632 -3800.88) rotate(135)" fill="#fff"/>
  </g>
</svg>
