<svg xmlns="http://www.w3.org/2000/svg" width="67" height="67" viewBox="0 0 67 67"><defs><style>.a{fill:#fff;stroke:#343434;stroke-width:3px;}</style></defs><path class="a" d="M32.006.006a32,32,0,1,0,32,32A32,32,0,0,0,32.006.006ZM46.867,43.331a2.5,2.5,0,1,1-3.536,3.536L32.006,35.541,20.68,46.867a2.5,2.5,0,0,1-3.536-3.536L28.47,32.006,17.145,20.68a2.5,2.5,0,0,1,3.536-3.536L32.006,28.47,43.331,17.145a2.5,2.5,0,0,1,3.536,3.536L35.541,32.006,46.867,43.331Z" transform="translate(1.494 1.494)"/></svg>