<svg xmlns="http://www.w3.org/2000/svg" width="60" height="60" viewBox="0 0 60 60"><g transform="translate(-61.419 -42.363)"><path d="M83.336,102.363c-13.032,0-19.86-5-21.1-6a1.312,1.312,0,0,1-.415-1.471,1.506,1.506,0,0,1,1.252-.959h.029c2.521-.164,7.518-2.5,9.548-3.5l.492-.242-.658-.465c-.524-.37-1.02-.719-1.434-1.063a27.715,27.715,0,0,1-9.623-20.51C61.063,49,69.024,43.439,70.623,42.519a1.4,1.4,0,0,1,.651-.156,1.635,1.635,0,0,1,1.019.372,1.251,1.251,0,0,1,.364,1.594l-.037.07v.057a5.641,5.641,0,0,0,.411,3.925c1.045,2.408,3.594,4.9,7.373,7.212l.462.283.046-.532a19.235,19.235,0,0,1,.63-3.655c1.189-4.137,3.747-6.873,7.4-7.911a1.511,1.511,0,0,1,.417-.058,1.528,1.528,0,0,1,1.051.408,1.807,1.807,0,0,1,.349,1.438c-.081,2.81,2.144,11.473,10.013,14.6l.224.089.156-.182a23.374,23.374,0,0,1,1.831-1.845l.036-.035a12.81,12.81,0,0,1,7.475-2.406,13.835,13.835,0,0,1,7.4,2.262,4.934,4.934,0,0,1,1.873,2.211l.061.119a4.7,4.7,0,0,0,1.185,1.774,1.34,1.34,0,0,1,.23,1.633,1.558,1.558,0,0,1-1.3.768,1.208,1.208,0,0,1-.161-.011q-.364-.033-.729-.034a4.637,4.637,0,0,0-3.637,1.463c-2.079,2.262-2.031,6.53-1.356,9.5a19.731,19.731,0,0,1-1.447,12.094l0-.007c-.007.013-.016.029-.027.05-.663,1.28-6.94,12.561-22.821,14.363a50.48,50.48,0,0,1-6.434.4ZM76.095,91.78A69.646,69.646,0,0,1,67.587,95.6l-.742.26.707.341A36.519,36.519,0,0,0,83.5,99.469a53.23,53.23,0,0,0,6.022-.354c14.519-1.628,20.272-12.339,20.51-12.794l.037-.07v-.021a.411.411,0,0,0,.019-.056c.565-1.313,2.24-5.764,1.189-10.178-1.272-5.647.173-9.868,1.949-11.934a8.637,8.637,0,0,1,4.034-2.2l.243-.067v-.32l-.031-.1c-.172-.363-.186-.392-.294-.5a5.021,5.021,0,0,0-1.561-1.2,10.965,10.965,0,0,0-4.986-1.239,10.385,10.385,0,0,0-5.738,1.728l-.016.011-.015.013c-.316.286-3.1,2.853-3.468,5.1l0,.026v.3l.113.1a14.319,14.319,0,0,1,4.045,5.312A11.4,11.4,0,0,1,105.159,81a1.36,1.36,0,0,1-.855.679,1.668,1.668,0,0,1-.443.061,1.431,1.431,0,0,1-.663-.157,1.35,1.35,0,0,1-.694-.784,1.38,1.38,0,0,1,.1-1.081l.032-.062a9.068,9.068,0,0,0,.235-7.58c-1.82-4.3-6.948-7.676-15.243-10.045l-.091-.018-.009-.009-.062-.024C78.154,58.327,72.4,54.059,70.378,49.295a14.127,14.127,0,0,1-.467-1.372l-.185-.665-.408.561c-2.362,3.247-5.123,9.411-4.868,20.338A24.794,24.794,0,0,0,73.032,86.58a22.739,22.739,0,0,0,11.221,4.584l.022,0H84.3a.377.377,0,0,1,.1.01.841.841,0,0,0,.114.019c.041.008.081.015.122.022a.643.643,0,0,1,.163.039l.024.011.026.008a1.407,1.407,0,0,1,.8.622,1.336,1.336,0,0,1,.125,1.1,1.477,1.477,0,0,1-1.376.956.561.561,0,0,1-.176-.029l-.065-.028-.079,0h-.048l-.049-.07-.149-.019a27.427,27.427,0,0,1-7.439-2.032l-.15-.065-.144.077ZM87.528,47.561c-3.947,2.853-3.787,8.956-3.756,9.642l.009.194.178.116c1.282.614,2.652,1.2,4.444,1.913a41.534,41.534,0,0,1,10.139,4.212l.357.216.134-.39a2.111,2.111,0,0,1,.247-.5l.225-.323-.365-.16c-6.825-2.99-10.238-9.792-11.087-14.708l-.09-.524-.436.315Z" transform="translate(0 0)"/></g></svg>