<svg xmlns="http://www.w3.org/2000/svg" width="60" height="60" viewBox="0 0 60 60"><defs><style>.a{fill:#666;}</style></defs><path class="a" d="M86.977,77a13.938,13.938,0,1,0,0,27.875h13.977V90.938A14.133,14.133,0,0,0,86.977,77m9.545,23.456H86.807a9.688,9.688,0,1,1,9.716-9.688v9.688M133,90.938a13.977,13.977,0,0,0-27.955,0v13.938h13.977A14.02,14.02,0,0,0,133,90.938m-23.523,0a9.716,9.716,0,1,1,9.716,9.688h-9.716V90.938M73,122.892a13.977,13.977,0,0,0,27.955,0V108.955H86.977A14.02,14.02,0,0,0,73,122.892m23.523,0a9.716,9.716,0,1,1-9.716-9.688h9.716v9.688m22.5-13.768H105.045v13.938a13.977,13.977,0,1,0,13.977-13.938m0,23.456a9.7,9.7,0,0,1-9.716-9.688V113.2h9.716a9.7,9.7,0,0,1,9.716,9.688,9.591,9.591,0,0,1-9.716,9.688" transform="translate(-73 -77)"/></svg>