<svg xmlns="http://www.w3.org/2000/svg" width="60" height="60" viewBox="0 0 60 60"><defs><style>.a{fill:#666;}</style></defs><path class="a" d="M101.733,145.395a4.066,4.066,0,0,1,5.886-.262l3.032,2.881a4.423,4.423,0,0,1,.334,6L101.972,164.8,96.2,167.594a4.035,4.035,0,0,1-3.164.156,4.356,4.356,0,0,1-2.524-5.512l2.151-6.245,9.017-10.541Zm-39.4-.01A10.711,10.711,0,1,1,52,156.088,10.526,10.526,0,0,1,62.337,145.384Zm42.554,2.8a.151.151,0,0,0-.2.022l-8.5,9.941-1.89,5.488-.005.018a.163.163,0,0,0,.053.16.15.15,0,0,0,.162.021l4.993-2.418,8.453-10.116.012-.016a.164.164,0,0,0-.024-.207l-3.032-2.881Zm-42.554,1.357a6.554,6.554,0,1,0,6.326,6.55A6.441,6.441,0,0,0,62.337,149.538Zm25.887,4.511h.047a2.079,2.079,0,0,1-.025,4.153l-13.224.076h-.047A2.079,2.079,0,0,1,75,154.126Zm-.179-24.374a1.97,1.97,0,0,1,2.732.791l6.988,12.857.024.046A2.116,2.116,0,0,1,97,146.152a1.97,1.97,0,0,1-2.732-.791L87.282,132.5l-.024-.046A2.116,2.116,0,0,1,88.046,129.675Zm-12.028-.958a2.116,2.116,0,0,1,.788,2.783l-.024.046L69.794,144.4a1.97,1.97,0,0,1-2.732.791,2.116,2.116,0,0,1-.788-2.783l.024-.046,6.988-12.857A1.97,1.97,0,0,1,76.018,128.717ZM82.241,108A10.711,10.711,0,1,1,71.9,118.7,10.525,10.525,0,0,1,82.241,108Zm0,4.154a6.554,6.554,0,1,0,6.326,6.55,6.441,6.441,0,0,0-6.326-6.55Z" transform="translate(-52 -108)"/></svg>