<svg xmlns="http://www.w3.org/2000/svg" width="60" height="60" viewBox="0 0 60 60"><defs><style>.a{fill:#666;}</style></defs><g transform="translate(-85.335 -81.618)"><path class="a" d="M137.759,96.889H92.91a7.562,7.562,0,0,0-7.575,7.549v29.827a7.522,7.522,0,0,0,7.575,7.354h44.85a7.562,7.562,0,0,0,7.575-7.549V104.243A7.8,7.8,0,0,0,137.759,96.889Zm3.255,37.174a3.254,3.254,0,0,1-3.253,3.246H92.91a3.2,3.2,0,0,1-3.255-3.046v-29.82a3.252,3.252,0,0,1,3.252-3.246h44.853a3.472,3.472,0,0,1,3.255,3.176v29.691Zm-14.781-40.4V89.532a3.426,3.426,0,0,0-3.426-3.417H107.859a3.425,3.425,0,0,0-3.426,3.417v3.937h0v.2H99.924V89.532a7.932,7.932,0,0,1,7.932-7.914h14.967l.028,0a7.918,7.918,0,0,1,7.889,7.912v4.135Z" transform="translate(0 0)"/><path class="a" d="M371.894,464.96h-6.807v-6.807h-6.807v6.807h-6.448v6.807h6.807v6.807h6.807v-6.807h6.807V464.96Z" transform="translate(-246.621 -350.113)"/></g></svg>