<svg xmlns="http://www.w3.org/2000/svg" width="60" height="60" viewBox="0 0 60 60"><g transform="translate(-60.948 -55.685)"><path d="M334.644,213.591a13.354,13.354,0,0,0-4.174-9.82,13.9,13.9,0,0,0-9.82-4.174,12.966,12.966,0,0,0-9.82,4.174,13.906,13.906,0,0,0-4.174,9.82,12.964,12.964,0,0,0,4.174,9.82,13.907,13.907,0,0,0,9.82,4.173,13.355,13.355,0,0,0,9.82-4.173A12.966,12.966,0,0,0,334.644,213.591ZM320.9,224.147a11.06,11.06,0,0,1-7.365-2.946,10.77,10.77,0,0,1-3.192-7.61,11.06,11.06,0,0,1,2.946-7.365,9.991,9.991,0,0,1,7.365-2.946,11.06,11.06,0,0,1,7.365,2.946,9.993,9.993,0,0,1,2.946,7.365,11.06,11.06,0,0,1-2.946,7.365,9.659,9.659,0,0,1-7.119,3.191Z" transform="translate(-230.037 -134.923)"/><path d="M119.315,101.147l-8.4-13.154a21.166,21.166,0,0,0,2.568-10.154,22.972,22.972,0,0,0-6.537-15.923,24.439,24.439,0,0,0-16.109-6.231,21.775,21.775,0,0,0-15.876,6.692,21.288,21.288,0,0,0-6.77,15.692,22.086,22.086,0,0,0,2.568,10.385l-8.4,13.385-1.4,2.308,2.8.231,9.806.461,4.2,8.538,1.4,2.307,1.634-2.538,8.171-12.924h1.868a8.035,8.035,0,0,0,2.334-.231l7.7,12.231,1.634,2.308,1.4-2.539,4.436-8.538,9.572-.231h3.035l-1.634-2.076Zm-39.689,7.846-3.5-6.692-.467-.923h-.934l-7.938-.231,6.07-9.693a22.746,22.746,0,0,0,5.136,5.077s4.671,2.9,7.238,3.23Zm11.206-12.26a19,19,0,1,1,19.222-19A19.111,19.111,0,0,1,90.832,96.732Zm16.577,3.953h-.934l-.467.923-3.736,6.923-5.6-8.77a23.735,23.735,0,0,0,7-3,29.2,29.2,0,0,0,5.6-5.077l5.6,9h-7.47Z"/></g></svg>