<svg xmlns="http://www.w3.org/2000/svg" width="60" height="60" viewBox="0 0 60 60"><defs><style>.a{fill:#666;}</style></defs><path class="a" d="M96.2,65a2.011,2.011,0,0,1,2.02,1.953v3.206A25.215,25.215,0,0,1,121.4,93.038h2.576a2,2,0,0,1,.048,4h-2.605a25.211,25.211,0,0,1-23.207,23.11V123a2.021,2.021,0,0,1-4.041.047v-2.892A25.212,25.212,0,0,1,70.89,97.039H68.022a2,2,0,0,1-.048-4h2.935A25.216,25.216,0,0,1,94.174,70.153V67A2.01,2.01,0,0,1,96.2,65ZM74.967,93.038h4.557a2,2,0,0,1,.048,4H74.945a21.192,21.192,0,0,0,19.229,19.1v-4.833a2.021,2.021,0,0,1,4.041-.047v4.873a21.191,21.191,0,0,0,19.152-19.095h-4.89a2,2,0,0,1-.048-4h4.916a21.2,21.2,0,0,0-19.13-18.864v4.518a2.021,2.021,0,0,1-4.041.047V74.167A21.2,21.2,0,0,0,74.967,93.038Zm21.189-8.808A10.924,10.924,0,1,1,85.12,95.154,10.98,10.98,0,0,1,96.156,84.231Zm0,4a6.923,6.923,0,1,0,6.995,6.923A6.959,6.959,0,0,0,96.156,88.231Z" transform="translate(-66.001 -65)"/></svg>