<svg xmlns="http://www.w3.org/2000/svg" width="20" height="20" viewBox="0 0 20 20">
  <g id="插画" transform="translate(-414 -240)">
    <rect id="矩形_1122" data-name="矩形 1122" width="20" height="20" transform="translate(414 240)" fill="none"/>
    <path id="路径_272" data-name="路径 272" d="M34.592,25.6a9.174,9.174,0,0,0-6.482,2.76,8.983,8.983,0,0,0-1.681,9.96,1.081,1.081,0,0,0,.72.72,2.222,2.222,0,0,0,.84.24,1.568,1.568,0,0,0,1.44-.84l.6-1.08a.8.8,0,0,1,.84-.48.913.913,0,0,1,.96.72.794.794,0,0,1-.12.72l-1.08,1.92c-.12.12-.24.24-.24.36a1.958,1.958,0,0,0,1.2,2.52,8.728,8.728,0,0,0,3,.48h.36a9.293,9.293,0,0,0,8.643-8.64,9,9,0,0,0-1.921-6l1.2-2.04a.9.9,0,0,0,.12-.6c0-.24-.24-.36-.36-.48a.44.44,0,0,0-.36-.12.661.661,0,0,0-.6.36l-5.282,9.24a.628.628,0,0,0,.24.96.442.442,0,0,0,.36.12.66.66,0,0,0,.6-.36l3.241-5.64a7.537,7.537,0,0,1,1.321,4.56,5.137,5.137,0,0,1-.72,2.64,7.963,7.963,0,0,1-3.841,3.84,6.544,6.544,0,0,1-2.641.6h-.36a6.27,6.27,0,0,1-2.521-.48.258.258,0,0,1-.24-.24v-.36l1.08-1.92a2.428,2.428,0,0,0-.96-3.36,2.315,2.315,0,0,0-1.2-.36,2.682,2.682,0,0,0-2.161,1.2l-.6,1.08a.12.12,0,1,1-.24,0,7.4,7.4,0,0,1-.24-5.76,7.963,7.963,0,0,1,4.081-4.08,8.363,8.363,0,0,1,3-.6h.48a12.682,12.682,0,0,1,2.881.72l.24.12h.24a.682.682,0,0,0,.24-1.32,7.387,7.387,0,0,0-3.481-1.08Zm.84,3a.96.96,0,1,0,0,1.92,1.138,1.138,0,0,0,.96-1.08A.856.856,0,0,0,35.432,28.6Zm-3,.6a.82.82,0,0,0-.841.84.96.96,0,0,0,1.921,0A1.052,1.052,0,0,0,32.431,29.2Zm-2.4,2.04a.927.927,0,0,0-.84.96.96.96,0,0,0,1.92,0A1.154,1.154,0,0,0,30.03,31.24Z" transform="translate(389.392 215.4)" fill="#333"/>
  </g>
</svg>
