<svg xmlns="http://www.w3.org/2000/svg" width="20" height="20" viewBox="0 0 20 20">
  <g id="出售" transform="translate(-398 -358)">
    <rect id="矩形_1124" data-name="矩形 1124" width="20" height="20" transform="translate(398 358)" fill="none"/>
    <path id="路径_276" data-name="路径 276" d="M115.8,110.556a8.832,8.832,0,0,1-.233,3.434,9.124,9.124,0,0,1-1.519,3.105,9.133,9.133,0,0,1-5.664,3.447,8.688,8.688,0,0,1-1.464.123,8.784,8.784,0,0,1-1.587-.15.658.658,0,0,1-.438-.274.673.673,0,0,1,.164-.93.732.732,0,0,1,.506-.109,7.217,7.217,0,0,0,2.6.014,7.352,7.352,0,0,0,2.5-.917l.041-.027h.014a7.705,7.705,0,0,0,3.557-4.638,7.5,7.5,0,0,0,.205-2.914,7.4,7.4,0,0,0-.971-2.859,7.948,7.948,0,0,0-1.806-2.12H111.6V105.7a.759.759,0,0,1-.479-.835V104.8a.788.788,0,0,1,.369-.492.708.708,0,0,1,.52-.082l2.572.493a.769.769,0,0,1,.588.876v.068a.782.782,0,0,1-.739.6.561.561,0,0,1-.15-.014l-.287-.055a8.743,8.743,0,0,1,.684,1.012,9,9,0,0,1,1.122,3.352Zm-6.58,1.573a.765.765,0,0,1,.725.725c0,.287-.26.725-.616.725h-1.71v1.587c0,.342-.438.616-.725.616a.67.67,0,0,1-.725-.616v-1.573h-1.724c-.356,0-.616-.438-.616-.725s.26-.725.616-.725h1.71v-.752h-1.71c-.342,0-.616-.438-.616-.725s.26-.725.616-.725h.93L104.1,108.9a.741.741,0,0,1-.219-.506.732.732,0,0,1,1.245-.506l1.751,1.436,1.655-1.546a.716.716,0,1,1,1.012,1.012l-.014.014-1.3,1.122h.971c.233,0,.616.1.616.725a.679.679,0,0,1-.616.725h-1.6v.752h1.614Zm-1.915-8.085a7.724,7.724,0,0,0-4.214,1,7.557,7.557,0,0,0-2.3,2.011,7.681,7.681,0,0,0-1.3,2.64,7.517,7.517,0,0,0,.766,5.773.042.042,0,0,1,.014.027,6.357,6.357,0,0,0,1.259,1.628l.123.027a.758.758,0,0,1,.588.876v.068a.782.782,0,0,1-.739.6.561.561,0,0,1-.15-.014l-2.586-.492a.769.769,0,0,1-.588-.876v-.041a.757.757,0,0,1,.3-.492.767.767,0,0,1,.588-.123l.369.068c-.123-.192-.246-.4-.356-.6a8.91,8.91,0,0,1-.9-6.786,8.881,8.881,0,0,1,1.519-3.105,9.119,9.119,0,0,1,2.7-2.367,9.02,9.02,0,0,1,4.952-1.19.672.672,0,0,1,.643.7.658.658,0,0,1-.684.67Z" transform="translate(301.125 256.334)" fill="#333"/>
  </g>
</svg>
