<svg xmlns="http://www.w3.org/2000/svg" width="20" height="20" viewBox="0 0 20 20">
  <g id="live2d" transform="translate(-412 -283)">
    <rect id="矩形_1123" data-name="矩形 1123" width="20" height="20" transform="translate(412 283)" fill="none"/>
    <g id="组_775" data-name="组 775" transform="translate(413.006 282.804)">
      <path id="路径_273" data-name="路径 273" d="M202.336,4l.774-1.56a.871.871,0,0,0-1.56-.774l-.774,1.56a.871.871,0,1,0,1.56.774ZM192.3,4.105l-.774-1.558a.871.871,0,1,1,1.56-.774l.774,1.56a.871.871,0,1,1-1.56.773Zm4.01,11.016a.871.871,0,1,1,.871.871.871.871,0,0,1-.871-.871Z" transform="translate(-188.128)" fill="#333"/>
      <path id="路径_274" data-name="路径 274" d="M10.489,191.579H8.018c-2.851,0-5.323.025-6.793-1.44a4.751,4.751,0,0,1-1.218-3.551A9.564,9.564,0,0,1,9,176.972a9.564,9.564,0,0,1,8.988,9.616,4.674,4.674,0,0,1-1.221,3.484c-1.392,1.386-3.643,1.5-6.272,1.5Zm-1.639-1.742H9.69c2.588.01,4.824.021,5.844-.993a3.044,3.044,0,0,0,.71-2.252A7.884,7.884,0,0,0,9,178.714a7.881,7.881,0,0,0-7.246,7.874,3.152,3.152,0,0,0,.7,2.315c.95.95,3.087.936,5.556.933Z" transform="translate(0 -172.745)" fill="#333"/>
      <path id="路径_275" data-name="路径 275" d="M185.013,527.98a.869.869,0,0,1-.664-.306,1.335,1.335,0,0,0-1.807,0,.871.871,0,0,1-1.313-1.145,3.009,3.009,0,0,1,4.446.022.869.869,0,0,1-.662,1.435Zm6.88,0a.869.869,0,0,1-.664-.306,1.333,1.333,0,0,0-1.807,0,.871.871,0,0,1-1.313-1.145,3.009,3.009,0,0,1,4.442.022.869.869,0,0,1-.66,1.435Z" transform="translate(-177.899 -515.321)" fill="#333"/>
    </g>
  </g>
</svg>
