<svg xmlns="http://www.w3.org/2000/svg" width="20.002" height="20" viewBox="0 0 20.002 20">
  <g id="组_910" data-name="组 910" transform="translate(-410 -284)">
    <rect id="矩形_1124" data-name="矩形 1124" width="20" height="20" transform="translate(410 284)" fill="none"/>
    <path id="路径_395" data-name="路径 395" d="M4.921,14.688h6.427a2.44,2.44,0,0,0,1.682-.671.79.79,0,0,0,.133-.105l3.321-3.291,0,0A2.434,2.434,0,0,0,17.2,8.889V8.281a.781.781,0,1,0-1.562,0v.607a.881.881,0,0,1-.256.624L13.8,11.081V5.771a2.451,2.451,0,0,0-.345-1.251l2.178-2.176a.892.892,0,0,1,.006.1V4.375a.781.781,0,1,0,1.563,0V2.45A2.452,2.452,0,0,0,14.751,0H8.257A2.459,2.459,0,0,0,6.479.765L3.335,3.9c-.009.009-.017.018-.026.028q-.046.04-.091.083a2.44,2.44,0,0,0-.748,1.758v6.463A2.455,2.455,0,0,0,4.921,14.688ZM7.591,1.863l.018-.019a.879.879,0,0,1,.648-.281H14.2L12.255,3.51a2.349,2.349,0,0,0-.923-.149H6.089l1.5-1.5ZM4.033,5.771A.859.859,0,0,1,4.3,5.143a.79.79,0,0,1,.588-.22h6.5a.791.791,0,0,1,.588.22.859.859,0,0,1,.265.628v6.463a.89.89,0,0,1-.888.89H4.921a.89.89,0,0,1-.888-.89V5.771Zm13.83,8.174a2.151,2.151,0,0,1,2.148,2.148v2.539a.781.781,0,0,1-1.562,0v-1.9A14.762,14.762,0,0,1,16.4,18.1,14.717,14.717,0,0,1,9.269,20a12.55,12.55,0,0,1-6.782-1.919,9.775,9.775,0,0,1-2.31-1.974.781.781,0,0,1,1.231-.963A8.48,8.48,0,0,0,3.383,16.8a10.892,10.892,0,0,0,5.886,1.639,13.352,13.352,0,0,0,8.205-2.93h-2.15a.781.781,0,1,1,0-1.563h2.539Z" transform="translate(409.99 284)" fill="#ff6398"/>
  </g>
</svg>
