<svg xmlns="http://www.w3.org/2000/svg" width="20" height="20" viewBox="0 0 20 20">
  <defs>
    <style>
      .cls-1 {
        fill: none;
      }

      .cls-2 {
        fill: #ff6398;
      }
    </style>
  </defs>
  <g id="撤销" transform="translate(-1358 -376)">
    <rect id="矩形_1120" data-name="矩形 1120" class="cls-1" width="20" height="20" transform="translate(1358 376)"/>
    <g id="组_772" data-name="组 772" transform="translate(1359.667 378.5)">
      <path id="路径_269" data-name="路径 269" class="cls-2" d="M94.232,147.925a.588.588,0,0,1-.232-.048.6.6,0,0,1-.368-.552v-3.06c-1.88-1.332-6.035,1.28-7.527,2.444a.608.608,0,0,1-.7.032.6.6,0,0,1-.256-.648c1.936-7.839,6.783-9.295,8.475-9.563v-2.8a.6.6,0,0,1,1.02-.428l6.975,6.8a.6.6,0,0,1,0,.856l-6.975,6.8a.591.591,0,0,1-.416.172ZM92.34,142.71a3.229,3.229,0,0,1,2.3.84.6.6,0,0,1,.188.436v1.92l5.519-5.379-5.515-5.375v1.92a.6.6,0,0,1-.588.6c-.22.008-5.107.236-7.455,7.111C88.2,143.886,90.42,142.71,92.34,142.71Z" transform="translate(-85.136 -133.127)"/>
    </g>
  </g>
</svg>
