<svg xmlns="http://www.w3.org/2000/svg" width="18" height="20.002" viewBox="0 0 18 20.002">
  <defs>
    <style>
      .cls-1 {
        fill: #333;
      }
    </style>
  </defs>
  <path id="路径_327" data-name="路径 327" class="cls-1" d="M96.567,53.29l-6.333-3.38a2.606,2.606,0,0,0-2.467,0l-6.333,3.414A2.672,2.672,0,0,0,80,55.738v7.69a2.806,2.806,0,0,0,1.433,2.448L87.8,69.291a2.526,2.526,0,0,0,1.233.31,2.621,2.621,0,0,0,1.233-.31l6.3-3.38A2.74,2.74,0,0,0,98,63.463V55.738A2.765,2.765,0,0,0,96.567,53.29ZM88.4,51.117a1.324,1.324,0,0,1,.6-.172,1.187,1.187,0,0,1,.6.138l6.333,3.38a1.164,1.164,0,0,1,.267.172L89,58.5,81.8,54.7a.723.723,0,0,1,.267-.172ZM82.067,64.636a1.38,1.38,0,0,1-.733-1.241V55.98L84,57.394v3.1a.654.654,0,0,0,.367.621l.467.241a.2.2,0,0,0,.133.034.32.32,0,0,0,.333-.345V58.083l3,1.586v8.311Zm13.867,0-6.267,3.38V59.67l7-3.69v7.414A1.38,1.38,0,0,1,95.933,64.636Z" transform="translate(-80 -49.6)"/>
</svg>
