<svg xmlns="http://www.w3.org/2000/svg" width="20" height="20" viewBox="0 0 20 20">
  <defs>
    <style>
      .cls-1 {
        fill: #333;
      }
    </style>
  </defs>
  <path id="路径_335" data-name="路径 335" class="cls-1" d="M74.714,74.714h3.571a.714.714,0,1,1,0,1.429H74.714v3.571a.714.714,0,0,1-1.429,0V76.143H69.714a.714.714,0,1,1,0-1.429h3.571V73.286H70.429a.714.714,0,0,1,0-1.429h1.847l-1.724-1.724a.714.714,0,1,1,1.01-1.01L74,71.561l2.439-2.439a.714.714,0,1,1,1.01,1.01l-1.724,1.724h1.847a.714.714,0,0,1,0,1.429H74.714ZM74,84A10,10,0,1,1,84,74,10,10,0,0,1,74,84Zm0-1.429A8.571,8.571,0,1,0,65.429,74,8.572,8.572,0,0,0,74,82.571Z" transform="translate(-64 -64)"/>
</svg>
