<svg xmlns="http://www.w3.org/2000/svg" width="20" height="20" viewBox="0 0 20 20">
  <defs>
    <style>
      .cls-1 {
        fill: none;
      }

      .cls-2 {
        fill: #ff6398;
      }
    </style>
  </defs>
  <g id="设置" transform="translate(-1382 -215)">
    <rect id="矩形_1117" data-name="矩形 1117" class="cls-1" width="20" height="20" transform="translate(1382 215)"/>
    <g id="组_771" data-name="组 771" transform="translate(1383.667 216.667)">
      <path id="路径_267" data-name="路径 267" class="cls-2" d="M16.066,7.116,15.38,6.43a1.988,1.988,0,0,1-.587-1.4V4.034A1.988,1.988,0,0,0,12.8,2.045H11.81a1.988,1.988,0,0,1-1.4-.587L9.742.793a1.988,1.988,0,0,0-2.814,0l-.686.686a1.988,1.988,0,0,1-1.4.587H3.846A1.988,1.988,0,0,0,1.858,4.054v.994a1.988,1.988,0,0,1-.587,1.4l-.686.686a1.988,1.988,0,0,0,0,2.814l.686.686a1.988,1.988,0,0,1,.587,1.4v.994A1.988,1.988,0,0,0,3.846,15.02h.994a1.988,1.988,0,0,1,1.4.587l.686.686a1.988,1.988,0,0,0,2.814,0l.686-.686a1.988,1.988,0,0,1,1.4-.587h.994a1.988,1.988,0,0,0,1.988-1.988v-.994a1.988,1.988,0,0,1,.587-1.4l.686-.686a1.988,1.988,0,0,0-.02-2.834ZM15.36,9.224l-.686.686a2.983,2.983,0,0,0-.875,2.108v.994a.994.994,0,0,1-.994.994H11.81a2.983,2.983,0,0,0-2.108.875l-.686.686a.994.994,0,0,1-1.4,0l-.636-.706a2.983,2.983,0,0,0-2.108-.875H3.876a.994.994,0,0,1-.994-.994V12A2.983,2.983,0,0,0,2.007,9.91l-.686-.686a.994.994,0,0,1,0-1.4l.686-.656a2.983,2.983,0,0,0,.875-2.108V4.064a.994.994,0,0,1,.994-.994h.994a2.983,2.983,0,0,0,2.108-.875l.686-.686a.994.994,0,0,1,1.4,0l.656.686a2.983,2.983,0,0,0,2.108.875h.994a.994.994,0,0,1,.994.994v.994a2.983,2.983,0,0,0,.855,2.108l.686.686a.994.994,0,0,1,0,1.4Z" transform="translate(-0.002 -0.209)"/>
      <path id="路径_268" data-name="路径 268" class="cls-2" d="M301.313,296.819a3.48,3.48,0,1,0,3.48,3.48A3.48,3.48,0,0,0,301.313,296.819Zm0,5.965A2.486,2.486,0,1,1,303.8,300.3,2.486,2.486,0,0,1,301.313,302.784Z" transform="translate(-292.985 -291.99)"/>
    </g>
  </g>
</svg>
