<svg xmlns="http://www.w3.org/2000/svg" width="1221" height="2501" viewBox="0 0 1221 2501">
  <defs>
    <style>
      .cls-1, .cls-2 {
        fill: #0042b5;
      }

      .cls-2 {
        font-size: 14px;
        font-family: YuGothicUI-Regular, Yu Gothic UI;
      }

      .cls-3 {
        font-family: SegoeUI, Segoe UI;
      }

      .cls-4 {
        font-family: MicrosoftJhengHeiUIRegular, Microsoft JhengHei UI;
      }

      .cls-5 {
        fill: #1369ff;
      }

      .cls-6, .cls-7 {
        stroke: none;
      }

      .cls-7 {
        fill: #ffe040;
      }
    </style>
  </defs>
  <g id="组_740" data-name="组 740" transform="translate(-360 -1960.5)">
    <g id="组_739" data-name="组 739" transform="translate(21 288)">
      <g id="矩形" class="cls-1" transform="translate(360 1702)">
        <path class="cls-6" d="M 1160 2467 L 40 2467 C 35.20562362670898 2467 30.55687522888184 2466.061767578125 26.18312454223633 2464.212158203125 C 21.95656204223633 2462.42431640625 18.15937423706055 2459.864013671875 14.89781284332275 2456.6025390625 C 11.63593769073486 2453.340576171875 9.075625419616699 2449.543701171875 7.28781270980835 2445.31689453125 C 5.438125133514404 2440.943115234375 4.5 2436.29443359375 4.5 2431.5 L 4.5 40.5 C 4.5 35.70562362670898 5.438125133514404 31.05687522888184 7.28781270980835 26.68312454223633 C 9.075625419616699 22.45656204223633 11.63593769073486 18.65937423706055 14.89781284332275 15.39781284332275 C 18.15937423706055 12.13593769073486 21.95656204223633 9.575625419616699 26.18312454223633 7.78781270980835 C 30.55687522888184 5.938125133514404 35.20562362670898 5 40 5 L 1160 5 C 1164.79443359375 5 1169.443115234375 5.938125133514404 1173.81689453125 7.78781270980835 C 1178.043701171875 9.575625419616699 1181.840576171875 12.13593769073486 1185.1025390625 15.39781284332275 C 1188.364013671875 18.65937423706055 1190.92431640625 22.45656204223633 1192.712158203125 26.68312454223633 C 1194.561889648438 31.05687522888184 1195.5 35.70562362670898 1195.5 40.5 L 1195.5 2431.5 C 1195.5 2436.29443359375 1194.561889648438 2440.943115234375 1192.712158203125 2445.31689453125 C 1190.92431640625 2449.543701171875 1188.364013671875 2453.340576171875 1185.1025390625 2456.6025390625 C 1181.840576171875 2459.864013671875 1178.043701171875 2462.42431640625 1173.81689453125 2464.212158203125 C 1169.443115234375 2466.061767578125 1164.79443359375 2467 1160 2467 Z"/>
        <path class="cls-7" d="M 40 9.5 C 22.9066162109375 9.5 9 23.406494140625 9 40.5 L 9 2431.5 C 9 2448.593505859375 22.9066162109375 2462.5 40 2462.5 L 1160 2462.5 C 1177.093383789063 2462.5 1191 2448.593505859375 1191 2431.5 L 1191 40.5 C 1191 23.406494140625 1177.093383789063 9.5 1160 9.5 L 40 9.5 M 40 0.5 L 1160 0.5 C 1182.091552734375 0.5 1200 18.40869140625 1200 40.5 L 1200 2431.5 C 1200 2453.591552734375 1182.091552734375 2471.5 1160 2471.5 L 40 2471.5 C 17.908447265625 2471.5 0 2453.591552734375 0 2431.5 L 0 40.5 C 0 18.40869140625 17.908447265625 0.5 40 0.5 Z"/>
      </g>
      <text id="背景故事_活动规则_活动奖品" data-name="背景故事/活动规则/活动奖品" class="cls-2" transform="translate(869 2016.5)"><tspan x="0" y="0">背景故事</tspan><tspan class="cls-3" y="0">/</tspan><tspan y="0">活</tspan><tspan class="cls-4" y="0">动规则</tspan><tspan class="cls-3" y="0">/</tspan><tspan y="0">活</tspan><tspan class="cls-4" y="0">动奖</tspan><tspan y="0">品</tspan></text>
    </g>
    <g id="组_726" data-name="组 726" transform="translate(0 258)">
      <g id="矩形-2" data-name="矩形" class="cls-5" transform="translate(360 1702)">
        <path class="cls-6" d="M 1160 2462 L 40 2462 C 35.20562362670898 2462 30.55687522888184 2461.061767578125 26.18312454223633 2459.212158203125 C 21.95656204223633 2457.42431640625 18.15937423706055 2454.864013671875 14.89781284332275 2451.602294921875 C 11.63593769073486 2448.340576171875 9.075625419616699 2444.54345703125 7.28781270980835 2440.31689453125 C 5.438125133514404 2435.943115234375 4.5 2431.29443359375 4.5 2426.5 L 4.5 40.5 C 4.5 35.70562362670898 5.438125133514404 31.05687522888184 7.28781270980835 26.68312454223633 C 9.075625419616699 22.45656204223633 11.63593769073486 18.65937423706055 14.89781284332275 15.39781284332275 C 18.15937423706055 12.13593769073486 21.95656204223633 9.575625419616699 26.18312454223633 7.78781270980835 C 30.55687522888184 5.938125133514404 35.20562362670898 5 40 5 L 1160 5 C 1164.79443359375 5 1169.443115234375 5.938125133514404 1173.81689453125 7.78781270980835 C 1178.043701171875 9.575625419616699 1181.840576171875 12.13593769073486 1185.1025390625 15.39781284332275 C 1188.364013671875 18.65937423706055 1190.92431640625 22.45656204223633 1192.712158203125 26.68312454223633 C 1194.561889648438 31.05687522888184 1195.5 35.70562362670898 1195.5 40.5 L 1195.5 2426.5 C 1195.5 2431.29443359375 1194.561889648438 2435.943115234375 1192.712158203125 2440.31689453125 C 1190.92431640625 2444.54345703125 1188.364013671875 2448.340576171875 1185.1025390625 2451.602294921875 C 1181.840576171875 2454.864013671875 1178.043701171875 2457.42431640625 1173.81689453125 2459.212158203125 C 1169.443115234375 2461.061767578125 1164.79443359375 2462 1160 2462 Z"/>
        <path class="cls-7" d="M 40 9.5 C 22.9066162109375 9.5 9 23.406494140625 9 40.5 L 9 2426.5 C 9 2443.593505859375 22.9066162109375 2457.5 40 2457.5 L 1160 2457.5 C 1177.093383789063 2457.5 1191 2443.593505859375 1191 2426.5 L 1191 40.5 C 1191 23.406494140625 1177.093383789063 9.5 1160 9.5 L 40 9.5 M 40 0.5 L 1160 0.5 C 1182.091552734375 0.5 1200 18.40869140625 1200 40.5 L 1200 2426.5 C 1200 2448.59130859375 1182.091552734375 2466.5 1160 2466.5 L 40 2466.5 C 17.908447265625 2466.5 0 2448.59130859375 0 2426.5 L 0 40.5 C 0 18.40869140625 17.908447265625 0.5 40 0.5 Z"/>
      </g>
    </g>
  </g>
</svg>
