<svg xmlns="http://www.w3.org/2000/svg" width="1221" height="500" viewBox="0 0 1221 500">
  <defs>
    <style>
      .cls-1, .cls-2 {
        fill: #0042b5;
      }

      .cls-2 {
        font-size: 14px;
        font-family: YuGothicUI-Regular, Yu Gothic UI;
      }

      .cls-3 {
        font-family: SegoeUI, Segoe UI;
      }

      .cls-4 {
        font-family: MicrosoftJhengHeiUIRegular, Microsoft JhengHei UI;
      }

      .cls-5 {
        fill: #1369ff;
      }

      .cls-6, .cls-7 {
        stroke: none;
      }

      .cls-7 {
        fill: #ffe040;
      }
    </style>
  </defs>
  <g id="组_740" data-name="组 740" transform="translate(-360 -1960.5)">
    <g id="组_739" data-name="组 739" transform="translate(21 288)">
      <g id="矩形" class="cls-1" transform="translate(360 1702)">
        <path class="cls-6" d="M 1160 466 L 40 466 C 35.20553970336914 466 30.55692291259766 465.06201171875 26.18323135375977 463.212158203125 C 21.95646095275879 461.42431640625 18.15938377380371 458.864013671875 14.89769268035889 455.602294921875 C 11.63599967956543 452.3406066894531 9.075692176818848 448.5435485839844 7.287846088409424 444.3167724609375 C 5.438000202178955 439.9430847167969 4.5 435.2944641113281 4.5 430.5 L 4.5 40.5 C 4.5 35.70553970336914 5.438000202178955 31.05692291259766 7.287846088409424 26.68323135375977 C 9.075692176818848 22.45646095275879 11.63599967956543 18.65938377380371 14.89769268035889 15.39769268035889 C 18.15938377380371 12.13599967956543 21.95646095275879 9.575692176818848 26.18323135375977 7.787846088409424 C 30.55692291259766 5.938000202178955 35.20553970336914 5 40 5 L 1160 5 C 1164.79443359375 5 1169.443115234375 5.938000202178955 1173.816772460938 7.787846088409424 C 1178.043579101563 9.575692176818848 1181.840576171875 12.13599967956543 1185.102294921875 15.39769268035889 C 1188.364013671875 18.65938377380371 1190.92431640625 22.45646095275879 1192.712158203125 26.68323135375977 C 1194.56201171875 31.05692291259766 1195.5 35.70553970336914 1195.5 40.5 L 1195.5 430.5 C 1195.5 435.2944641113281 1194.56201171875 439.9430847167969 1192.712158203125 444.3167724609375 C 1190.92431640625 448.5435485839844 1188.364013671875 452.3406066894531 1185.102294921875 455.602294921875 C 1181.840576171875 458.864013671875 1178.043579101563 461.42431640625 1173.816772460938 463.212158203125 C 1169.443115234375 465.06201171875 1164.79443359375 466 1160 466 Z"/>
        <path class="cls-7" d="M 40 9.5 C 22.9066162109375 9.5 9 23.4066162109375 9 40.5 L 9 430.5 C 9 447.5933837890625 22.9066162109375 461.5 40 461.5 L 1160 461.5 C 1177.093383789063 461.5 1191 447.5933837890625 1191 430.5 L 1191 40.5 C 1191 23.4066162109375 1177.093383789063 9.5 1160 9.5 L 40 9.5 M 40 0.5 L 1160 0.5 C 1182.091430664063 0.5 1200 18.40863037109375 1200 40.5 L 1200 430.5 C 1200 452.5913696289063 1182.091430664063 470.5 1160 470.5 L 40 470.5 C 17.9085693359375 470.5 0 452.5913696289063 0 430.5 L 0 40.5 C 0 18.40863037109375 17.9085693359375 0.5 40 0.5 Z"/>
      </g>
      <text id="背景故事_活动规则_活动奖品" data-name="背景故事/活动规则/活动奖品" class="cls-2" transform="translate(869 2016.5)"><tspan x="0" y="0">背景故事</tspan><tspan class="cls-3" y="0">/</tspan><tspan y="0">活</tspan><tspan class="cls-4" y="0">动规则</tspan><tspan class="cls-3" y="0">/</tspan><tspan y="0">活</tspan><tspan class="cls-4" y="0">动奖</tspan><tspan y="0">品</tspan></text>
    </g>
    <g id="组_726" data-name="组 726" transform="translate(0 258)">
      <g id="矩形-2" data-name="矩形" class="cls-5" transform="translate(360 1702)">
        <path class="cls-6" d="M 1160 473 L 40 473 C 36.00707626342773 473 31.71969223022461 471.23291015625 27.25692367553711 467.7479858398438 C 23.36523056030273 464.7089233398438 19.39061546325684 460.4115295410156 15.44369220733643 454.9755249023438 C 9.717151641845703 447.0883483886719 5.72279167175293 439.0679321289063 4.5 436.5017700195313 L 4.5 40.5 C 4.5 35.70553970336914 5.438000202178955 31.05692291259766 7.287846088409424 26.68323135375977 C 9.075692176818848 22.45646095275879 11.63599967956543 18.65938377380371 14.89769268035889 15.39769268035889 C 18.15938377380371 12.13599967956543 21.95646095275879 9.575692176818848 26.18323135375977 7.787846088409424 C 30.55692291259766 5.938000202178955 35.20553970336914 5 40 5 L 1160 5 C 1164.79443359375 5 1169.443115234375 5.938000202178955 1173.816772460938 7.787846088409424 C 1178.043579101563 9.575692176818848 1181.840576171875 12.13599967956543 1185.102294921875 15.39769268035889 C 1188.364013671875 18.65938377380371 1190.92431640625 22.45646095275879 1192.712158203125 26.68323135375977 C 1194.56201171875 31.05692291259766 1195.5 35.70553970336914 1195.5 40.5 L 1195.5 437.5 C 1195.5 442.2944641113281 1194.56201171875 446.9430847167969 1192.712158203125 451.3167724609375 C 1190.92431640625 455.5435485839844 1188.364013671875 459.3406066894531 1185.102294921875 462.602294921875 C 1181.840576171875 465.864013671875 1178.043579101563 468.42431640625 1173.816772460938 470.212158203125 C 1169.443115234375 472.06201171875 1164.79443359375 473 1160 473 Z"/>
        <path class="cls-7" d="M 40 9.5 C 22.9066162109375 9.5 9 23.4066162109375 9 40.5 L 9 435.5077514648438 C 14.67431640625 447.3017272949219 28.3546142578125 468.5 40 468.5 L 1160 468.5 C 1177.093383789063 468.5 1191 454.5933837890625 1191 437.5 L 1191 40.5 C 1191 23.4066162109375 1177.093383789063 9.5 1160 9.5 L 40 9.5 M 40 0.5 L 1160 0.5 C 1182.091430664063 0.5 1200 18.40863037109375 1200 40.5 L 1200 437.5 C 1200 459.5913696289063 1182.091430664063 477.5 1160 477.5 L 40 477.5 C 17.9085693359375 477.5 0 437.5 0 437.5 L 0 40.5 C 0 18.40863037109375 17.9085693359375 0.5 40 0.5 Z"/>
      </g>
    </g>
  </g>
</svg>
