<svg xmlns="http://www.w3.org/2000/svg" width="1608" height="23" viewBox="0 0 1608 23">
  <defs>
    <style>
      .cls-1 {
        fill: #ffe040;
      }
    </style>
  </defs>
  <g id="组_56" data-name="组 56" transform="translate(-527.442 -873)">
    <path id="Rectangle_3" data-name="Rectangle 3" class="cls-1" d="M5.219,1c.222-.848.083-1,1-1h14c1.3,0,2.315.8,2,2l-5,19c-.222.848-1.083,2-2,2h-13c-1.3,0-2.315-.8-2-2Z" transform="translate(527.281 873)"/>
    <path id="Rectangle_3-2" data-name="Rectangle 3" class="cls-1" d="M4.435,1c.222-.848,1.083-1,2-1h14c1.3,0,2.315.8,2,2l-5,19c-.222.848-1.083,2-2,2h-14c-1.3,0-2.315-.8-2-2Z" transform="translate(1502.994 873)"/>
    <path id="Rectangle_3-3" data-name="Rectangle 3" class="cls-1" d="M4.327,1c.222-.848,1.083-1,2-1h14c1.3,0,2.315.8,2,2l-5,19c-.222.848-1.083,2-2,2h-14c-1.3,0-2.315-.8-2-2Z" transform="translate(1015.138 873)"/>
    <path id="Rectangle_3-4" data-name="Rectangle 3" class="cls-1" d="M4.543,1c.222-.848,1.083-1,2-1h14c1.3,0,2.315.8,2,2l-5,19c-.222.848-1.083,2-2,2h-14c-1.3,0-2.315-.8-2-2Z" transform="translate(1990.841 873)"/>
    <path id="Rectangle_3-5" data-name="Rectangle 3" class="cls-1" d="M5.273,1c.222-.848.083-1,1-1h14c1.3,0,2.315.8,2,2l-5,19c-.222.848-1.083,2-2,2h-14c-1.3,0-1.315-.8-1-2Z" transform="translate(771.227 873)"/>
    <path id="Rectangle_3-6" data-name="Rectangle 3" class="cls-1" d="M4.489,1c.222-.848,1.083-1,2-1h14c1.3,0,2.315.8,2,2l-5,19c-.222.848-1.083,2-2,2h-14c-1.3,0-2.315-.8-2-2Z" transform="translate(1746.922 873)"/>
    <path id="Rectangle_3-7" data-name="Rectangle 3" class="cls-1" d="M4.381,1c.222-.848,1.083-1,2-1h14c1.3,0,2.315.8,2,2l-5,19c-.222.848-1.083,2-2,2h-14c-1.3,0-2.315-.8-2-2Z" transform="translate(1259.066 873)"/>
    <path id="Rectangle_3-8" data-name="Rectangle 3" class="cls-1" d="M5.232,1c.222-.848.083-1,1-1h14c1.3,0,2.315.8,2,2l-5,19c-.222.848-1.083,2-2,2h-14c-1.3,0-1.315-.8-1-2Z" transform="translate(588.268 873)"/>
    <path id="Rectangle_3-9" data-name="Rectangle 3" class="cls-1" d="M4.448,1c.222-.848,1.083-1,2-1h14c1.3,0,2.315.8,2,2l-5,19c-.222.848-1.083,2-2,2h-14c-1.3,0-2.315-.8-2-2Z" transform="translate(1563.976 873)"/>
    <path id="Rectangle_3-10" data-name="Rectangle 3" class="cls-1" d="M4.34,1c.222-.848,1.083-1,2-1h14c1.3,0,2.315.8,2,2l-5,19c-.222.848-1.083,2-2,2h-14c-1.3,0-2.315-.8-2-2Z" transform="translate(1076.12 873)"/>
    <path id="Rectangle_3-11" data-name="Rectangle 3" class="cls-1" d="M4.556,1c.222-.848,1.083-1,2-1h14c1.3,0,2.315.8,2,2l-5,19c-.222.848-1.083,2-2,2h-14c-1.3,0-2.315-.8-2-2Z" transform="translate(2051.828 873)"/>
    <path id="Rectangle_3-12" data-name="Rectangle 3" class="cls-1" d="M4.286,1c.222-.848,1.083-1,2-1h14c1.3,0,2.315.8,2,2l-5,19c-.222.848-1.083,2-2,2h-14c-1.3,0-2.315-.8-2-2Z" transform="translate(832.192 873)"/>
    <path id="Rectangle_3-13" data-name="Rectangle 3" class="cls-1" d="M4.5,1c.222-.848,1.083-1,2-1h14c1.3,0,2.315.8,2,2l-5,19c-.222.848-1.083,2-2,2H1.5c-1.3,0-2.315-.8-2-2Z" transform="translate(1807.904 873)"/>
    <path id="Rectangle_3-14" data-name="Rectangle 3" class="cls-1" d="M4.394,1c.222-.848,1.083-1,2-1h14c1.3,0,2.315.8,2,2l-5,19c-.222.848-1.083,2-2,2h-14c-1.3,0-2.315-.8-2-2Z" transform="translate(1320.048 873)"/>
    <path id="Rectangle_3-15" data-name="Rectangle 3" class="cls-1" d="M5.246,1c.222-.848.083-1,1-1h14c1.3,0,2.315.8,2,2l-5,19c-.222.848-1.083,2-2,2h-14c-1.3,0-1.315-.8-1-2Z" transform="translate(649.254 873)"/>
    <path id="Rectangle_3-16" data-name="Rectangle 3" class="cls-1" d="M4.462,1c.222-.848,1.083-1,2-1h14c1.3,0,2.315.8,2,2l-5,19c-.222.848-1.083,2-2,2h-14c-1.3,0-2.315-.8-2-2Z" transform="translate(1624.958 873)"/>
    <path id="Rectangle_3-17" data-name="Rectangle 3" class="cls-1" d="M4.354,1c.222-.848,1.083-1,2-1h14c1.3,0,2.315.8,2,2l-5,19c-.222.848-1.083,2-2,2h-14c-1.3,0-2.315-.8-2-2Z" transform="translate(1137.102 873)"/>
    <path id="Rectangle_3-18" data-name="Rectangle 3" class="cls-1" d="M4.57,1c.222-.848,1.083-1,2-1h14c1.3,0,2.315.8,2,2l-5,19c-.222.848-1.083,2-2,2h-14c-1.3,0-2.315-.8-2-2Z" transform="translate(2112.814 873)"/>
    <path id="Rectangle_3-19" data-name="Rectangle 3" class="cls-1" d="M4.3,1c.222-.848,1.083-1,2-1h14c1.3,0,2.315.8,2,2l-5,19c-.222.848-1.083,2-2,2H1.3c-1.3,0-2.315-.8-2-2Z" transform="translate(893.174 873)"/>
    <path id="Rectangle_3-20" data-name="Rectangle 3" class="cls-1" d="M4.516,1c.222-.848,1.083-1,2-1h14c1.3,0,2.315.8,2,2l-5,19c-.222.848-1.083,2-2,2h-14c-1.3,0-2.315-.8-2-2Z" transform="translate(1868.869 873)"/>
    <path id="Rectangle_3-21" data-name="Rectangle 3" class="cls-1" d="M4.408,1c.222-.848,1.083-1,2-1h14c1.3,0,2.315.8,2,2l-5,19c-.222.848-1.083,2-2,2h-14c-1.3,0-2.315-.8-2-2Z" transform="translate(1381.03 873)"/>
    <path id="Rectangle_3-22" data-name="Rectangle 3" class="cls-1" d="M5.259,1c.222-.848.083-1,1-1h14c1.3,0,2.315.8,2,2l-5,19c-.222.848-1.083,2-2,2h-14c-1.3,0-1.315-.8-1-2Z" transform="translate(710.241 873)"/>
    <path id="Rectangle_3-23" data-name="Rectangle 3" class="cls-1" d="M4.475,1c.222-.848,1.083-1,2-1h14c1.3,0,2.315.8,2,2l-5,19c-.222.848-1.083,2-2,2h-14c-1.3,0-2.315-.8-2-2Z" transform="translate(1685.94 873)"/>
    <path id="Rectangle_3-24" data-name="Rectangle 3" class="cls-1" d="M4.367,1c.222-.848,1.083-1,2-1h14c1.3,0,2.315.8,2,2l-5,19c-.222.848-1.083,2-2,2h-14c-1.3,0-2.315-.8-2-2Z" transform="translate(1198.084 873)"/>
    <path id="Rectangle_3-25" data-name="Rectangle 3" class="cls-1" d="M4.313,1c.222-.848,1.083-1,2-1h14c1.3,0,2.315.8,2,2l-5,19c-.222.848-1.083,2-2,2h-14c-1.3,0-2.315-.8-2-2Z" transform="translate(954.156 873)"/>
    <path id="Rectangle_3-26" data-name="Rectangle 3" class="cls-1" d="M4.529,1c.222-.848,1.083-1,2-1h14c1.3,0,2.315.8,2,2l-5,19c-.222.848-1.083,2-2,2h-14c-1.3,0-2.315-.8-2-2Z" transform="translate(1929.855 873)"/>
    <path id="Rectangle_3-27" data-name="Rectangle 3" class="cls-1" d="M4.421,1c.222-.848,1.083-1,2-1h14c1.3,0,2.315.8,2,2l-5,19c-.222.848-1.083,2-2,2h-14c-1.3,0-2.315-.8-2-2Z" transform="translate(1442.012 873)"/>
  </g>
</svg>
