   <svg id="body" xmlns="http://www.w3.org/2000/svg" cursor="pointer" width="80px" height="96px" viewBox="0 5 50 50">

        <g  stroke="none" stroke-width="1" fill="none" fill-rule="evenodd">
            <defs>
                <radialGradient cx="69.8723107%" cy="16.8740877%" fx="69.8723107%" fy="16.8740877%" r="79.3993644%"
                    id="radialGradient-1">
                    <stop stop-color="#D6F0F0" offset="0%"></stop>
                    <stop stop-color="#D3EEEE" offset="100%"></stop>
                </radialGradient>
                <radialGradient cx="89.0662402%" cy="0%" fx="89.0662402%" fy="0%" r="118.522906%" id="radialGradient-2">
                    <stop stop-color="#7BC9CE" offset="0%"></stop>
                    <stop stop-color="#59BCC2" offset="99.9480988%"></stop>
                </radialGradient>
            </defs>
            <g id="ear_group" transform=" translate(1.000000, 1.000000)">
                <g id="编组-4" transform="translate(9.327688, 0.000000)">
                    <g id="ear">
                        <g transform="translate(7.8, 17.614906)  translate(-17.154436, -17.614906) translate(3.154436, 8.614906) ">
                            <g>
                                <path
                                    d="M6.68943058,3.13357868 C3.62626456,0.175499558 1.4980591,-0.688273104 0.304814205,0.54226069 C-1.48505313,2.38806138 5.11578992,3.7675795 6.90413925,5.13082406 C7.49385151,4.34606215 7.42228196,3.68031369 6.68943058,3.13357868 Z"
                                    id="路径" stroke="#514B4C" stroke-width="0.5" fill="#74F0F7">
                                </path>
                                <path
                                    d="M6.94267719,4.49536777 C3.15533911,7.01117081 -0.759890585,13.981108 1.06199376,17.1448282 C2.88387811,20.3085484 3.37703726,10.0800548 7.29855568,6.33530503 C6.89369706,4.38153718 7.3475358,6.44913562 6.94267719,4.49536777 Z"
                                    id="路径-2" stroke="#514B4C" stroke-width="0.5" fill="#74F0F7">
                                </path>
                                <rect id="矩形" fill-opacity="0.01" fill="#D8D8D8" x="24.8455636" y="11.6072158" width="3"
                                    height="3"></rect>
                                <animateTransform
                                attributeName="transform"
                                    type="rotate"
                                    begin="body.click"
                                    dur="0.1s"
                                    from="0 7.5 5.3"
                                    to="10 7.5 5.3"
                                    repeatCount="indefinite" />
                            </g>
                        </g>
                    </g>
                </g>

                <g id="fire" fill="#FD96AE" stroke="#514B4C" stroke-width="0.5">
                 <path transform="translate(4, -2)"
                        d="M24.3040248,50.2221215 C22.9904068,47.5231703 23.0411158,45.9796996 24.456152,45.5917094 C25.8711881,45.2037192 25.8204791,46.7471899 24.3040248,50.2221215 Z"
                        id="路径-6" stroke="#514B4C" stroke-width="0.5" fill="#FD96AE">
                    </path>
                    <path visibility="hidden"
                        d="M27.6780294,59.5332551 C23.969485,51.4747366 24.1126445,46.8662475 28.1075076,45.7077878 C32.1023708,44.5493282 31.9592114,49.1578173 27.6780294,59.5332551 Z"
                        id="路径-6">
                        <set attributeName="visibility"
                             begin="body.click"
                             to="visible"
                             repeatCount="1"
                             fill="remove" />
                        <animateTransform attributeType="XML"
                            attributeName="transform"
                            begin="body.click"
                            type="translate"
                            from="0 -4"
                            to="0 -5"
                            calcMode="discrete"
                            dur="0.01s"
                            fill="remove"
                            repeatCount="indefinite"/>
                    </path>

                </g>

                <g transform="translate(10)">
                    <path
                        d="M13.1950291,37.2221215 L24.1495944,37.2221215 C24.7018791,37.2221215 25.1495944,37.6698368 25.1495944,38.2221215 C25.1495944,38.3074765 25.1386663,38.3924804 25.1170768,38.4750598 L23.8098782,43.4750598 C23.6948246,43.9151369 23.2972641,44.2221215 22.8423958,44.2221215 L14.5022276,44.2221215 C14.0473594,44.2221215 13.6497988,43.9151369 13.5347452,43.4750598 L12.2275467,38.4750598 C12.0878527,37.9407341 12.407765,37.3943331 12.9420907,37.2546391 C13.0246702,37.2330496 13.109674,37.2221215 13.1950291,37.2221215 Z"
                        id="矩形" stroke="#514B4C" stroke-width="0.5" fill="#D6F0F0"></path>
                    <path
                        d="M16.3450311,38.9772347 L16.8954216,44.2212347 L14.5022276,44.2221215 C14.0473594,44.2221215 13.6497988,43.9151369 13.5347452,43.4750598 L12.4664216,39.3842347 L16.3450311,38.9772347 Z"
                        id="形状结合" fill="#C8E6E6"></path>
                    <path
                        d="M24.1495944,37.2221215 C24.7018791,37.2221215 25.1495944,37.6698368 25.1495944,38.2221215 C25.1495944,38.3074765 25.1386663,38.3924804 25.1170768,38.4750598 L24.5320922,40.7136646 C22.8355779,41.7193026 20.8262416,42.2221215 18.6723117,42.2221215 C16.5183818,42.2221215 14.5090456,41.7193026 12.8125313,40.7136646 L12.2275467,38.4750598 C12.0878527,37.9407341 12.407765,37.3943331 12.9420907,37.2546391 C13.0246702,37.2330496 13.109674,37.2221215 13.1950291,37.2221215 L24.1495944,37.2221215 Z"
                        id="形状结合" fill="#C8E6E6"></path>
                    <path
                        d="M18.6723117,7.41417399 C28.1145998,19.4590165 32.8357438,28.5971444 32.8357438,34.8285576 C23.7655373,38.2760461 13.2999754,38.2760461 4.50887966,34.8285576 C4.50887966,28.5971444 9.23002368,19.4590165 18.6723117,7.41417399 Z"
                        id="三角形" stroke="#514B4C" stroke-width="0.5" fill="#FD96AE"></path>
                    <path
                        d="M15.6723117,19.2221215 L15.6724622,37.3112489 C11.8142462,37.0359504 8.02744362,36.2083866 4.50887966,34.8285576 C4.50887966,30.825759 6.45693653,25.6235804 10.3530503,19.2220219 L15.6723117,19.2221215 Z"
                        id="形状结合" stroke="#514B4C" stroke-width="0.5" fill="#EA7692"></path>
                    <path
                        d="M8.56318175,25.952952 C5.39110483,25.3642415 -1.42331505,21.7585215 0.264705786,13.8541703 C1.95272662,5.94981904 10.6856614,4.6300348 14.7020929,7.037162 C18.7185244,9.44428919 12.4873504,24.1318319 8.56318175,25.952952 Z"
                        id="路径-3" stroke="#C37184" stroke-width="0.5" fill="#FFD8E2"></path>
                    <path
                        d="M15.7020929,7.037162 C19.7185244,9.44428919 13.4873504,24.1318319 9.56318175,25.952952 C8.79386484,25.8101733 7.81030625,25.4899349 6.78575648,24.9739539 C7.22746195,17.0048304 8.95478636,10.6716754 11.967963,5.97416085 C13.3862464,6.06288924 14.6930212,6.43240529 15.7020929,7.037162 Z"
                        id="形状结合" fill="#FFD1DD"></path>
                    <path
                        d="M8.56318175,25.952952 C5.39110483,25.3642415 -1.42331505,21.7585215 0.264705786,13.8541703 C1.95272662,5.94981904 10.6856614,4.6300348 14.7020929,7.037162 C18.7185244,9.44428919 12.4873504,24.1318319 8.56318175,25.952952 Z"
                        id="路径-3" stroke="#C37184" stroke-width="0.5"></path>
                    <path
                        d="M18.6723117,41.2221215 C24.747444,41.2221215 29.6723117,37.2221215 29.6723117,29.2221215 C29.6723117,14.817311 26.0056451,5.07660381 18.6723117,2.32347475e-12 C11.3389784,5.07660381 7.67231172,14.817311 7.67231172,29.2221215 C7.67231172,37.2221215 12.5971795,41.2221215 18.6723117,41.2221215 Z"
                        id="椭圆形" stroke="#838181" stroke-width="0.5" fill="#FFFFFF"></path>
                    <path
                        d="M18.6723117,3.55271368e-15 C19.5620176,0.615911492 20.3977524,1.30047578 21.179516,2.05369287 C16.4826235,5.31268756 12.6941077,12.8190815 11.7435271,21.8632515 C10.9589416,29.3280837 12.283243,36.170169 14.971305,40.6738602 C10.7169683,39.3295624 7.67231172,35.512284 7.67231172,29.2221215 C7.67231172,14.817311 11.3389784,5.07660381 18.6723117,3.55271368e-15 Z"
                        id="形状结合" fill="#F7F2F2"></path>
                    <path
                        d="M18.6723117,41.2221215 C24.747444,41.2221215 29.6723117,37.2221215 29.6723117,29.2221215 C29.6723117,14.817311 26.0056451,5.07660381 18.6723117,2.32347475e-12 C11.3389784,5.07660381 7.67231172,14.817311 7.67231172,29.2221215 C7.67231172,37.2221215 12.5971795,41.2221215 18.6723117,41.2221215 Z"
                        id="椭圆形" stroke="#838181" stroke-width="0.5"></path>
                    <path
                        d="M18.6723117,2.33857378e-12 C21.8487337,2.19892305 24.3372245,5.27291386 26.1377842,9.22197245 L11.2068393,9.22197245 C13.007399,5.27291386 15.4958898,2.19892305 18.6723117,2.33857378e-12 Z"
                        id="形状结合" fill="#FC95AE"></path>
                    <path
                        d="M15.7170348,8.49090546 C15.6869546,8.73588923 15.6602213,8.97966528 15.6367739,9.22204353 L11.2068393,9.22197245 C12.8990319,5.51058869 15.1988411,2.57211018 18.1062667,0.406536932 C16.9729416,2.53862984 16.1024278,5.3521313 15.7170348,8.49090546 Z"
                        id="形状结合" fill="#EA7692"></path>
                    <path
                        d="M18.6723117,2.33857378e-12 C21.8487337,2.19892305 24.3372245,5.27291386 26.1377842,9.22197245 L11.2068393,9.22197245 C13.007399,5.27291386 15.4958898,2.19892305 18.6723117,2.33857378e-12 Z"
                        id="形状结合" stroke="#CE8395" stroke-width="0.5"></path>
                    <path
                        d="M18.3920867,29.2221215 L18.9525368,29.2221215 C19.2241762,29.2221215 19.4461245,29.4389977 19.4524032,29.7105645 L19.6604845,38.7105645 C19.6668672,38.9866331 19.4482436,39.2156052 19.172175,39.2219879 C19.1683233,39.222077 19.1644707,39.2221215 19.160618,39.2221215 L18.1840054,39.2221215 C17.907863,39.2221215 17.6840054,38.9982639 17.6840054,38.7221215 C17.6840054,38.7182688 17.6840499,38.7144162 17.684139,38.7105645 L17.8922203,29.7105645 C17.8984989,29.4389977 18.1204473,29.2221215 18.3920867,29.2221215 Z"
                        id="矩形" stroke="#514B4C" stroke-width="0.5" fill="#FD96AE"></path>
                    <circle id="椭圆形" fill="url(#radialGradient-1)" cx="18.6723117" cy="21.2221215" r="5"></circle>
                    <path
                        d="M14.6723117,19.7221215 C14.6723117,22.7596876 17.1347456,25.2221215 20.1723117,25.2221215 C20.8413741,25.2221215 21.4825336,25.102655 22.0756222,24.8838899 C21.1837658,25.7144713 19.9873228,26.2221215 18.6723117,26.2221215 C15.910888,26.2221215 13.6723117,23.9835453 13.6723117,21.2221215 C13.6723117,19.9070624 14.1799991,18.71058 15.0100696,17.8179785 C14.7917825,18.4118771 14.6723117,19.0530474 14.6723117,19.7221215 Z"
                        id="形状结合" fill="#C8E6E6"></path>
                    <circle id="椭圆形" stroke="url(#radialGradient-2)" stroke-width="0.5" cx="18.6723117" cy="21.2221215"
                        r="5">
                    </circle>
                    <circle id="椭圆形" fill="#FFFFFF" cx="20.6723117" cy="19.2221215" r="1"></circle>
                    <path
                        d="M18.6723117,2.30215846e-12 C25.0165854,4.39191327 28.616554,12.2746601 29.4722174,23.6482403 C31.7148142,28.0657198 32.8357438,31.7922058 32.8357438,34.8285576 C31.2341405,35.4373099 29.5890301,35.9385696 27.917314,36.3323368 C27.1146292,37.6696145 26.0678495,38.7318349 24.8449835,39.5201811 L23.8098782,43.4750598 C23.6948246,43.9151369 23.2972641,44.2221215 22.8423958,44.2221215 L14.5022276,44.2221215 C14.0473594,44.2221215 13.6497988,43.9151369 13.5347452,43.4750598 L12.5001184,39.5204895 C11.2874057,38.7387889 10.2478456,37.6877635 9.44738541,36.3674133 C7.758511,35.9674525 6.10605978,35.4549027 4.50887966,34.8285576 C4.50887966,32.2257801 5.33254016,29.1158912 6.97986115,25.4988909 C3.58391905,24.2207949 -1.17707401,20.6054696 0.264705786,13.8541703 C1.71850256,7.04660005 8.39779504,5.12306767 12.7891685,6.258049 C14.3790464,3.70042949 16.34028,1.61438194 18.6723117,2.30215846e-12 Z"
                        id="形状结合" stroke="#514B4C" stroke-width="0.5"></path>
                </g>

                <g id="eye_group">
                    <g id="eyeone" visibility="hidden" transform="translate(12, 8)" stroke="#514B4C" stroke-width="0.5">
                        <g>
                            <circle id="椭圆形" fill="#FFFFFF" cx="4.5" cy="2.5" r="2.25"></circle>
                            <circle id="椭圆形备份" fill="#FFFFFF" cx="2" cy="9" r="1.75"></circle>
                            <path
                                d="M6.16528351,6.41825947 L5.99654073,7.75286521 C5.96651703,7.80224756 5.92129883,7.83812003 5.86985133,7.85716405 C5.82999657,7.87191684 5.78640353,7.87657069 5.74324004,7.8695828 L5.74324004,7.8695828 L5.21028012,6.9446977 C5.18672768,6.88444693 5.18819255,6.82009971 5.21003855,6.76363833 C5.23118405,6.70898739 5.2714246,6.66172468 5.32655583,6.63271646 L5.32655583,6.63271646 L6.16528351,6.41825947 Z"
                                id="三角形" fill="#FC95AE"></path>
                        </g>
                        <set fill="remove"
                             attributeName="visibility"
                             begin="body.click"
                             to="visible"
                             repeatCount="1" />
                    </g>

                    <g id="eyetwo" transform="translate(12, 8.992292)">
                        <g>
                            <circle id="椭圆形" fill="#686364" cx="3.5838094" cy="5.72982925" r="1"></circle>
                            <path
                                d="M0.474739876,10.0044769 C0.362610939,8.99282427 0.40041519,7.97821856 0.58815263,6.96065975"
                                id="路径-4" stroke="#686364" stroke-linecap="round">
                            </path>
                            <path
                                d="M1.92037734,2.86747319 C2.53198199,1.61695165 3.27418127,0.661127256 4.14697517,9.1038288e-15"
                                id="路径-5" stroke="#686364" stroke-linecap="round"></path>
                        </g>
                        <set fill="remove"
                            attributeName ="visibility"
                            begin="body.click"
                            to="hidden"
                            repeatCount="1" />
                    </g>
                </g>
            </g>
        </g>
    </svg>
