<?xml version="1.0" encoding="UTF-8"?>
<svg width="23px" height="26px" viewBox="0 0 23 26" version="1.1" xmlns="http://www.w3.org/2000/svg" xmlns:xlink="http://www.w3.org/1999/xlink">
    <title>Icon-remen</title>
    <g id="页面-1" stroke="none" stroke-width="1" fill="none" fill-rule="evenodd">
        <g id="Icon-remen" fill-rule="nonzero">
            <g id="编组">
                <path d="M12.0275675,15.8247109 C11.0914349,15.8247109 10.6233687,16.5364042 10.6233687,17.6091773 C10.6233687,18.7988216 11.0914349,19.3936437 12.0275675,19.3936437 C12.9637001,19.3936437 13.4317664,18.7988216 13.4317664,17.6091773 C13.3134639,16.5625694 12.9637001,15.9450708 12.0275675,15.8247109 Z" id="路径" fill="#D3322E"></path>
                <path d="M17.0579943,4.76206578 C17.6443631,6.19068552 17.757522,8.33099858 16.589928,9.51889852 C14.6045039,1.66933955 9.56379,0 9.56379,0 C10.1501588,4.04513939 7.46006348,8.44612547 4.76996818,11.7795715 C4.6516657,10.115465 4.53850682,9.04269194 3.74125105,7.49894534 C3.50978969,10.4713117 1.40091957,12.8523446 0.701391913,15.709584 C0.233325616,18.2057438 0.583089431,20.4664168 2.33705216,22.5125351 C5.14544992,25.2494147 12.3927621,28.6979876 19.7583768,22.632895 C26.5376227,15.5892241 18.6936545,5.96566483 17.0579943,4.76206578 Z M8.63794459,20.4611837 L7.35204818,20.4611837 L7.35204818,18.2057438 L5.0117167,18.2057438 L5.0117167,20.4664168 L3.72582029,20.4664168 L3.72582029,14.8618317 L5.0117167,14.8618317 L5.0117167,17.1225046 L7.46520706,17.1225046 L7.46520706,14.8618317 L8.75110346,14.8618317 L8.75110346,20.4664168 L8.63794459,20.4611837 Z M12.0275675,20.5815436 C10.2718903,20.4629281 9.33575772,19.5105149 9.21916976,17.7243042 C9.33747224,15.8194779 10.2478869,14.8670647 12.0275675,14.7519378 C13.7815302,14.8722978 14.5993604,15.7985457 14.7176628,17.7243042 C14.7176628,19.5087706 13.7815302,20.4611837 12.0275675,20.5815436 Z M18.3438907,15.9398377 L18.3438907,20.5815436 L17.0579943,20.5815436 L17.0579943,15.9450708 L15.3040316,15.9450708 L15.3040316,14.8618317 L20.0978534,14.8618317 L20.0978534,15.9084395 L18.3438907,15.9398377 Z" id="形状" fill="#D3322E"></path>
                <path d="M18.3490343,20.5815436 L18.3490343,15.9398377 L20.0978534,15.9398377 L20.0978534,14.8722977 L15.3040316,14.8722977 L15.3040316,15.9398377 L17.0579943,15.9398377 L17.0579943,20.5815436 L18.3490343,20.5815436 Z M9.22431334,17.7295372 C9.34090128,19.515748 10.2770339,20.4681611 12.0327111,20.5867767 C13.7866738,20.4664167 14.7228064,19.5401688 14.7228064,17.7295372 C14.6045039,15.8247109 13.7866738,14.8722978 12.0327111,14.7571709 C10.2736048,14.8618317 9.34261582,15.8247109 9.22431334,17.7295372 Z M13.4317664,17.6091773 C13.4317664,18.7988216 12.9637001,19.3936437 12.0275675,19.3936437 C11.091435,19.3936437 10.6233687,18.7988216 10.6233687,17.6091773 C10.6233687,16.5625694 11.0914349,15.8247109 12.0275675,15.8247109 C12.9637001,15.9450708 13.3186075,16.5364042 13.4317664,17.6091773 Z M8.64308817,20.4611837 L8.75624707,20.4611837 L8.75624707,14.8722977 L7.47035064,14.8722977 L7.47035064,17.1329707 L5.01686028,17.1329707 L5.01686028,14.8722977 L3.73096387,14.8722977 L3.73096387,20.4611837 L5.01686028,20.4611837 L5.01686028,18.2005107 L7.35204818,18.2005107 L7.35204818,20.4611837 L8.64308817,20.4611837 L8.64308817,20.4611837 Z" id="形状" fill="#FFFFFF"></path>
            </g>
        </g>
    </g>
</svg>
