<svg xmlns="http://www.w3.org/2000/svg" width="844" height="12" viewBox="0 0 844 12">
  <defs>
    <style>
      .cls-1 {
        fill: #ff778f;
      }
    </style>
  </defs>
  <g id="组_56" data-name="组 56" transform="translate(-527 -873)">
    <path id="Rectangle_3" data-name="Rectangle 3" class="cls-1" d="M2.373.757A1.041,1.041,0,0,1,3.391,0h7.278a1.012,1.012,0,0,1,1.018,1.243l-2.623,10A1.041,1.041,0,0,1,8.047,12H.768A1.012,1.012,0,0,1-.249,10.757Z" transform="translate(527.281 873)"/>
    <path id="Rectangle_3-2" data-name="Rectangle 3" class="cls-1" d="M2.373.757A1.041,1.041,0,0,1,3.391,0h7.278a1.012,1.012,0,0,1,1.018,1.243l-2.623,10A1.041,1.041,0,0,1,8.047,12H.768A1.012,1.012,0,0,1-.249,10.757Z" transform="translate(1039.281 873)"/>
    <path id="Rectangle_3-3" data-name="Rectangle 3" class="cls-1" d="M2.373.757A1.041,1.041,0,0,1,3.391,0h7.278a1.012,1.012,0,0,1,1.018,1.243l-2.623,10A1.041,1.041,0,0,1,8.047,12H.768A1.012,1.012,0,0,1-.249,10.757Z" transform="translate(783.281 873)"/>
    <path id="Rectangle_3-4" data-name="Rectangle 3" class="cls-1" d="M2.373.757A1.041,1.041,0,0,1,3.391,0h7.278a1.012,1.012,0,0,1,1.018,1.243l-2.623,10A1.041,1.041,0,0,1,8.047,12H.768A1.012,1.012,0,0,1-.249,10.757Z" transform="translate(1295.281 873)"/>
    <path id="Rectangle_3-5" data-name="Rectangle 3" class="cls-1" d="M2.373.757A1.041,1.041,0,0,1,3.391,0h7.278a1.012,1.012,0,0,1,1.018,1.243l-2.623,10A1.041,1.041,0,0,1,8.047,12H.768A1.012,1.012,0,0,1-.249,10.757Z" transform="translate(655.281 873)"/>
    <path id="Rectangle_3-6" data-name="Rectangle 3" class="cls-1" d="M2.373.757A1.041,1.041,0,0,1,3.391,0h7.278a1.012,1.012,0,0,1,1.018,1.243l-2.623,10A1.041,1.041,0,0,1,8.047,12H.768A1.012,1.012,0,0,1-.249,10.757Z" transform="translate(1167.281 873)"/>
    <path id="Rectangle_3-7" data-name="Rectangle 3" class="cls-1" d="M2.373.757A1.041,1.041,0,0,1,3.391,0h7.278a1.012,1.012,0,0,1,1.018,1.243l-2.623,10A1.041,1.041,0,0,1,8.047,12H.768A1.012,1.012,0,0,1-.249,10.757Z" transform="translate(911.281 873)"/>
    <path id="Rectangle_3-8" data-name="Rectangle 3" class="cls-1" d="M2.373.757A1.041,1.041,0,0,1,3.391,0h7.278a1.012,1.012,0,0,1,1.018,1.243l-2.623,10A1.041,1.041,0,0,1,8.047,12H.768A1.012,1.012,0,0,1-.249,10.757Z" transform="translate(559.281 873)"/>
    <path id="Rectangle_3-9" data-name="Rectangle 3" class="cls-1" d="M2.373.757A1.041,1.041,0,0,1,3.391,0h7.278a1.012,1.012,0,0,1,1.018,1.243l-2.623,10A1.041,1.041,0,0,1,8.047,12H.768A1.012,1.012,0,0,1-.249,10.757Z" transform="translate(1071.281 873)"/>
    <path id="Rectangle_3-10" data-name="Rectangle 3" class="cls-1" d="M2.373.757A1.041,1.041,0,0,1,3.391,0h7.278a1.012,1.012,0,0,1,1.018,1.243l-2.623,10A1.041,1.041,0,0,1,8.047,12H.768A1.012,1.012,0,0,1-.249,10.757Z" transform="translate(815.281 873)"/>
    <path id="Rectangle_3-11" data-name="Rectangle 3" class="cls-1" d="M2.373.757A1.041,1.041,0,0,1,3.391,0h7.278a1.012,1.012,0,0,1,1.018,1.243l-2.623,10A1.041,1.041,0,0,1,8.047,12H.768A1.012,1.012,0,0,1-.249,10.757Z" transform="translate(1327.281 873)"/>
    <path id="Rectangle_3-12" data-name="Rectangle 3" class="cls-1" d="M2.373.757A1.041,1.041,0,0,1,3.391,0h7.278a1.012,1.012,0,0,1,1.018,1.243l-2.623,10A1.041,1.041,0,0,1,8.047,12H.768A1.012,1.012,0,0,1-.249,10.757Z" transform="translate(687.281 873)"/>
    <path id="Rectangle_3-13" data-name="Rectangle 3" class="cls-1" d="M2.373.757A1.041,1.041,0,0,1,3.391,0h7.278a1.012,1.012,0,0,1,1.018,1.243l-2.623,10A1.041,1.041,0,0,1,8.047,12H.768A1.012,1.012,0,0,1-.249,10.757Z" transform="translate(1199.281 873)"/>
    <path id="Rectangle_3-14" data-name="Rectangle 3" class="cls-1" d="M2.373.757A1.041,1.041,0,0,1,3.391,0h7.278a1.012,1.012,0,0,1,1.018,1.243l-2.623,10A1.041,1.041,0,0,1,8.047,12H.768A1.012,1.012,0,0,1-.249,10.757Z" transform="translate(943.281 873)"/>
    <path id="Rectangle_3-15" data-name="Rectangle 3" class="cls-1" d="M2.373.757A1.041,1.041,0,0,1,3.391,0h7.278a1.012,1.012,0,0,1,1.018,1.243l-2.623,10A1.041,1.041,0,0,1,8.047,12H.768A1.012,1.012,0,0,1-.249,10.757Z" transform="translate(591.281 873)"/>
    <path id="Rectangle_3-16" data-name="Rectangle 3" class="cls-1" d="M2.373.757A1.041,1.041,0,0,1,3.391,0h7.278a1.012,1.012,0,0,1,1.018,1.243l-2.623,10A1.041,1.041,0,0,1,8.047,12H.768A1.012,1.012,0,0,1-.249,10.757Z" transform="translate(1103.281 873)"/>
    <path id="Rectangle_3-17" data-name="Rectangle 3" class="cls-1" d="M2.373.757A1.041,1.041,0,0,1,3.391,0h7.278a1.012,1.012,0,0,1,1.018,1.243l-2.623,10A1.041,1.041,0,0,1,8.047,12H.768A1.012,1.012,0,0,1-.249,10.757Z" transform="translate(847.281 873)"/>
    <path id="Rectangle_3-18" data-name="Rectangle 3" class="cls-1" d="M2.373.757A1.041,1.041,0,0,1,3.391,0h7.278a1.012,1.012,0,0,1,1.018,1.243l-2.623,10A1.041,1.041,0,0,1,8.047,12H.768A1.012,1.012,0,0,1-.249,10.757Z" transform="translate(1359.281 873)"/>
    <path id="Rectangle_3-19" data-name="Rectangle 3" class="cls-1" d="M2.373.757A1.041,1.041,0,0,1,3.391,0h7.278a1.012,1.012,0,0,1,1.018,1.243l-2.623,10A1.041,1.041,0,0,1,8.047,12H.768A1.012,1.012,0,0,1-.249,10.757Z" transform="translate(719.281 873)"/>
    <path id="Rectangle_3-20" data-name="Rectangle 3" class="cls-1" d="M2.373.757A1.041,1.041,0,0,1,3.391,0h7.278a1.012,1.012,0,0,1,1.018,1.243l-2.623,10A1.041,1.041,0,0,1,8.047,12H.768A1.012,1.012,0,0,1-.249,10.757Z" transform="translate(1231.281 873)"/>
    <path id="Rectangle_3-21" data-name="Rectangle 3" class="cls-1" d="M2.373.757A1.041,1.041,0,0,1,3.391,0h7.278a1.012,1.012,0,0,1,1.018,1.243l-2.623,10A1.041,1.041,0,0,1,8.047,12H.768A1.012,1.012,0,0,1-.249,10.757Z" transform="translate(975.281 873)"/>
    <path id="Rectangle_3-22" data-name="Rectangle 3" class="cls-1" d="M2.373.757A1.041,1.041,0,0,1,3.391,0h7.278a1.012,1.012,0,0,1,1.018,1.243l-2.623,10A1.041,1.041,0,0,1,8.047,12H.768A1.012,1.012,0,0,1-.249,10.757Z" transform="translate(623.281 873)"/>
    <path id="Rectangle_3-23" data-name="Rectangle 3" class="cls-1" d="M2.373.757A1.041,1.041,0,0,1,3.391,0h7.278a1.012,1.012,0,0,1,1.018,1.243l-2.623,10A1.041,1.041,0,0,1,8.047,12H.768A1.012,1.012,0,0,1-.249,10.757Z" transform="translate(1135.281 873)"/>
    <path id="Rectangle_3-24" data-name="Rectangle 3" class="cls-1" d="M2.373.757A1.041,1.041,0,0,1,3.391,0h7.278a1.012,1.012,0,0,1,1.018,1.243l-2.623,10A1.041,1.041,0,0,1,8.047,12H.768A1.012,1.012,0,0,1-.249,10.757Z" transform="translate(879.281 873)"/>
    <path id="Rectangle_3-25" data-name="Rectangle 3" class="cls-1" d="M2.373.757A1.041,1.041,0,0,1,3.391,0h7.278a1.012,1.012,0,0,1,1.018,1.243l-2.623,10A1.041,1.041,0,0,1,8.047,12H.768A1.012,1.012,0,0,1-.249,10.757Z" transform="translate(751.281 873)"/>
    <path id="Rectangle_3-26" data-name="Rectangle 3" class="cls-1" d="M2.373.757A1.041,1.041,0,0,1,3.391,0h7.278a1.012,1.012,0,0,1,1.018,1.243l-2.623,10A1.041,1.041,0,0,1,8.047,12H.768A1.012,1.012,0,0,1-.249,10.757Z" transform="translate(1263.281 873)"/>
    <path id="Rectangle_3-27" data-name="Rectangle 3" class="cls-1" d="M2.373.757A1.041,1.041,0,0,1,3.391,0h7.278a1.012,1.012,0,0,1,1.018,1.243l-2.623,10A1.041,1.041,0,0,1,8.047,12H.768A1.012,1.012,0,0,1-.249,10.757Z" transform="translate(1007.281 873)"/>
  </g>
</svg>
