<svg xmlns="http://www.w3.org/2000/svg" width="20" height="20" viewBox="0 0 20 20">
  <defs>
    <style>
      .cls-1 {
        fill: #fff;
        stroke: #ff6398;
        stroke-width: 2px;
      }

      .cls-2 {
        fill: #ff6398;
      }

      .cls-3 {
        stroke: none;
      }

      .cls-4 {
        fill: none;
      }
    </style>
  </defs>
  <g id="组_828" data-name="组 828" transform="translate(6715 -4335)">
    <g id="椭圆_18" data-name="椭圆 18" class="cls-1" transform="translate(-6715 4335)">
      <circle class="cls-3" cx="10" cy="10" r="10"/>
      <circle class="cls-4" cx="10" cy="10" r="9"/>
    </g>
    <path id="路径_316" data-name="路径 316" class="cls-2" d="M86.575,95.7a.337.337,0,0,1,0,.461l0,0-.714.74h1.327a1.274,1.274,0,0,1,1.25,1.3v4.541a1.274,1.274,0,0,1-1.25,1.3H81.25a1.274,1.274,0,0,1-1.25-1.3V98.206a1.274,1.274,0,0,1,1.25-1.3h1.329l-.714-.74a.337.337,0,0,1,0-.465.31.31,0,0,1,.449,0l1.163,1.205h1.486L86.126,95.7A.31.31,0,0,1,86.575,95.7ZM83.682,99.1a.509.509,0,0,0-.5.517v1.723a.551.551,0,0,0,.068.264.5.5,0,0,0,.693.182l1.348-.852a.5.5,0,0,0,.166-.172.535.535,0,0,0-.156-.72l-1.358-.862A.458.458,0,0,0,83.682,99.1Z" transform="translate(-6789.13 4244.392)"/>
  </g>
</svg>
