<?xml version="1.0" encoding="UTF-8"?>
<svg width="19px" height="20px" viewBox="0 0 19 20" version="1.1" xmlns="http://www.w3.org/2000/svg" xmlns:xlink="http://www.w3.org/1999/xlink">
    <title>Icon-duihuanma备份</title>
    <g id="页面-1" stroke="none" stroke-width="1" fill="none" fill-rule="evenodd">
        <g id="充值记录备份" transform="translate(-401.000000, -547.000000)" fill="#FA89AF" fill-rule="nonzero">
            <g id="Icon-duihuanma备份" transform="translate(401.000000, 547.000000)">
                <path d="M16.7864583,4.68979779 L13.8502604,4.68979779 C14.0976562,4.25321691 14.2300347,3.75229779 14.2300347,3.23069853 C14.2300347,2.47242647 13.9500868,1.7578125 13.4444444,1.22012868 C12.9366319,0.682444853 12.2638889,0.386029412 11.5455729,0.386029412 C10.8294271,0.386029412 10.1545139,0.682444853 9.64670139,1.21783088 C9.36892361,1.51654412 9.15407986,1.87959559 9.02170139,2.28400735 C8.88932292,1.87959559 8.67447917,1.51654412 8.39453125,1.22012868 C7.34852431,0.112591912 5.64496528,0.112591912 4.59895833,1.22012868 C3.71137153,2.15992647 3.57682292,3.59834559 4.19314236,4.68979779 L1.25477431,4.68979779 C0.584201389,4.68979779 0.0373263889,5.26884191 0.0373263889,5.97886029 L0.0373263889,8.19393382 C0.0373263889,8.90395221 0.584201389,9.48299632 1.25477431,9.48299632 L1.60633681,9.48299632 C1.59331597,9.57261029 1.58463542,9.66222426 1.58463542,9.75643382 L1.58463542,17.8860294 C1.58463542,18.7959559 2.28559028,19.5381434 3.14496528,19.5381434 L14.8984375,19.5381434 C15.3151042,19.5381434 15.7078993,19.3658088 16.0030382,19.051011 C16.2981771,18.738511 16.4587674,18.3226103 16.4565972,17.8837316 L16.4565972,9.75643382 C16.4565972,9.66222426 16.4479167,9.57261029 16.4348958,9.48299632 L16.7886285,9.48299632 C17.1141493,9.48299632 17.4201389,9.34742647 17.6523437,9.1015625 C17.8823785,8.85799632 18.0060764,8.53400735 18.0060764,8.19163603 L18.0060764,5.97886029 C18.0039062,5.26884191 17.4570312,4.68979779 16.7864583,4.68979779 L16.7864583,4.68979779 Z M10.1762153,2.99632353 C10.1892361,2.96415441 10.2000868,2.9296875 10.2087674,2.89292279 C10.2695312,2.62178309 10.3953993,2.38051471 10.5690104,2.19439338 C10.8294271,1.91865809 11.1766493,1.76470588 11.5455729,1.76470588 C11.9144965,1.76470588 12.2617187,1.91636029 12.5221354,2.19439338 C12.7825521,2.47242647 12.9279514,2.83777574 12.9279514,3.22840074 C12.9279514,3.61902574 12.7847222,3.98667279 12.5221354,4.26240809 C12.3398437,4.45542279 12.1206597,4.58409926 11.8667535,4.64613971 C11.8493924,4.65073529 11.8320312,4.65533088 11.8146701,4.66222426 C11.7430556,4.67601103 11.6692708,4.68520221 11.5954861,4.6875 L9.82682292,4.6875 L10.1762153,2.99632353 L10.1762153,2.99632353 Z M5.51909722,2.19439338 C5.77951389,1.91865809 6.12673611,1.76470588 6.49565972,1.76470588 C6.86458333,1.76470588 7.21180556,1.91636029 7.47222222,2.19439338 C7.64800347,2.38051471 7.77170139,2.62178309 7.83246528,2.89292279 C7.84114583,2.92738971 7.85199653,2.96185662 7.86501736,2.99632353 L8.21223958,4.6875 L6.44357639,4.6875 C6.36979167,4.68520221 6.29383681,4.67830882 6.22439236,4.66222426 C6.20703125,4.65533088 6.18967014,4.65073529 6.17230903,4.64613971 C5.91840278,4.58409926 5.69921875,4.45542279 5.51692708,4.26240809 C4.98090278,3.69485294 4.98090278,2.76424632 5.51909722,2.19439338 L5.51909722,2.19439338 Z M1.33940972,6.06847426 L8.37065972,6.06847426 L8.37065972,8.10431985 L1.33940972,8.10431985 L1.33940972,6.06847426 L1.33940972,6.06847426 Z M2.88671875,17.8860294 L2.88671875,9.75643382 C2.88671875,9.60477941 3.00173611,9.48299632 3.14496528,9.48299632 L8.37065972,9.48299632 L8.37065972,18.1594669 L3.14496528,18.1594669 C3.00173611,18.1594669 2.88671875,18.0376838 2.88671875,17.8860294 L2.88671875,17.8860294 Z M15.1545139,9.75643382 L15.1545139,17.8883272 C15.1545139,17.9848346 15.108941,18.0491728 15.0807292,18.0790441 C15.0525174,18.1089154 14.9917535,18.1594669 14.8984375,18.1594669 L9.67274306,18.1594669 L9.67274306,9.48299632 L14.8962674,9.48299632 C15.0394965,9.48299632 15.1545139,9.60477941 15.1545139,9.75643382 L15.1545139,9.75643382 Z M16.7018229,8.10431985 L9.67274306,8.10431985 L9.67274306,6.10294118 L9.67274306,6.06847426 L16.7018229,6.06847426 L16.7018229,8.10431985 L16.7018229,8.10431985 Z" id="形状"></path>
            </g>
        </g>
    </g>
</svg>