<svg xmlns="http://www.w3.org/2000/svg" xmlns:xlink="http://www.w3.org/1999/xlink" width="57" height="17" viewBox="0 0 57 17">
  <defs>
    <clipPath id="clip-path">
      <rect id="矩形_1203" data-name="矩形 1203" width="7.668" height="5.61" fill="none"/>
    </clipPath>
  </defs>
  <g id="组_892" data-name="组 892" transform="translate(-695.28 -754.355)">
    <g id="组_889" data-name="组 889" transform="translate(695.28 754.355)">
      <path id="路径_365" data-name="路径 365" d="M706.561,755.664l1.276,2.1a1.728,1.728,0,0,0,.975.744l2.449.749a1.6,1.6,0,0,1,.966,2.381l-1.3,2.083a1.547,1.547,0,0,0-.2,1.163l.531,2.361a1.669,1.669,0,0,1-1.718,1.974l-2.576-.012a1.817,1.817,0,0,0-1.176.419l-1.917,1.611a1.816,1.816,0,0,1-2.684-.407l-1.277-2.1a1.729,1.729,0,0,0-.975-.745l-2.449-.749a1.6,1.6,0,0,1-.966-2.381l1.3-2.083a1.547,1.547,0,0,0,.2-1.163l-.531-2.361a1.669,1.669,0,0,1,1.718-1.974l2.576.013a1.817,1.817,0,0,0,1.176-.419l1.917-1.611A1.816,1.816,0,0,1,706.561,755.664Z" transform="translate(-695.28 -754.744)" fill="#5fe8ff"/>
      <path id="路径_366" data-name="路径 366" d="M707.32,754.964l1.618,1.879a1.775,1.775,0,0,0,1.09.59l2.545.373a1.633,1.633,0,0,1,1.36,2.207L713,762.266a1.54,1.54,0,0,0,0,1.179l.927,2.253a1.633,1.633,0,0,1-1.36,2.207l-2.545.374a1.777,1.777,0,0,0-1.09.589l-1.618,1.879a1.823,1.823,0,0,1-2.719,0l-1.618-1.879a1.778,1.778,0,0,0-1.09-.589l-2.545-.374a1.633,1.633,0,0,1-1.36-2.207l.927-2.253a1.54,1.54,0,0,0,0-1.179l-.927-2.252a1.633,1.633,0,0,1,1.36-2.207l2.545-.373a1.776,1.776,0,0,0,1.09-.59l1.618-1.879A1.822,1.822,0,0,1,707.32,754.964Z" transform="translate(-697.367 -754.355)" fill="#5eb7ff"/>
      <g id="矩形_1202" data-name="矩形 1202" transform="translate(3.249 4.198)" fill="none" stroke="#5fe8ff" stroke-miterlimit="10" stroke-width="5">
        <rect width="11.271" height="8.243" rx="4.122" stroke="none"/>
        <rect x="2.5" y="2.5" width="6.271" height="3.243" rx="1.622" fill="none"/>
      </g>
      <g id="组_888" data-name="组 888" transform="translate(5.194 5.508)">
        <g id="组_887" data-name="组 887">
          <g id="组_886" data-name="组 886" clip-path="url(#clip-path)">
            <path id="路径_367" data-name="路径 367" d="M724.492,790.031c-.436.391-.726.367-1.021.071l-.338-.363a.759.759,0,0,1,0-1.072l1.446-1.451a.753.753,0,0,1,1.068,0l.267.268a.76.76,0,0,1,.156.846l.646.494a1.139,1.139,0,0,0,0-1.607l-.8-.8a1.13,1.13,0,0,0-1.6,0l-1.98,1.987a1.139,1.139,0,0,0,0,1.607l.8.8a1.131,1.131,0,0,0,1.6,0l.764-.791-.546-.524Zm4.895-3.35-.8-.8a1.131,1.131,0,0,0-1.6,0s.032-.008-.434.459l.532.51.237-.261a.754.754,0,0,1,1.068,0l.267.268a.76.76,0,0,1,0,1.072l-1.3,1.356a.753.753,0,0,1-1.068,0l-.22-.363c-.463-.346-.321-.429-.281-.662l-.587-.581a1.139,1.139,0,0,0,0,1.607l.8.8a1.131,1.131,0,0,0,1.6,0l1.791-1.8a1.353,1.353,0,0,0,0-1.607Zm0,0" transform="translate(-722.001 -785.544)" fill="#fff"/>
          </g>
        </g>
      </g>
      <circle id="椭圆_36" data-name="椭圆 36" cx="0.389" cy="0.389" r="0.389" transform="translate(6.553 12.378)" fill="#5fe8ff"/>
      <circle id="椭圆_37" data-name="椭圆 37" cx="0.389" cy="0.389" r="0.389" transform="translate(8.302 12.378)" fill="#5fe8ff"/>
      <circle id="椭圆_38" data-name="椭圆 38" cx="0.389" cy="0.389" r="0.389" transform="translate(10.051 12.378)" fill="#5fe8ff"/>
    </g>
    <g id="组_890" data-name="组 890" transform="translate(713.555 756.55)">
      <path id="路径_368" data-name="路径 368" d="M789.537,771.971h.764l-.158,8.38H789.3Zm3.557-1.463h1.2v.909h-1.2v9.75h-2.556v-9.75h-1.173v-.909h1.173V768.6h2.556Zm1,1.463.105,6.522h-.764l-.106-6.522Zm7.7-2.556v.9h-.62v.922H798.5v-.922h-.791v.922h-2.648v-.922h-.619v-.9h.619v-.83h2.648v.83h.791v-.83h2.675v.83Zm-2.174,7.972h2.108v.883h-1.687l1.607,2.9h-2.872l-.632-1.476-.632,1.476h-2.846l1.594-2.9h-1.766v-.883h2.121v-.962h3Zm1.884-1.318h-6.76v-4.506h5.943a.787.787,0,0,1,.573.244.8.8,0,0,1,.244.587Zm-2.9-3.334a.245.245,0,0,0-.277-.277h-.712v.883h.988Zm0,1.568h-.988v.87h.988Z" transform="translate(-789.3 -768.585)" fill="#5eb7ff"/>
      <path id="路径_369" data-name="路径 369" d="M858.268,773.24h-.488v-.883h.553l.184-2.6h-.566v-.9h6.8v.9H864.3v2.6h.619v.883H864.3v3.043h-2.754V773.24h-.777l-.171,3.043h-2.543Zm11.608,7.154v.883H857.912v-.883h4.322v-1.7h-3.755v-.883h3.755v-1.12h3.32v1.12h3.755v.883h-3.755v1.7Zm-9.065-8.037h.7v-2.6h-.553Zm5.785,1.95h-1.41v-4.625h1.41Zm-.29,1.027h.646V768.72h2.635v7.563H866.3Z" transform="translate(-844.472 -768.694)" fill="#5eb7ff"/>
      <path id="路径_370" data-name="路径 370" d="M925.311,770.578h1.528v7.668h-1.528Zm4.533-1.858-.237,12.583H927l.316-12.583Zm2.912,3.2V770h-2.4v-.87h7.208V770H935.18v1.923h1.608a.81.81,0,0,1,.817.817v6.746h-2.214v-.975h.185v-5.429q0-.263-.277-.264h-.119v8.473h-2.425v-8.473h-.4v6.667h-2.029v-7.563Z" transform="translate(-898.879 -768.694)" fill="#5eb7ff"/>
    </g>
  </g>
</svg>
