<svg xmlns="http://www.w3.org/2000/svg" xmlns:xlink="http://www.w3.org/1999/xlink" width="17" height="17" viewBox="0 0 17 17">
  <defs>
    <clipPath id="clip-path">
      <rect id="矩形_1203" data-name="矩形 1203" width="7.668" height="5.61" fill="none"/>
    </clipPath>
  </defs>
  <g id="组_894" data-name="组 894" transform="translate(-695.28 -754.355)">
    <g id="组_889" data-name="组 889" transform="translate(695.28 754.355)">
      <path id="路径_365" data-name="路径 365" d="M706.438,755.664l1.263,2.1a1.711,1.711,0,0,0,.964.744l2.422.749a1.608,1.608,0,0,1,.956,2.381l-1.285,2.083a1.561,1.561,0,0,0-.2,1.163l.526,2.361a1.663,1.663,0,0,1-1.7,1.974l-2.548-.012a1.785,1.785,0,0,0-1.163.419l-1.9,1.611a1.784,1.784,0,0,1-2.655-.407l-1.263-2.1a1.713,1.713,0,0,0-.964-.745l-2.422-.749a1.607,1.607,0,0,1-.955-2.381l1.285-2.083a1.561,1.561,0,0,0,.2-1.163l-.526-2.361a1.663,1.663,0,0,1,1.7-1.974l2.548.013a1.785,1.785,0,0,0,1.163-.419l1.9-1.611A1.785,1.785,0,0,1,706.438,755.664Z" transform="translate(-695.28 -754.744)" fill="#5fe8ff"/>
      <path id="路径_366" data-name="路径 366" d="M707.211,754.964l1.6,1.879a1.749,1.749,0,0,0,1.077.59l2.516.373a1.634,1.634,0,0,1,1.344,2.207l-.917,2.252a1.557,1.557,0,0,0,0,1.179l.917,2.253A1.633,1.633,0,0,1,712.4,767.9l-2.516.374a1.751,1.751,0,0,0-1.077.589l-1.6,1.879a1.788,1.788,0,0,1-2.688,0l-1.6-1.879a1.752,1.752,0,0,0-1.077-.589l-2.516-.374a1.633,1.633,0,0,1-1.344-2.207l.917-2.253a1.557,1.557,0,0,0,0-1.179l-.917-2.252a1.634,1.634,0,0,1,1.344-2.207l2.516-.373a1.75,1.75,0,0,0,1.077-.59l1.6-1.879A1.787,1.787,0,0,1,707.211,754.964Z" transform="translate(-697.367 -754.355)" fill="#5eb7ff"/>
      <g id="矩形_1202" data-name="矩形 1202" transform="translate(3.249 4.198)" fill="none" stroke="#5fe8ff" stroke-miterlimit="10" stroke-width="5">
        <rect width="11.084" height="8.243" rx="4.122" stroke="none"/>
        <rect x="2.5" y="2.5" width="6.084" height="3.243" rx="1.622" fill="none"/>
      </g>
      <g id="组_888" data-name="组 888" transform="translate(5.092 5.508)">
        <g id="组_887" data-name="组 887">
          <g id="组_886" data-name="组 886" clip-path="url(#clip-path)">
            <path id="路径_367" data-name="路径 367" d="M724.492,790.031c-.436.391-.726.367-1.021.071l-.338-.363a.759.759,0,0,1,0-1.072l1.446-1.451a.753.753,0,0,1,1.068,0l.267.268a.76.76,0,0,1,.156.846l.646.494a1.139,1.139,0,0,0,0-1.607l-.8-.8a1.13,1.13,0,0,0-1.6,0l-1.98,1.987a1.139,1.139,0,0,0,0,1.607l.8.8a1.131,1.131,0,0,0,1.6,0l.764-.791-.546-.524Zm4.895-3.35-.8-.8a1.131,1.131,0,0,0-1.6,0s.032-.008-.434.459l.532.51.237-.261a.754.754,0,0,1,1.068,0l.267.268a.76.76,0,0,1,0,1.072l-1.3,1.356a.753.753,0,0,1-1.068,0l-.22-.363c-.463-.346-.321-.429-.281-.662l-.587-.581a1.139,1.139,0,0,0,0,1.607l.8.8a1.131,1.131,0,0,0,1.6,0l1.791-1.8a1.353,1.353,0,0,0,0-1.607Zm0,0" transform="translate(-722.001 -785.544)" fill="#fff"/>
          </g>
        </g>
      </g>
      <circle id="椭圆_36" data-name="椭圆 36" cx="0.389" cy="0.389" r="0.389" transform="translate(6.478 12.378)" fill="#5fe8ff"/>
      <circle id="椭圆_37" data-name="椭圆 37" cx="0.389" cy="0.389" r="0.389" transform="translate(8.207 12.378)" fill="#5fe8ff"/>
      <circle id="椭圆_38" data-name="椭圆 38" cx="0.389" cy="0.389" r="0.389" transform="translate(9.936 12.378)" fill="#5fe8ff"/>
    </g>
  </g>
</svg>
