<svg xmlns="http://www.w3.org/2000/svg" width="56" height="17" viewBox="0 0 56 17">
  <g id="组_885" data-name="组 885" transform="translate(-603.063 -865.544)">
    <g id="组_883" data-name="组 883" transform="translate(603.063 865.544)">
      <path id="路径_354" data-name="路径 354" d="M618.8,873.906a1.566,1.566,0,0,0-.827-2.319l-2.238-.783a1.6,1.6,0,0,1-.879-.742l-1.121-2.052a1.631,1.631,0,0,0-2.465-.458l-1.812,1.506a1.634,1.634,0,0,1-1.1.375l-2.376-.076a1.59,1.59,0,0,0-1.638,1.861l.427,2.289a1.55,1.55,0,0,1-.217,1.116l-1.255,1.976a1.566,1.566,0,0,0,.827,2.319l2.238.783a1.6,1.6,0,0,1,.879.742l1.121,2.052a1.631,1.631,0,0,0,2.465.458l1.812-1.507a1.634,1.634,0,0,1,1.1-.374l2.376.076a1.59,1.59,0,0,0,1.638-1.861L617.332,877a1.549,1.549,0,0,1,.217-1.116Zm-5.9,4.33c-1.3.728-1.858.182-2.6-1.092,0-.182-.743.182-1.115,0-.186-.182-.557-.364-.372-.728-.186.364.186.546.372.728.372.182,1.115-.182,1.115,0,.743,1.273,1.3,1.819,2.6,1.092-.186.182.186.364.186.546C613.086,878.6,612.714,878.418,612.9,878.236Z" transform="translate(-603.063 -866.873)" fill="#ffd96e"/>
      <path id="路径_355" data-name="路径 355" d="M619.092,874.633a1.606,1.606,0,0,1,0-1.179l.887-2.252a1.636,1.636,0,0,0-1.3-2.207l-2.434-.373a1.679,1.679,0,0,1-1.042-.589l-1.547-1.879a1.692,1.692,0,0,0-2.6,0l-1.547,1.879a1.679,1.679,0,0,1-1.042.589l-2.434.373a1.636,1.636,0,0,0-1.3,2.207l.887,2.252a1.607,1.607,0,0,1,0,1.179l-.887,2.252a1.636,1.636,0,0,0,1.3,2.207l2.434.374a1.678,1.678,0,0,1,1.042.589l1.547,1.879a1.692,1.692,0,0,0,2.6,0l1.547-1.879a1.678,1.678,0,0,1,1.042-.589l2.434-.374a1.635,1.635,0,0,0,1.3-2.207Zm-4.971,2.416c-1.3.728-1.858.182-2.6-1.093,0-.182-.743.182-1.115,0-.186-.182-.557-.364-.372-.728-.186.364.186.546.372.728.372.182,1.115-.182,1.115,0,.743,1.275,1.3,1.821,2.6,1.093-.186.182.186.364.186.546C614.307,877.413,613.935,877.231,614.121,877.049Z" transform="translate(-604.331 -865.544)" fill="#ff778f"/>
      <path id="路径_356" data-name="路径 356" d="M625.764,891.3a5.983,5.983,0,0,1-3.62.167,5.774,5.774,0,0,1-4.561-5.29,4.509,4.509,0,0,1,1.306-3.14,4.8,4.8,0,0,1,5.933-.641c1.72,1.27,2.1,3.826,1.435,4.519-.109.113-.458.4-.44.773a.823.823,0,0,0,.292.543c.339.271.639.033,1.136.256a1.232,1.232,0,0,1,.692.755,1.063,1.063,0,0,1-.157.769A4.612,4.612,0,0,1,625.764,891.3Z" transform="translate(-614.884 -878.645)" fill="#ffd96e"/>
      <g id="组_882" data-name="组 882" transform="translate(4.625 2.128)">
        <g id="组_881" data-name="组 881">
          <path id="路径_357" data-name="路径 357" d="M631.863,922.636c-1.022.584-1.46.146-2.044-.876,0-.146-.584.146-.876,0-.06-.059-.143-.119-.212-.189a6.107,6.107,0,0,1-.034,1.173,3.492,3.492,0,0,1-.744,1.514,11.247,11.247,0,0,0,1.658-.163,2.843,2.843,0,0,0,1.955-.919,2.511,2.511,0,0,0,.287-.363A.128.128,0,0,1,631.863,922.636Z" transform="translate(-627.953 -913.288)" fill="#fff"/>
          <path id="路径_358" data-name="路径 358" d="M634.8,913.348a1.751,1.751,0,0,0-1.811-.138,1.7,1.7,0,0,0-.748.911,1.826,1.826,0,0,0-.1.487c.069.07.152.129.212.189.292.146.876-.146.876,0,.584,1.022,1.022,1.46,2.044.876a.128.128,0,0,0-.01.177,1.851,1.851,0,0,0,.307-1A1.9,1.9,0,0,0,634.8,913.348Z" transform="translate(-631.362 -906.324)" fill="#fff"/>
          <path id="路径_359" data-name="路径 359" d="M648.082,877.035h0a.32.32,0,0,1,.128.426l-3.242,6.271a.319.319,0,0,1-.426.139l-1.085-.543a.319.319,0,0,1-.112-.478l4.326-5.728A.319.319,0,0,1,648.082,877.035Z" transform="translate(-640.432 -876.995)" fill="#fff"/>
        </g>
        <path id="路径_360" data-name="路径 360" d="M636.053,916.427c.091-.229.142-.329.091-.415-.069-.116-.277-.129-.415-.091a.552.552,0,0,0-.322.277.874.874,0,0,0-.091.415,4.69,4.69,0,0,0,0,.559c.228-.033.448-.107.484-.048l.023-.051C635.963,916.754,635.88,916.862,636.053,916.427Z" transform="translate(-633.941 -908.672)" fill="#ff778f"/>
        <path id="路径_361" data-name="路径 361" d="M635.1,922.432c0,.067,0,.138,0,.225-.012.409-.09.582-.044.6.08.031.36-.5.528-.872C635.553,922.324,635.333,922.4,635.1,922.432Z" transform="translate(-633.729 -913.931)" fill="#ff778f"/>
      </g>
      <ellipse id="椭圆_32" data-name="椭圆 32" cx="0.818" cy="0.743" rx="0.818" ry="0.743" transform="translate(7.254 3.531)" fill="#ff778f"/>
      <ellipse id="椭圆_33" data-name="椭圆 33" cx="0.818" cy="0.743" rx="0.818" ry="0.743" transform="translate(4.838 4.076)" fill="#ff778f"/>
      <ellipse id="椭圆_34" data-name="椭圆 34" cx="0.818" cy="0.743" rx="0.818" ry="0.743" transform="translate(3.352 5.894)" fill="#ff778f"/>
      <ellipse id="椭圆_35" data-name="椭圆 35" cx="0.818" cy="0.743" rx="0.818" ry="0.743" transform="translate(3.352 8.075)" fill="#ff778f"/>
    </g>
    <g id="组_884" data-name="组 884" transform="translate(620.098 867.934)">
      <path id="路径_362" data-name="路径 362" d="M700.98,880.995h.553v.87h-.553v2.892l.553-.128v.87l-.553.128v5.118h-3.527v-.908h.421v-3.48l-.632.153v-.87l.632-.154v-3.621h-.632v-.87h.632v-2.38h3.106Zm6.237,1.331v7.6h.5v-2.341h-.329v-.857h.329v-2.1a.241.241,0,0,0-.276-.269h-.053v-.87h1.474a.8.8,0,0,1,.573.237.766.766,0,0,1,.243.569v6.487h-7.646V883.49h2.3v.87h-.329v2.367h.329v.857h-.329v2.341h.487v-7.6h-2.671v-.87h2.671V879.7l-2.066.1v-.857l6.843-.333v.857l-2.053.1v1.881h2.671v.87Z" transform="translate(-697.243 -878.576)" fill="#ff778f"/>
      <path id="路径_363" data-name="路径 363" d="M781.864,879.96v.87H769.547v-.87Zm-2.711,2.3h2.474v9.6H769.8v-9.6h2.461v8.76h6.9Zm-.8-.4a.764.764,0,0,1,.243.569v8.005h-5.829v-8.811h5.014A.8.8,0,0,1,778.357,881.859Zm-3.2.671h-.434v2.775h.434Zm0,3.644h-.434v3.35h.434Zm1.5-3.376a.241.241,0,0,0-.276-.268h-.158v2.775h.434Zm0,3.376h-.434v3.35h.434Z" transform="translate(-756.111 -879.671)" fill="#ff778f"/>
      <path id="路径_364" data-name="路径 364" d="M840.859,880.207h1.526v7.448h-1.526Zm4.527-1.8-.237,12.221h-2.605l.316-12.221Zm2.908,3.11v-1.868H845.9V878.8h7.2v.845h-2.382v1.868h1.605a.8.8,0,0,1,.579.23.755.755,0,0,1,.237.563v6.552h-2.211v-.947h.184v-5.272q0-.256-.276-.256h-.118v8.229h-2.421v-8.229H847.9v6.476h-2.027v-7.346Z" transform="translate(-814.172 -878.403)" fill="#ff778f"/>
    </g>
  </g>
</svg>
