<svg xmlns="http://www.w3.org/2000/svg" width="17" height="17" viewBox="0 0 17 17">
  <g id="组_893" data-name="组 893" transform="translate(-603.063 -865.544)">
    <g id="组_883" data-name="组 883" transform="translate(603.063 865.544)">
      <path id="路径_354" data-name="路径 354" d="M619.8,873.906a1.533,1.533,0,0,0-.88-2.319l-2.381-.783a1.681,1.681,0,0,1-.935-.742l-1.192-2.052a1.8,1.8,0,0,0-2.622-.458l-1.927,1.506a1.809,1.809,0,0,1-1.166.375l-2.527-.076a1.627,1.627,0,0,0-1.742,1.861l.454,2.289a1.474,1.474,0,0,1-.23,1.116l-1.334,1.976a1.533,1.533,0,0,0,.88,2.319l2.381.783a1.681,1.681,0,0,1,.935.742l1.192,2.052a1.8,1.8,0,0,0,2.622.458l1.927-1.507a1.81,1.81,0,0,1,1.166-.374l2.527.076a1.627,1.627,0,0,0,1.742-1.861L618.24,877a1.473,1.473,0,0,1,.231-1.116Zm-6.278,4.33c-1.384.728-1.977.182-2.767-1.092,0-.182-.791.182-1.186,0-.2-.182-.593-.364-.4-.728-.2.364.2.546.4.728.4.182,1.186-.182,1.186,0,.791,1.273,1.384,1.819,2.767,1.092-.2.182.2.364.2.546C613.724,878.6,613.329,878.418,613.526,878.236Z" transform="translate(-603.063 -866.873)" fill="#ffd96e"/>
      <path id="路径_355" data-name="路径 355" d="M620.043,874.633a1.514,1.514,0,0,1,0-1.179l.945-2.252A1.633,1.633,0,0,0,619.6,869l-2.594-.373a1.821,1.821,0,0,1-1.11-.589l-1.648-1.879a1.881,1.881,0,0,0-2.771,0l-1.648,1.879a1.821,1.821,0,0,1-1.11.589l-2.594.373a1.633,1.633,0,0,0-1.386,2.207l.945,2.252a1.515,1.515,0,0,1,0,1.179l-.945,2.252a1.633,1.633,0,0,0,1.386,2.207l2.594.374a1.82,1.82,0,0,1,1.11.589l1.648,1.879a1.881,1.881,0,0,0,2.771,0l1.648-1.879a1.82,1.82,0,0,1,1.11-.589l2.594-.374a1.633,1.633,0,0,0,1.386-2.207Zm-5.3,2.416c-1.386.728-1.98.182-2.773-1.093,0-.182-.792.182-1.188,0-.2-.182-.594-.364-.4-.728-.2.364.2.546.4.728.4.182,1.188-.182,1.188,0,.792,1.275,1.386,1.821,2.773,1.093-.2.182.2.364.2.546C614.944,877.413,614.548,877.231,614.746,877.049Z" transform="translate(-604.331 -865.544)" fill="#ff778f"/>
      <path id="路径_356" data-name="路径 356" d="M626.566,891.3a7.184,7.184,0,0,1-3.975.167c-2.595-.507-5.03-2.745-5.009-5.29a4.287,4.287,0,0,1,1.434-3.14,5.669,5.669,0,0,1,6.514-.641c1.889,1.27,2.31,3.826,1.576,4.519-.12.113-.5.4-.483.773a.813.813,0,0,0,.321.543c.372.271.7.033,1.248.256a1.3,1.3,0,0,1,.76.755.99.99,0,0,1-.172.769A5.151,5.151,0,0,1,626.566,891.3Z" transform="translate(-614.884 -878.645)" fill="#ffd96e"/>
      <g id="组_882" data-name="组 882" transform="translate(5.201 2.128)">
        <g id="组_881" data-name="组 881">
          <path id="路径_357" data-name="路径 357" d="M631.863,922.636c-1.022.584-1.46.146-2.044-.876,0-.146-.584.146-.876,0-.06-.059-.143-.119-.212-.189a6.107,6.107,0,0,1-.034,1.173,3.492,3.492,0,0,1-.744,1.514,11.247,11.247,0,0,0,1.658-.163,2.843,2.843,0,0,0,1.955-.919,2.511,2.511,0,0,0,.287-.363A.128.128,0,0,1,631.863,922.636Z" transform="translate(-627.953 -913.288)" fill="#fff"/>
          <path id="路径_358" data-name="路径 358" d="M634.8,913.348a1.751,1.751,0,0,0-1.811-.138,1.7,1.7,0,0,0-.748.911,1.826,1.826,0,0,0-.1.487c.069.07.152.129.212.189.292.146.876-.146.876,0,.584,1.022,1.022,1.46,2.044.876a.128.128,0,0,0-.01.177,1.851,1.851,0,0,0,.307-1A1.9,1.9,0,0,0,634.8,913.348Z" transform="translate(-631.362 -906.324)" fill="#fff"/>
          <path id="路径_359" data-name="路径 359" d="M648.082,877.035h0a.32.32,0,0,1,.128.426l-3.242,6.271a.319.319,0,0,1-.426.139l-1.085-.543a.319.319,0,0,1-.112-.478l4.326-5.728A.319.319,0,0,1,648.082,877.035Z" transform="translate(-640.432 -876.995)" fill="#fff"/>
        </g>
        <path id="路径_360" data-name="路径 360" d="M636.053,916.427c.091-.229.142-.329.091-.415-.069-.116-.277-.129-.415-.091a.552.552,0,0,0-.322.277.874.874,0,0,0-.091.415,4.69,4.69,0,0,0,0,.559c.228-.033.448-.107.484-.048l.023-.051C635.963,916.754,635.88,916.862,636.053,916.427Z" transform="translate(-633.941 -908.672)" fill="#ff778f"/>
        <path id="路径_361" data-name="路径 361" d="M635.1,922.432c0,.067,0,.138,0,.225-.012.409-.09.582-.044.6.08.031.36-.5.528-.872C635.553,922.324,635.333,922.4,635.1,922.432Z" transform="translate(-633.729 -913.931)" fill="#ff778f"/>
      </g>
      <ellipse id="椭圆_32" data-name="椭圆 32" cx="0.818" cy="0.743" rx="0.818" ry="0.743" transform="translate(7.768 3.531)" fill="#ff778f"/>
      <ellipse id="椭圆_33" data-name="椭圆 33" cx="0.818" cy="0.743" rx="0.818" ry="0.743" transform="translate(5.181 4.076)" fill="#ff778f"/>
      <ellipse id="椭圆_34" data-name="椭圆 34" cx="0.818" cy="0.743" rx="0.818" ry="0.743" transform="translate(3.589 5.894)" fill="#ff778f"/>
      <ellipse id="椭圆_35" data-name="椭圆 35" cx="0.818" cy="0.743" rx="0.818" ry="0.743" transform="translate(3.589 8.075)" fill="#ff778f"/>
    </g>
  </g>
</svg>
