<svg xmlns="http://www.w3.org/2000/svg" width="30" height="30" viewBox="0 0 30 30">
  <g id="通知" transform="translate(-1250 -229)">
    <rect id="矩形_1165" data-name="矩形 1165" width="30" height="30" transform="translate(1250 229)" fill="none"/>
    <path id="路径_308" data-name="路径 308" d="M104.093,55.63V49.6a8.743,8.743,0,1,1,17.457,0v5.961a.21.21,0,0,0,.042.126l1.111,1.489a1.367,1.367,0,0,1-1.1,2.184H104.34a1.367,1.367,0,0,1-1.184-2.05l.909-1.577a.21.21,0,0,0,.028-.105Zm16.885,2.051-.735-.986a1.893,1.893,0,0,1-.375-1.132V49.6a7.064,7.064,0,1,0-14.092,0V55.63a1.893,1.893,0,0,1-.252.946l-.637,1.1Zm-11.232,5.3a7.876,7.876,0,0,0,7.069-.007.841.841,0,1,0-.761-1.5,6.205,6.205,0,0,1-5.55.006.841.841,0,0,0-.757,1.5Z" transform="translate(1152.026 191.652)" fill="#666"/>
  </g>
</svg>
