<svg xmlns="http://www.w3.org/2000/svg" width="30" height="30" viewBox="0 0 30 30">
  <g id="购物车" transform="translate(-1272 -87)">
    <rect id="矩形_1166" data-name="矩形 1166" width="30" height="30" transform="translate(1272 87)" fill="none"/>
    <g id="组_824" data-name="组 824" transform="translate(1215.367 21.727)">
      <path id="路径_309" data-name="路径 309" d="M61.454,70.916a.926.926,0,0,1,.911.755L64.7,84.031a2.875,2.875,0,0,0,2.825,2.341h10.48a2.875,2.875,0,0,0,2.8-2.242l1.752-7.767a2.875,2.875,0,0,0-2.8-3.508H67.483a.821.821,0,1,0,0,1.643H79.758a1.232,1.232,0,0,1,1.2,1.5l-1.752,7.766a1.232,1.232,0,0,1-1.2.961H67.526a1.232,1.232,0,0,1-1.211-1L63.98,71.365a2.57,2.57,0,0,0-2.525-2.092.821.821,0,0,0,0,1.643Z" transform="translate(0)" fill="#666"/>
      <path id="路径_310" data-name="路径 310" d="M318.187,860.8m-1.61,0a1.61,1.61,0,1,0,1.61-1.61A1.61,1.61,0,0,0,316.577,860.8Z" transform="translate(-249.647 -770.48)" fill="#666"/>
      <path id="路径_311" data-name="路径 311" d="M623.676,860.8m-1.61,0a1.61,1.61,0,1,0,1.61-1.61A1.61,1.61,0,0,0,622.066,860.8Z" transform="translate(-547.621 -770.48)" fill="#666"/>
    </g>
  </g>
</svg>
